LittleCharacterRegular_extended.ufo
<glyph name="quotesingle" format="2">
  <advance width="273"/>
  <unicode hex="0027"/>
  <outline>
    <contour>
      <point x="162" y="657" type="line" smooth="yes"/>
      <point x="154" y="657"/>
      <point x="144" y="664" type="qcurve"/>
      <point x="137" y="674"/>
      <point x="137" y="682" type="qcurve" smooth="yes"/>
      <point x="137" y="767" type="line" smooth="yes"/>
      <point x="137" y="777"/>
      <point x="144" y="784" type="qcurve" smooth="yes"/>
      <point x="152" y="792"/>
      <point x="162" y="792" type="qcurve" smooth="yes"/>
      <point x="248" y="792" type="line" smooth="yes"/>
      <point x="258" y="792"/>
      <point x="266" y="784" type="qcurve" smooth="yes"/>
      <point x="274" y="778"/>
      <point x="274" y="767" type="qcurve" smooth="yes"/>
      <point x="274" y="682" type="line" smooth="yes"/>
      <point x="274" y="672"/>
      <point x="266" y="664" type="qcurve" smooth="yes"/>
      <point x="93" y="491" type="line" smooth="yes"/>
      <point x="85" y="483"/>
      <point x="76" y="483" type="qcurve" smooth="yes"/>
      <point x="65" y="483"/>
      <point x="57" y="491" type="qcurve" smooth="yes"/>
      <point x="50" y="498"/>
      <point x="50" y="508" type="qcurve" smooth="yes"/>
      <point x="50" y="520"/>
      <point x="57" y="527" type="qcurve" smooth="yes"/>
      <point x="188" y="657" type="line"/>
    </contour>
    <contour>
      <point x="223" y="742" type="line"/>
      <point x="188" y="742" type="line"/>
      <point x="188" y="707" type="line"/>
      <point x="223" y="707" type="line"/>
    </contour>
  </outline>
</glyph>
<glyph name="parenleft" format="2">
  <advance width="458"/>
  <unicode hex="0028"/>
  <outline>
    <contour>
      <point x="390" y="808" type="qcurve" smooth="yes"/>
      <point x="379" y="819"/>
      <point x="362" y="820" type="qcurve" smooth="yes"/>
      <point x="344" y="820"/>
      <point x="334" y="808" type="qcurve" smooth="yes"/>
      <point x="69" y="542" type="line" smooth="yes"/>
      <point x="58" y="531"/>
      <point x="57" y="514" type="qcurve" smooth="yes"/>
      <point x="57" y="252" type="line" smooth="yes"/>
      <point x="57" y="236"/>
      <point x="69" y="224" type="qcurve" smooth="yes"/>
      <point x="334" y="-41" type="line" smooth="yes"/>
      <point x="348" y="-52"/>
      <point x="362" y="-46" type="qcurve" smooth="yes"/>
      <point x="376" y="-43"/>
      <point x="390" y="-29" type="qcurve" smooth="yes"/>
      <point x="401" y="-20"/>
      <point x="401" y="-4" type="qcurve" smooth="yes"/>
      <point x="401" y="9"/>
      <point x="390" y="23" type="qcurve" smooth="yes"/>
      <point x="136" y="277" type="line"/>
      <point x="136" y="506" type="line"/>
      <point x="390" y="761" type="line" smooth="yes"/>
      <point x="414" y="784"/>
    </contour>
  </outline>
</glyph>
<glyph name="parenright" format="2">
  <advance width="455"/>
  <unicode hex="0029"/>
  <outline>
    <contour>
      <point x="69" y="808" type="qcurve" smooth="yes"/>
      <point x="80" y="818"/>
      <point x="96" y="820" type="qcurve" smooth="yes"/>
      <point x="113" y="820"/>
      <point x="124" y="808" type="qcurve" smooth="yes"/>
      <point x="387" y="544" type="line" smooth="yes"/>
      <point x="398" y="533"/>
      <point x="398" y="517" type="qcurve" smooth="yes"/>
      <point x="398" y="257" type="line" smooth="yes"/>
      <point x="398" y="243"/>
      <point x="387" y="229" type="qcurve" smooth="yes"/>
      <point x="124" y="-33" type="line" smooth="yes"/>
      <point x="111" y="-43"/>
      <point x="96" y="-39" type="qcurve" smooth="yes"/>
      <point x="82" y="-35"/>
      <point x="69" y="-22" type="qcurve" smooth="yes"/>
      <point x="58" y="-13"/>
      <point x="58" y="2" type="qcurve" smooth="yes"/>
      <point x="57" y="18"/>
      <point x="69" y="29" type="qcurve" smooth="yes"/>
      <point x="320" y="281" type="line"/>
      <point x="320" y="508" type="line"/>
      <point x="69" y="761" type="line" smooth="yes"/>
      <point x="45" y="784"/>
    </contour>
  </outline>
</glyph>
<glyph name="plus" format="2">
  <advance width="658"/>
  <unicode hex="002B"/>
  <outline>
    <contour>
      <point x="92" y="346" type="line" smooth="yes"/>
      <point x="78" y="346"/>
      <point x="68" y="356" type="qcurve" smooth="yes"/>
      <point x="57" y="367"/>
      <point x="57" y="395"/>
      <point x="68" y="406" type="qcurve" smooth="yes"/>
      <point x="78" y="416"/>
      <point x="92" y="416" type="qcurve" smooth="yes"/>
      <point x="294" y="416" type="line"/>
      <point x="294" y="618" type="line" smooth="yes"/>
      <point x="294" y="632"/>
      <point x="304" y="642" type="qcurve" smooth="yes"/>
      <point x="315" y="653"/>
      <point x="329" y="653" type="qcurve" smooth="yes"/>
      <point x="344" y="653"/>
      <point x="364" y="633"/>
      <point x="364" y="618" type="qcurve" smooth="yes"/>
      <point x="364" y="416" type="line"/>
      <point x="567" y="416" type="line" smooth="yes"/>
      <point x="579" y="416"/>
      <point x="592" y="406" type="qcurve"/>
      <point x="602" y="393"/>
      <point x="602" y="369"/>
      <point x="592" y="356" type="qcurve"/>
      <point x="579" y="346"/>
      <point x="567" y="346" type="qcurve" smooth="yes"/>
      <point x="364" y="346" type="line"/>
      <point x="364" y="143" type="line" smooth="yes"/>
      <point x="364" y="128"/>
      <point x="354" y="118" type="qcurve" smooth="yes"/>
      <point x="343" y="108"/>
      <point x="317" y="108"/>
      <point x="304" y="118" type="qcurve"/>
      <point x="294" y="131"/>
      <point x="294" y="143" type="qcurve" smooth="yes"/>
      <point x="294" y="346" type="line"/>
    </contour>
  </outline>
</glyph>
<glyph name="comma" format="2">
  <advance width="331"/>
  <unicode hex="002C"/>
  <outline>
    <contour>
      <point x="162" y="1" type="line" smooth="yes"/>
      <point x="151" y="1"/>
      <point x="144" y="8" type="qcurve" smooth="yes"/>
      <point x="137" y="16"/>
      <point x="137" y="26" type="qcurve" smooth="yes"/>
      <point x="137" y="111" type="line" smooth="yes"/>
      <point x="137" y="121"/>
      <point x="144" y="128" type="qcurve" smooth="yes"/>
      <point x="152" y="136"/>
      <point x="162" y="136" type="qcurve" smooth="yes"/>
      <point x="248" y="136" type="line" smooth="yes"/>
      <point x="258" y="136"/>
      <point x="266" y="128" type="qcurve" smooth="yes"/>
      <point x="274" y="122"/>
      <point x="274" y="111" type="qcurve" smooth="yes"/>
      <point x="274" y="26" type="line" smooth="yes"/>
      <point x="274" y="16"/>
      <point x="266" y="8" type="qcurve" smooth="yes"/>
      <point x="93" y="-165" type="line" smooth="yes"/>
      <point x="85" y="-173"/>
      <point x="76" y="-173" type="qcurve" smooth="yes"/>
      <point x="65" y="-173"/>
      <point x="57" y="-165" type="qcurve" smooth="yes"/>
      <point x="50" y="-158"/>
      <point x="50" y="-148" type="qcurve" smooth="yes"/>
      <point x="50" y="-137"/>
      <point x="57" y="-130" type="qcurve" smooth="yes"/>
      <point x="188" y="1" type="line"/>
    </contour>
    <contour>
      <point x="223" y="85" type="line"/>
      <point x="188" y="85" type="line"/>
      <point x="188" y="51" type="line"/>
      <point x="223" y="51" type="line"/>
    </contour>
  </outline>
</glyph>
<glyph name="hyphen" format="2">
  <advance width="658"/>
  <unicode hex="002D"/>
  <outline>
    <contour>
      <point x="57" y="395" type="qcurve" smooth="yes"/>
      <point x="57" y="409"/>
      <point x="68" y="420" type="qcurve" smooth="yes"/>
      <point x="78" y="430"/>
      <point x="92" y="430" type="qcurve" smooth="yes"/>
      <point x="566" y="430" type="line" smooth="yes"/>
      <point x="580" y="430"/>
      <point x="590" y="420" type="qcurve" smooth="yes"/>
      <point x="601" y="409"/>
      <point x="601" y="395" type="qcurve" smooth="yes"/>
      <point x="601" y="378"/>
      <point x="590" y="370" type="qcurve"/>
      <point x="582" y="359"/>
      <point x="566" y="359" type="qcurve" smooth="yes"/>
      <point x="92" y="359" type="line" smooth="yes"/>
      <point x="76" y="359"/>
      <point x="68" y="370" type="qcurve"/>
      <point x="57" y="378"/>
    </contour>
  </outline>
</glyph>
<glyph name="period" format="2">
  <advance width="250"/>
  <unicode hex="002E"/>
  <outline>
    <contour>
      <point x="169" y="2" type="qcurve" smooth="yes"/>
      <point x="83" y="2" type="line" smooth="yes"/>
      <point x="72" y="2"/>
      <point x="65" y="9" type="qcurve" smooth="yes"/>
      <point x="57" y="17"/>
      <point x="57" y="27" type="qcurve" smooth="yes"/>
      <point x="57" y="112" type="line" smooth="yes"/>
      <point x="57" y="120"/>
      <point x="64" y="130" type="qcurve"/>
      <point x="74" y="137"/>
      <point x="83" y="137" type="qcurve" smooth="yes"/>
      <point x="169" y="137" type="line" smooth="yes"/>
      <point x="179" y="137"/>
      <point x="186" y="130" type="qcurve" smooth="yes"/>
      <point x="194" y="122"/>
      <point x="194" y="112" type="qcurve" smooth="yes"/>
      <point x="194" y="27" type="line" smooth="yes"/>
      <point x="194" y="17"/>
      <point x="186" y="9" type="qcurve" smooth="yes"/>
      <point x="180" y="2"/>
    </contour>
    <contour>
      <point x="143" y="87" type="line"/>
      <point x="108" y="87" type="line"/>
      <point x="108" y="52" type="line"/>
      <point x="143" y="52" type="line"/>
    </contour>
  </outline>
</glyph>
<glyph name="one" format="2">
  <advance width="674"/>
  <unicode hex="0031"/>
  <outline>
    <contour>
      <point x="581" y="73" type="line" smooth="yes"/>
      <point x="597" y="73"/>
      <point x="606" y="63" type="qcurve" smooth="yes"/>
      <point x="617" y="52"/>
      <point x="617" y="38" type="qcurve" smooth="yes"/>
      <point x="617" y="23"/>
      <point x="606" y="12" type="qcurve" smooth="yes"/>
      <point x="596" y="2"/>
      <point x="581" y="2" type="qcurve" smooth="yes"/>
      <point x="93" y="2" type="line" smooth="yes"/>
      <point x="78" y="2"/>
      <point x="68" y="12" type="qcurve" smooth="yes"/>
      <point x="57" y="23"/>
      <point x="57" y="38" type="qcurve" smooth="yes"/>
      <point x="57" y="52"/>
      <point x="68" y="63" type="qcurve" smooth="yes"/>
      <point x="77" y="73"/>
      <point x="93" y="73" type="qcurve" smooth="yes"/>
      <point x="307" y="73" type="line"/>
      <point x="307" y="676" type="line"/>
      <point x="118" y="492" type="line" smooth="yes"/>
      <point x="108" y="482"/>
      <point x="93" y="482" type="qcurve" smooth="yes"/>
      <point x="79" y="480"/>
      <point x="68" y="492" type="qcurve" smooth="yes"/>
      <point x="58" y="502"/>
      <point x="58" y="517" type="qcurve" smooth="yes"/>
      <point x="56" y="530"/>
      <point x="68" y="542" type="qcurve" smooth="yes"/>
      <point x="317" y="785" type="line" smooth="yes"/>
      <point x="335" y="801"/>
      <point x="356" y="792" type="qcurve" smooth="yes"/>
      <point x="377" y="784"/>
      <point x="378" y="760" type="qcurve" smooth="yes"/>
      <point x="378" y="73" type="line"/>
    </contour>
  </outline>
</glyph>
<glyph name="three" format="2">
  <advance width="673"/>
  <unicode hex="0033"/>
  <outline>
    <contour>
      <point x="546" y="534" type="line"/>
      <point x="546" y="622" type="line"/>
      <point x="443" y="724" type="line"/>
      <point x="225" y="724" type="line"/>
      <point x="118" y="616" type="line" smooth="yes"/>
      <point x="108" y="606"/>
      <point x="94" y="606" type="qcurve" smooth="yes"/>
      <point x="79" y="605"/>
      <point x="57" y="627"/>
      <point x="57" y="640" type="qcurve" smooth="yes"/>
      <point x="57" y="655"/>
      <point x="68" y="666" type="qcurve" smooth="yes"/>
      <point x="185" y="784" type="line" smooth="yes"/>
      <point x="193" y="793"/>
      <point x="211" y="795" type="qcurve" smooth="yes"/>
      <point x="458" y="795" type="line" smooth="yes"/>
      <point x="473" y="795"/>
      <point x="484" y="784" type="qcurve" smooth="yes"/>
      <point x="606" y="662" type="line" smooth="yes"/>
      <point x="616" y="652"/>
      <point x="617" y="637" type="qcurve" smooth="yes"/>
      <point x="617" y="519" type="line" smooth="yes"/>
      <point x="617" y="505"/>
      <point x="606" y="494" type="qcurve" smooth="yes"/>
      <point x="509" y="398" type="line"/>
      <point x="606" y="305" type="line" smooth="yes"/>
      <point x="616" y="295"/>
      <point x="617" y="280" type="qcurve" smooth="yes"/>
      <point x="617" y="160" type="line" smooth="yes"/>
      <point x="617" y="146"/>
      <point x="606" y="135" type="qcurve" smooth="yes"/>
      <point x="484" y="13" type="line" smooth="yes"/>
      <point x="473" y="3"/>
      <point x="458" y="2" type="qcurve" smooth="yes"/>
      <point x="211" y="2" type="line" smooth="yes"/>
      <point x="196" y="2"/>
      <point x="185" y="13" type="qcurve" smooth="yes"/>
      <point x="67" y="136" type="line" smooth="yes"/>
      <point x="57" y="146"/>
      <point x="57" y="161" type="qcurve" smooth="yes"/>
      <point x="57" y="175"/>
      <point x="68" y="186" type="qcurve" smooth="yes"/>
      <point x="78" y="196"/>
      <point x="94" y="196" type="qcurve" smooth="yes"/>
      <point x="109" y="195"/>
      <point x="119" y="185" type="qcurve" smooth="yes"/>
      <point x="226" y="73" type="line"/>
      <point x="443" y="73" type="line"/>
      <point x="546" y="175" type="line"/>
      <point x="546" y="265" type="line"/>
      <point x="443" y="363" type="line"/>
      <point x="332" y="363" type="line" smooth="yes"/>
      <point x="318" y="363"/>
      <point x="307" y="374" type="qcurve" smooth="yes"/>
      <point x="297" y="383"/>
      <point x="297" y="413"/>
      <point x="308" y="424" type="qcurve" smooth="yes"/>
      <point x="318" y="434"/>
      <point x="332" y="434" type="qcurve" smooth="yes"/>
      <point x="444" y="434" type="line"/>
    </contour>
  </outline>
</glyph>
<glyph name="four" format="2">
  <advance width="673"/>
  <unicode hex="0034"/>
  <outline>
    <contour>
      <point x="582" y="435" type="line" smooth="yes"/>
      <point x="597" y="435"/>
      <point x="606" y="425" type="qcurve" smooth="yes"/>
      <point x="617" y="414"/>
      <point x="617" y="401" type="qcurve" smooth="yes"/>
      <point x="617" y="387"/>
      <point x="606" y="376" type="qcurve" smooth="yes"/>
      <point x="596" y="366"/>
      <point x="582" y="366" type="qcurve" smooth="yes"/>
      <point x="494" y="366" type="line"/>
      <point x="494" y="40" type="line" smooth="yes"/>
      <point x="494" y="25"/>
      <point x="484" y="16" type="qcurve" smooth="yes"/>
      <point x="473" y="5"/>
      <point x="459" y="5" type="qcurve" smooth="yes"/>
      <point x="444" y="5"/>
      <point x="434" y="15" type="qcurve" smooth="yes"/>
      <point x="424" y="26"/>
      <point x="424" y="40" type="qcurve" smooth="yes"/>
      <point x="424" y="366" type="line"/>
      <point x="92" y="366" type="line" smooth="yes"/>
      <point x="68" y="366"/>
      <point x="60" y="387" type="qcurve" smooth="yes"/>
      <point x="51" y="409"/>
      <point x="68" y="426" type="qcurve" smooth="yes"/>
      <point x="434" y="787" type="line" smooth="yes"/>
      <point x="450" y="803"/>
      <point x="473" y="795" type="qcurve" smooth="yes"/>
      <point x="483" y="791"/>
      <point x="488" y="782" type="qcurve" smooth="yes"/>
      <point x="494" y="773"/>
      <point x="494" y="762" type="qcurve" smooth="yes"/>
      <point x="494" y="435" type="line"/>
    </contour>
    <contour>
      <point x="424" y="678" type="line"/>
      <point x="177" y="435" type="line"/>
      <point x="424" y="435" type="line"/>
    </contour>
  </outline>
</glyph>
<glyph name="five" format="2">
  <advance width="673"/>
  <unicode hex="0035"/>
  <outline>
    <contour>
      <point x="606" y="783" type="qcurve" smooth="yes"/>
      <point x="616" y="772"/>
      <point x="616" y="758" type="qcurve" smooth="yes"/>
      <point x="616" y="742"/>
      <point x="606" y="732" type="qcurve" smooth="yes"/>
      <point x="595" y="722"/>
      <point x="581" y="722" type="qcurve" smooth="yes"/>
      <point x="129" y="722" type="line"/>
      <point x="129" y="452" type="line"/>
      <point x="313" y="551" type="line" smooth="yes"/>
      <point x="320" y="555"/>
      <point x="330" y="555" type="qcurve" smooth="yes"/>
      <point x="452" y="555" type="line" smooth="yes"/>
      <point x="466" y="555"/>
      <point x="477" y="544" type="qcurve" smooth="yes"/>
      <point x="606" y="412" type="line" smooth="yes"/>
      <point x="616" y="402"/>
      <point x="616" y="387" type="qcurve" smooth="yes"/>
      <point x="616" y="153" type="line" smooth="yes"/>
      <point x="616" y="137"/>
      <point x="606" y="127" type="qcurve" smooth="yes"/>
      <point x="488" y="11" type="line" smooth="yes"/>
      <point x="478" y="1"/>
      <point x="463" y="1" type="qcurve" smooth="yes"/>
      <point x="209" y="1" type="line" smooth="yes"/>
      <point x="194" y="1"/>
      <point x="184" y="11" type="qcurve" smooth="yes"/>
      <point x="67" y="128" type="line" smooth="yes"/>
      <point x="57" y="138"/>
      <point x="57" y="154" type="qcurve" smooth="yes"/>
      <point x="57" y="168"/>
      <point x="67" y="178" type="qcurve" smooth="yes"/>
      <point x="78" y="189"/>
      <point x="92" y="189" type="qcurve" smooth="yes"/>
      <point x="107" y="189"/>
      <point x="118" y="178" type="qcurve" smooth="yes"/>
      <point x="224" y="72" type="line"/>
      <point x="448" y="72" type="line"/>
      <point x="546" y="168" type="line"/>
      <point x="546" y="372" type="line"/>
      <point x="437" y="484" type="line"/>
      <point x="339" y="484" type="line"/>
      <point x="110" y="361" type="line" smooth="yes"/>
      <point x="93" y="352"/>
      <point x="75" y="362" type="qcurve" smooth="yes"/>
      <point x="58" y="372"/>
      <point x="57" y="392" type="qcurve" smooth="yes"/>
      <point x="57" y="758" type="line" smooth="yes"/>
      <point x="57" y="774"/>
      <point x="68" y="782" type="qcurve"/>
      <point x="76" y="793"/>
      <point x="93" y="793" type="qcurve" smooth="yes"/>
      <point x="581" y="793" type="line" smooth="yes"/>
      <point x="596" y="793"/>
    </contour>
  </outline>
</glyph>
<glyph name="six" format="2">
  <advance width="674"/>
  <unicode hex="0036"/>
  <outline>
    <contour>
      <point x="451" y="437" type="line" smooth="yes"/>
      <point x="465" y="437"/>
      <point x="476" y="426" type="qcurve" smooth="yes"/>
      <point x="607" y="298" type="line" smooth="yes"/>
      <point x="617" y="288"/>
      <point x="617" y="273" type="qcurve" smooth="yes"/>
      <point x="617" y="171" type="line" smooth="yes"/>
      <point x="617" y="157"/>
      <point x="606" y="146" type="qcurve" smooth="yes"/>
      <point x="466" y="14" type="line" smooth="yes"/>
      <point x="456" y="5"/>
      <point x="441" y="5" type="qcurve" smooth="yes"/>
      <point x="227" y="5" type="line" smooth="yes"/>
      <point x="211" y="5"/>
      <point x="201" y="15" type="qcurve" smooth="yes"/>
      <point x="68" y="146" type="line" smooth="yes"/>
      <point x="58" y="156"/>
      <point x="57" y="172" type="qcurve" smooth="yes"/>
      <point x="57" y="417" type="line" smooth="yes"/>
      <point x="57" y="431"/>
      <point x="68" y="442" type="qcurve" smooth="yes"/>
      <point x="318" y="683" type="line" smooth="yes"/>
      <point x="322" y="687"/>
      <point x="328" y="690" type="qcurve" smooth="yes"/>
      <point x="565" y="794" type="line" smooth="yes"/>
      <point x="578" y="800"/>
      <point x="592" y="794" type="qcurve" smooth="yes"/>
      <point x="606" y="790"/>
      <point x="613" y="776" type="qcurve" smooth="yes"/>
      <point x="619" y="764"/>
      <point x="614" y="750" type="qcurve" smooth="yes"/>
      <point x="608" y="736"/>
      <point x="595" y="730" type="qcurve" smooth="yes"/>
      <point x="364" y="628" type="line"/>
      <point x="165" y="437" type="line"/>
    </contour>
    <contour>
      <point x="129" y="186" type="line"/>
      <point x="242" y="75" type="line"/>
      <point x="427" y="76" type="line"/>
      <point x="546" y="186" type="line"/>
      <point x="546" y="258" type="line"/>
      <point x="436" y="366" type="line"/>
      <point x="129" y="366" type="line"/>
    </contour>
  </outline>
</glyph>
<glyph name="seven" format="2">
  <advance width="673"/>
  <unicode hex="0037"/>
  <outline>
    <contour>
      <point x="58" y="757" type="qcurve" smooth="yes"/>
      <point x="58" y="772"/>
      <point x="68" y="782" type="qcurve" smooth="yes"/>
      <point x="79" y="793"/>
      <point x="94" y="793" type="qcurve" smooth="yes"/>
      <point x="581" y="793" type="line" smooth="yes"/>
      <point x="595" y="793"/>
      <point x="606" y="782" type="qcurve" smooth="yes"/>
      <point x="616" y="773"/>
      <point x="616" y="757" type="qcurve" smooth="yes"/>
      <point x="616" y="639" type="line" smooth="yes"/>
      <point x="616" y="623"/>
      <point x="606" y="613" type="qcurve" smooth="yes"/>
      <point x="129" y="138" type="line"/>
      <point x="129" y="36" type="line" smooth="yes"/>
      <point x="129" y="20"/>
      <point x="118" y="12" type="qcurve"/>
      <point x="110" y="1"/>
      <point x="76" y="1"/>
      <point x="68" y="12" type="qcurve"/>
      <point x="57" y="20"/>
      <point x="57" y="36" type="qcurve" smooth="yes"/>
      <point x="57" y="153" type="line" smooth="yes"/>
      <point x="57" y="167"/>
      <point x="68" y="178" type="qcurve" smooth="yes"/>
      <point x="545" y="653" type="line"/>
      <point x="545" y="722" type="line"/>
      <point x="94" y="722" type="line" smooth="yes"/>
      <point x="79" y="722"/>
      <point x="69" y="732" type="qcurve" smooth="yes"/>
      <point x="58" y="743"/>
    </contour>
  </outline>
</glyph>
<glyph name="eight" format="2">
  <advance width="674"/>
  <unicode hex="0038"/>
  <outline>
    <contour>
      <point x="57" y="161" type="line"/>
      <point x="57" y="281" type="line" smooth="yes"/>
      <point x="57" y="294"/>
      <point x="68" y="305" type="qcurve" smooth="yes"/>
      <point x="165" y="399" type="line"/>
      <point x="68" y="495" type="line" smooth="yes"/>
      <point x="57" y="506"/>
      <point x="57" y="520" type="qcurve" smooth="yes"/>
      <point x="57" y="637" type="line"/>
      <point x="57" y="640" type="line" smooth="yes"/>
      <point x="55" y="656"/>
      <point x="68" y="666" type="qcurve" smooth="yes"/>
      <point x="185" y="785" type="line" smooth="yes"/>
      <point x="196" y="796"/>
      <point x="211" y="796" type="qcurve" smooth="yes"/>
      <point x="464" y="796" type="line" smooth="yes"/>
      <point x="478" y="796"/>
      <point x="489" y="785" type="qcurve" smooth="yes"/>
      <point x="606" y="666" type="line" smooth="yes"/>
      <point x="617" y="655"/>
      <point x="617" y="640" type="qcurve" smooth="yes"/>
      <point x="617" y="637" type="line"/>
      <point x="617" y="520" type="line" smooth="yes"/>
      <point x="617" y="506"/>
      <point x="606" y="495" type="qcurve" smooth="yes"/>
      <point x="509" y="399" type="line"/>
      <point x="606" y="305" type="line" smooth="yes"/>
      <point x="616" y="297"/>
      <point x="617" y="281" type="qcurve" smooth="yes"/>
      <point x="617" y="161" type="line"/>
      <point x="617" y="159" type="line" smooth="yes"/>
      <point x="617" y="146"/>
      <point x="607" y="136" type="qcurve" smooth="yes"/>
      <point x="489" y="14" type="line" smooth="yes"/>
      <point x="479" y="4"/>
      <point x="464" y="2" type="qcurve" smooth="yes"/>
      <point x="211" y="2" type="line" smooth="yes"/>
      <point x="196" y="2"/>
      <point x="185" y="14" type="qcurve" smooth="yes"/>
      <point x="67" y="136" type="line" smooth="yes"/>
      <point x="58" y="146"/>
      <point x="57" y="159" type="qcurve" smooth="yes"/>
    </contour>
    <contour>
      <point x="129" y="623" type="line"/>
      <point x="129" y="535" type="line"/>
      <point x="230" y="435" type="line"/>
      <point x="444" y="435" type="line"/>
      <point x="546" y="535" type="line"/>
      <point x="546" y="623" type="line"/>
      <point x="443" y="725" type="line"/>
      <point x="231" y="725" type="line"/>
    </contour>
    <contour>
      <point x="129" y="266" type="line"/>
      <point x="129" y="176" type="line"/>
      <point x="231" y="73" type="line"/>
      <point x="443" y="73" type="line"/>
      <point x="546" y="176" type="line"/>
      <point x="546" y="266" type="line"/>
      <point x="443" y="364" type="line"/>
      <point x="231" y="364" type="line"/>
    </contour>
  </outline>
</glyph>
<glyph name="colon" format="2">
  <advance width="250"/>
  <unicode hex="003A"/>
  <outline>
    <contour>
      <point x="169" y="416" type="qcurve" smooth="yes"/>
      <point x="83" y="416" type="line" smooth="yes"/>
      <point x="73" y="416"/>
      <point x="65" y="424" type="qcurve" smooth="yes"/>
      <point x="57" y="430"/>
      <point x="57" y="441" type="qcurve" smooth="yes"/>
      <point x="57" y="527" type="line" smooth="yes"/>
      <point x="57" y="537"/>
      <point x="64" y="544" type="qcurve" smooth="yes"/>
      <point x="72" y="552"/>
      <point x="83" y="552" type="qcurve" smooth="yes"/>
      <point x="169" y="552" type="line" smooth="yes"/>
      <point x="181" y="552"/>
      <point x="186" y="544" type="qcurve"/>
      <point x="194" y="539"/>
      <point x="194" y="527" type="qcurve" smooth="yes"/>
      <point x="194" y="441" type="line" smooth="yes"/>
      <point x="194" y="429"/>
      <point x="186" y="424" type="qcurve"/>
      <point x="181" y="416"/>
    </contour>
    <contour>
      <point x="143" y="501" type="line"/>
      <point x="108" y="501" type="line"/>
      <point x="108" y="466" type="line"/>
      <point x="143" y="466" type="line"/>
    </contour>
    <contour>
      <point x="169" y="173" type="qcurve" smooth="yes"/>
      <point x="83" y="173" type="line" smooth="yes"/>
      <point x="73" y="173"/>
      <point x="65" y="180" type="qcurve" smooth="yes"/>
      <point x="57" y="191"/>
      <point x="57" y="198" type="qcurve" smooth="yes"/>
      <point x="57" y="283" type="line" smooth="yes"/>
      <point x="57" y="293"/>
      <point x="64" y="300" type="qcurve" smooth="yes"/>
      <point x="72" y="308"/>
      <point x="83" y="308" type="qcurve" smooth="yes"/>
      <point x="169" y="308" type="line" smooth="yes"/>
      <point x="181" y="308"/>
      <point x="186" y="300" type="qcurve"/>
      <point x="194" y="295"/>
      <point x="194" y="283" type="qcurve" smooth="yes"/>
      <point x="194" y="198" type="line" smooth="yes"/>
      <point x="194" y="188"/>
      <point x="186" y="180" type="qcurve" smooth="yes"/>
      <point x="179" y="173"/>
    </contour>
    <contour>
      <point x="143" y="258" type="line"/>
      <point x="108" y="258" type="line"/>
      <point x="108" y="223" type="line"/>
      <point x="143" y="223" type="line"/>
    </contour>
  </outline>
</glyph>
<glyph name="equal" format="2">
  <advance width="658"/>
  <unicode hex="003D"/>
  <outline>
    <contour>
      <point x="68" y="455" type="qcurve" smooth="yes"/>
      <point x="57" y="466"/>
      <point x="57" y="480" type="qcurve" smooth="yes"/>
      <point x="57" y="496"/>
      <point x="68" y="504" type="qcurve"/>
      <point x="76" y="515"/>
      <point x="92" y="515" type="qcurve" smooth="yes"/>
      <point x="566" y="515" type="line" smooth="yes"/>
      <point x="581" y="515"/>
      <point x="590" y="505" type="qcurve" smooth="yes"/>
      <point x="601" y="494"/>
      <point x="601" y="466"/>
      <point x="590" y="455" type="qcurve" smooth="yes"/>
      <point x="581" y="445"/>
      <point x="566" y="445" type="qcurve" smooth="yes"/>
      <point x="92" y="445" type="line" smooth="yes"/>
      <point x="77" y="445"/>
    </contour>
    <contour>
      <point x="57" y="236" type="qcurve" smooth="yes"/>
      <point x="57" y="251"/>
      <point x="68" y="262" type="qcurve" smooth="yes"/>
      <point x="78" y="272"/>
      <point x="92" y="272" type="qcurve" smooth="yes"/>
      <point x="566" y="272" type="line" smooth="yes"/>
      <point x="580" y="272"/>
      <point x="590" y="262" type="qcurve" smooth="yes"/>
      <point x="601" y="251"/>
      <point x="601" y="236" type="qcurve" smooth="yes"/>
      <point x="601" y="220"/>
      <point x="590" y="212" type="qcurve"/>
      <point x="582" y="201"/>
      <point x="566" y="201" type="qcurve" smooth="yes"/>
      <point x="92" y="201" type="line" smooth="yes"/>
      <point x="76" y="201"/>
      <point x="68" y="212" type="qcurve"/>
      <point x="57" y="220"/>
    </contour>
  </outline>
</glyph>
<glyph name="greater" format="2">
  <advance width="650"/>
  <unicode hex="003E"/>
  <outline>
    <contour>
      <point x="65" y="779" type="qcurve" smooth="yes"/>
      <point x="56" y="769"/>
      <point x="58" y="752" type="qcurve" smooth="yes"/>
      <point x="60" y="738"/>
      <point x="71" y="728" type="qcurve" smooth="yes"/>
      <point x="499" y="396" type="line"/>
      <point x="71" y="65" type="line" smooth="yes"/>
      <point x="60" y="54"/>
      <point x="58" y="40" type="qcurve" smooth="yes"/>
      <point x="56" y="25"/>
      <point x="65" y="15" type="qcurve" smooth="yes"/>
      <point x="73" y="3"/>
      <point x="89" y="1" type="qcurve" smooth="yes"/>
      <point x="105" y="0"/>
      <point x="115" y="8" type="qcurve" smooth="yes"/>
      <point x="580" y="368" type="line" smooth="yes"/>
      <point x="594" y="379"/>
      <point x="594" y="396" type="qcurve" smooth="yes"/>
      <point x="594" y="414"/>
      <point x="580" y="425" type="qcurve" smooth="yes"/>
      <point x="115" y="785" type="line" smooth="yes"/>
      <point x="105" y="793"/>
      <point x="89" y="792" type="qcurve" smooth="yes"/>
      <point x="75" y="790"/>
    </contour>
  </outline>
</glyph>
<glyph name="at" format="2">
  <advance width="674"/>
  <unicode hex="0040"/>
  <outline>
    <contour>
      <point x="546" y="399" type="line"/>
      <point x="546" y="622" type="line"/>
      <point x="445" y="723" type="line"/>
      <point x="228" y="723" type="line"/>
      <point x="129" y="621" type="line"/>
      <point x="129" y="179" type="line"/>
      <point x="229" y="73" type="line"/>
      <point x="441" y="73" type="line"/>
      <point x="556" y="190" type="line" smooth="yes"/>
      <point x="567" y="201"/>
      <point x="582" y="201" type="qcurve" smooth="yes"/>
      <point x="596" y="201"/>
      <point x="607" y="190" type="qcurve" smooth="yes"/>
      <point x="617" y="180"/>
      <point x="617" y="164" type="qcurve" smooth="yes"/>
      <point x="617" y="149"/>
      <point x="607" y="139" type="qcurve" smooth="yes"/>
      <point x="481" y="12" type="line" smooth="yes"/>
      <point x="471" y="2"/>
      <point x="455" y="2" type="qcurve" smooth="yes"/>
      <point x="213" y="2" type="line" smooth="yes"/>
      <point x="198" y="2"/>
      <point x="187" y="13" type="qcurve" smooth="yes"/>
      <point x="67" y="141" type="line" smooth="yes"/>
      <point x="57" y="151"/>
      <point x="57" y="165" type="qcurve" smooth="yes"/>
      <point x="57" y="636" type="line" smooth="yes"/>
      <point x="57" y="648"/>
      <point x="68" y="662" type="qcurve" smooth="yes"/>
      <point x="188" y="784" type="line" smooth="yes"/>
      <point x="198" y="794"/>
      <point x="213" y="794" type="qcurve" smooth="yes"/>
      <point x="460" y="794" type="line" smooth="yes"/>
      <point x="475" y="794"/>
      <point x="485" y="784" type="qcurve" smooth="yes"/>
      <point x="607" y="662" type="line" smooth="yes"/>
      <point x="618" y="651"/>
      <point x="617" y="636" type="qcurve" smooth="yes"/>
      <point x="618" y="383" type="line" smooth="yes"/>
      <point x="617" y="367"/>
      <point x="607" y="359" type="qcurve" smooth="yes"/>
      <point x="502" y="250" type="line" smooth="yes"/>
      <point x="491" y="239"/>
      <point x="477" y="239" type="qcurve" smooth="yes"/>
      <point x="213" y="239" type="line" smooth="yes"/>
      <point x="196" y="239"/>
      <point x="188" y="250" type="qcurve"/>
      <point x="177" y="258"/>
      <point x="177" y="275" type="qcurve" smooth="yes"/>
      <point x="177" y="518" type="line" smooth="yes"/>
      <point x="177" y="530"/>
      <point x="188" y="544" type="qcurve" smooth="yes"/>
      <point x="199" y="554"/>
      <point x="213" y="554" type="qcurve" smooth="yes"/>
      <point x="455" y="554" type="line" smooth="yes"/>
      <point x="470" y="554"/>
      <point x="480" y="544" type="qcurve" smooth="yes"/>
      <point x="491" y="533"/>
      <point x="491" y="518" type="qcurve" smooth="yes"/>
      <point x="491" y="340" type="line"/>
    </contour>
    <contour>
      <point x="419" y="482" type="line"/>
      <point x="249" y="482" type="line"/>
      <point x="249" y="311" type="line"/>
      <point x="419" y="311" type="line"/>
    </contour>
  </outline>
</glyph>
<glyph name="C" format="2">
  <advance width="672"/>
  <unicode hex="0043"/>
  <outline>
    <contour>
      <point x="605" y="184" type="qcurve" smooth="yes"/>
      <point x="614" y="174"/>
      <point x="616" y="158" type="qcurve" smooth="yes"/>
      <point x="616" y="144"/>
      <point x="605" y="133" type="qcurve" smooth="yes"/>
      <point x="485" y="15" type="line" smooth="yes"/>
      <point x="475" y="5"/>
      <point x="460" y="5" type="qcurve" smooth="yes"/>
      <point x="216" y="5" type="line" smooth="yes"/>
      <point x="202" y="5"/>
      <point x="192" y="14" type="qcurve" smooth="yes"/>
      <point x="68" y="133" type="line" smooth="yes"/>
      <point x="57" y="144"/>
      <point x="57" y="158" type="qcurve" smooth="yes"/>
      <point x="57" y="638" type="line" smooth="yes"/>
      <point x="57" y="654"/>
      <point x="68" y="663" type="qcurve" smooth="yes"/>
      <point x="191" y="787" type="line" smooth="yes"/>
      <point x="201" y="797"/>
      <point x="216" y="797" type="qcurve" smooth="yes"/>
      <point x="460" y="797" type="line" smooth="yes"/>
      <point x="475" y="797"/>
      <point x="485" y="787" type="qcurve" smooth="yes"/>
      <point x="528" y="744"/>
      <point x="555" y="716" type="qcurve" smooth="yes"/>
      <point x="605" y="666" type="line" smooth="yes"/>
      <point x="614" y="656"/>
      <point x="616" y="640" type="qcurve" smooth="yes"/>
      <point x="616" y="627"/>
      <point x="605" y="616" type="qcurve" smooth="yes"/>
      <point x="595" y="606"/>
      <point x="580" y="606" type="qcurve" smooth="yes"/>
      <point x="566" y="604"/>
      <point x="555" y="616" type="qcurve" smooth="yes"/>
      <point x="497" y="674" type="line"/>
      <point x="474" y="697" type="line"/>
      <point x="454" y="716" type="line"/>
      <point x="445" y="726" type="line"/>
      <point x="231" y="726" type="line"/>
      <point x="129" y="624" type="line"/>
      <point x="129" y="174" type="line"/>
      <point x="231" y="76" type="line"/>
      <point x="445" y="76" type="line"/>
      <point x="555" y="184" type="line" smooth="yes"/>
      <point x="565" y="194"/>
      <point x="595" y="194"/>
    </contour>
  </outline>
</glyph>
<glyph name="F" format="2">
  <advance width="673"/>
  <unicode hex="0046"/>
  <outline>
    <contour>
      <point x="129" y="37" type="line" smooth="yes"/>
      <point x="129" y="20"/>
      <point x="118" y="12" type="qcurve"/>
      <point x="110" y="1"/>
      <point x="76" y="1"/>
      <point x="68" y="12" type="qcurve"/>
      <point x="57" y="20"/>
      <point x="57" y="37" type="qcurve" smooth="yes"/>
      <point x="57" y="757" type="line" smooth="yes"/>
      <point x="57" y="774"/>
      <point x="68" y="782" type="qcurve"/>
      <point x="76" y="793"/>
      <point x="93" y="793" type="qcurve" smooth="yes"/>
      <point x="581" y="793" type="line" smooth="yes"/>
      <point x="595" y="793"/>
      <point x="606" y="782" type="qcurve" smooth="yes"/>
      <point x="617" y="773"/>
      <point x="617" y="757" type="qcurve" smooth="yes"/>
      <point x="617" y="743"/>
      <point x="606" y="732" type="qcurve" smooth="yes"/>
      <point x="597" y="722"/>
      <point x="581" y="722" type="qcurve" smooth="yes"/>
      <point x="129" y="722" type="line"/>
      <point x="129" y="432" type="line"/>
      <point x="341" y="432" type="line" smooth="yes"/>
      <point x="355" y="432"/>
      <point x="366" y="422" type="qcurve" smooth="yes"/>
      <point x="376" y="412"/>
      <point x="376" y="396" type="qcurve" smooth="yes"/>
      <point x="376" y="382"/>
      <point x="366" y="372" type="qcurve" smooth="yes"/>
      <point x="355" y="361"/>
      <point x="341" y="361" type="qcurve" smooth="yes"/>
      <point x="129" y="361" type="line"/>
    </contour>
  </outline>
</glyph>
<glyph name="J" format="2">
  <advance width="668"/>
  <unicode hex="004A"/>
  <outline>
    <contour>
      <point x="492" y="156" type="line" smooth="yes"/>
      <point x="492" y="140"/>
      <point x="481" y="131" type="qcurve" smooth="yes"/>
      <point x="358" y="13" type="line" smooth="yes"/>
      <point x="350" y="3"/>
      <point x="334" y="2" type="qcurve" smooth="yes"/>
      <point x="212" y="2" type="line" smooth="yes"/>
      <point x="199" y="2"/>
      <point x="188" y="13" type="qcurve" smooth="yes"/>
      <point x="68" y="131" type="line" smooth="yes"/>
      <point x="58" y="141"/>
      <point x="58" y="156" type="qcurve" smooth="yes"/>
      <point x="57" y="171"/>
      <point x="68" y="182" type="qcurve" smooth="yes"/>
      <point x="78" y="192"/>
      <point x="92" y="192" type="qcurve" smooth="yes"/>
      <point x="107" y="192"/>
      <point x="118" y="181" type="qcurve" smooth="yes"/>
      <point x="227" y="73" type="line"/>
      <point x="320" y="73" type="line"/>
      <point x="421" y="172" type="line"/>
      <point x="421" y="724" type="line"/>
      <point x="338" y="724" type="line" smooth="yes"/>
      <point x="324" y="724"/>
      <point x="313" y="734" type="qcurve" smooth="yes"/>
      <point x="302" y="748"/>
      <point x="302" y="760" type="qcurve" smooth="yes"/>
      <point x="302" y="774"/>
      <point x="313" y="785" type="qcurve" smooth="yes"/>
      <point x="323" y="795"/>
      <point x="338" y="795" type="qcurve" smooth="yes"/>
      <point x="576" y="795" type="line" smooth="yes"/>
      <point x="592" y="795"/>
      <point x="602" y="785" type="qcurve" smooth="yes"/>
      <point x="612" y="774"/>
      <point x="612" y="760" type="qcurve" smooth="yes"/>
      <point x="612" y="747"/>
      <point x="602" y="734" type="qcurve"/>
      <point x="589" y="724"/>
      <point x="576" y="724" type="qcurve" smooth="yes"/>
      <point x="492" y="724" type="line"/>
    </contour>
  </outline>
</glyph>
<glyph name="K" format="2">
  <advance width="674"/>
  <unicode hex="004B"/>
  <outline>
    <contour>
      <point x="129" y="38" type="line" smooth="yes"/>
      <point x="129" y="23"/>
      <point x="118" y="12" type="qcurve" smooth="yes"/>
      <point x="108" y="2"/>
      <point x="78" y="2"/>
      <point x="68" y="12" type="qcurve" smooth="yes"/>
      <point x="57" y="23"/>
      <point x="57" y="38" type="qcurve" smooth="yes"/>
      <point x="57" y="760" type="line" smooth="yes"/>
      <point x="57" y="774"/>
      <point x="68" y="785" type="qcurve" smooth="yes"/>
      <point x="77" y="795"/>
      <point x="109" y="795"/>
      <point x="118" y="785" type="qcurve" smooth="yes"/>
      <point x="129" y="774"/>
      <point x="129" y="760" type="qcurve" smooth="yes"/>
      <point x="129" y="365" type="line"/>
      <point x="557" y="785" type="line" smooth="yes"/>
      <point x="567" y="795"/>
      <point x="597" y="795"/>
      <point x="617" y="775"/>
      <point x="617" y="745"/>
      <point x="606" y="734" type="qcurve" smooth="yes"/>
      <point x="266" y="399" type="line"/>
      <point x="606" y="63" type="line" smooth="yes"/>
      <point x="617" y="52"/>
      <point x="617" y="38" type="qcurve" smooth="yes"/>
      <point x="617" y="23"/>
      <point x="607" y="13" type="qcurve" smooth="yes"/>
      <point x="596" y="2"/>
      <point x="568" y="2"/>
      <point x="557" y="13" type="qcurve" smooth="yes"/>
      <point x="215" y="349" type="line"/>
      <point x="129" y="266" type="line"/>
    </contour>
  </outline>
</glyph>
<glyph name="O" format="2">
  <advance width="674"/>
  <unicode hex="004F"/>
  <outline>
    <contour>
      <point x="606" y="135" type="qcurve" smooth="yes"/>
      <point x="487" y="17" type="line" smooth="yes"/>
      <point x="479" y="8"/>
      <point x="462" y="6" type="qcurve" smooth="yes"/>
      <point x="216" y="6" type="line" smooth="yes"/>
      <point x="202" y="6"/>
      <point x="192" y="16" type="qcurve" smooth="yes"/>
      <point x="68" y="134" type="line" smooth="yes"/>
      <point x="57" y="145"/>
      <point x="57" y="160" type="qcurve" smooth="yes"/>
      <point x="57" y="640" type="line" smooth="yes"/>
      <point x="57" y="654"/>
      <point x="68" y="665" type="qcurve" smooth="yes"/>
      <point x="191" y="788" type="line" smooth="yes"/>
      <point x="201" y="798"/>
      <point x="216" y="799" type="qcurve" smooth="yes"/>
      <point x="462" y="799" type="line" smooth="yes"/>
      <point x="476" y="799"/>
      <point x="487" y="788" type="qcurve" smooth="yes"/>
      <point x="493" y="782"/>
      <point x="520" y="754"/>
      <point x="545" y="730"/>
      <point x="557" y="718" type="qcurve" smooth="yes"/>
      <point x="584" y="690"/>
      <point x="607" y="667" type="qcurve" smooth="yes"/>
      <point x="611" y="662"/>
      <point x="614" y="656" type="qcurve" smooth="yes"/>
      <point x="617" y="651"/>
      <point x="617" y="643" type="qcurve" smooth="yes"/>
      <point x="617" y="160" type="line" smooth="yes"/>
      <point x="617" y="154"/>
      <point x="614" y="146" type="qcurve" smooth="yes"/>
      <point x="608" y="137"/>
    </contour>
    <contour>
      <point x="447" y="727" type="line"/>
      <point x="231" y="727" type="line"/>
      <point x="129" y="625" type="line"/>
      <point x="129" y="176" type="line"/>
      <point x="231" y="77" type="line"/>
      <point x="447" y="77" type="line"/>
      <point x="546" y="175" type="line"/>
      <point x="546" y="628" type="line"/>
    </contour>
  </outline>
</glyph>
<glyph name="R" format="2">
  <advance width="674"/>
  <unicode hex="0052"/>
  <outline>
    <contour>
      <point x="129" y="42" type="line" smooth="yes"/>
      <point x="129" y="28"/>
      <point x="118" y="17" type="qcurve" smooth="yes"/>
      <point x="109" y="6"/>
      <point x="77" y="6"/>
      <point x="68" y="17" type="qcurve" smooth="yes"/>
      <point x="57" y="28"/>
      <point x="57" y="42" type="qcurve" smooth="yes"/>
      <point x="57" y="764" type="line" smooth="yes"/>
      <point x="57" y="778"/>
      <point x="68" y="789" type="qcurve" smooth="yes"/>
      <point x="77" y="799"/>
      <point x="93" y="799" type="qcurve" smooth="yes"/>
      <point x="94" y="799" type="line"/>
      <point x="95" y="799" type="line"/>
      <point x="460" y="799" type="line" smooth="yes"/>
      <point x="476" y="799"/>
      <point x="485" y="789" type="qcurve" smooth="yes"/>
      <point x="606" y="667" type="line" smooth="yes"/>
      <point x="616" y="657"/>
      <point x="617" y="643" type="qcurve" smooth="yes"/>
      <point x="617" y="402" type="line" smooth="yes"/>
      <point x="617" y="387"/>
      <point x="606" y="376" type="qcurve" smooth="yes"/>
      <point x="485" y="255" type="line" smooth="yes"/>
      <point x="475" y="245"/>
      <point x="460" y="245" type="qcurve" smooth="yes"/>
      <point x="425" y="245" type="line"/>
      <point x="606" y="67" type="line" smooth="yes"/>
      <point x="616" y="57"/>
      <point x="616" y="42" type="qcurve" smooth="yes"/>
      <point x="618" y="28"/>
      <point x="596" y="6"/>
      <point x="568" y="6"/>
      <point x="557" y="17" type="qcurve" smooth="yes"/>
      <point x="322" y="245" type="line"/>
      <point x="129" y="245" type="line"/>
    </contour>
    <contour>
      <point x="129" y="316" type="line"/>
      <point x="445" y="316" type="line"/>
      <point x="546" y="416" type="line"/>
      <point x="546" y="628" type="line"/>
      <point x="445" y="728" type="line"/>
      <point x="129" y="728" type="line"/>
    </contour>
  </outline>
</glyph>
<glyph name="S" format="2">
  <advance width="675"/>
  <unicode hex="0053"/>
  <outline>
    <contour>
      <point x="214" y="362" type="line" smooth="yes"/>
      <point x="199" y="362"/>
      <point x="189" y="372" type="qcurve" smooth="yes"/>
      <point x="68" y="491" type="line" smooth="yes"/>
      <point x="59" y="499"/>
      <point x="57" y="516" type="qcurve" smooth="yes"/>
      <point x="57" y="637" type="line" smooth="yes"/>
      <point x="57" y="651"/>
      <point x="68" y="662" type="qcurve" smooth="yes"/>
      <point x="189" y="783" type="line" smooth="yes"/>
      <point x="199" y="793"/>
      <point x="214" y="793" type="qcurve" smooth="yes"/>
      <point x="458" y="793" type="line" smooth="yes"/>
      <point x="466" y="793"/>
      <point x="468" y="792" type="qcurve" smooth="yes"/>
      <point x="478" y="791"/>
      <point x="488" y="782" type="qcurve" smooth="yes"/>
      <point x="606" y="660" type="line" smooth="yes"/>
      <point x="616" y="650"/>
      <point x="616" y="635" type="qcurve" smooth="yes"/>
      <point x="617" y="621"/>
      <point x="606" y="610" type="qcurve" smooth="yes"/>
      <point x="597" y="600"/>
      <point x="581" y="600" type="qcurve" smooth="yes"/>
      <point x="566" y="600"/>
      <point x="556" y="610" type="qcurve" smooth="yes"/>
      <point x="447" y="722" type="line"/>
      <point x="229" y="722" type="line"/>
      <point x="129" y="622" type="line"/>
      <point x="129" y="531" type="line"/>
      <point x="229" y="433" type="line"/>
      <point x="459" y="433" type="line"/>
      <point x="460" y="433" type="line" smooth="yes"/>
      <point x="477" y="433"/>
      <point x="487" y="423" type="qcurve" smooth="yes"/>
      <point x="608" y="299" type="line" smooth="yes"/>
      <point x="618" y="290"/>
      <point x="618" y="274" type="qcurve" smooth="yes"/>
      <point x="618" y="154" type="line" smooth="yes"/>
      <point x="618" y="139"/>
      <point x="607" y="128" type="qcurve" smooth="yes"/>
      <point x="486" y="11" type="line" smooth="yes"/>
      <point x="476" y="1"/>
      <point x="461" y="1" type="qcurve" smooth="yes"/>
      <point x="220" y="1" type="line" smooth="yes"/>
      <point x="210" y="1"/>
      <point x="202" y="6" type="qcurve" smooth="yes"/>
      <point x="195" y="9"/>
      <point x="191" y="13" type="qcurve" smooth="yes"/>
      <point x="69" y="129" type="line" smooth="yes"/>
      <point x="58" y="140"/>
      <point x="58" y="154" type="qcurve" smooth="yes"/>
      <point x="56" y="168"/>
      <point x="67" y="178" type="qcurve" smooth="yes"/>
      <point x="77" y="188"/>
      <point x="92" y="190" type="qcurve" smooth="yes"/>
      <point x="108" y="190"/>
      <point x="118" y="180" type="qcurve" smooth="yes"/>
      <point x="232" y="72" type="line"/>
      <point x="447" y="72" type="line"/>
      <point x="547" y="169" type="line"/>
      <point x="547" y="260" type="line"/>
      <point x="446" y="362" type="line"/>
    </contour>
  </outline>
</glyph>
<glyph name="U" format="2">
  <advance width="674"/>
  <unicode hex="0055"/>
  <outline>
    <contour>
      <point x="607" y="133" type="qcurve" smooth="yes"/>
      <point x="487" y="14" type="line" smooth="yes"/>
      <point x="477" y="4"/>
      <point x="462" y="4" type="qcurve" smooth="yes"/>
      <point x="214" y="4" type="line" smooth="yes"/>
      <point x="199" y="4"/>
      <point x="189" y="14" type="qcurve" smooth="yes"/>
      <point x="68" y="133" type="line" smooth="yes"/>
      <point x="57" y="144"/>
      <point x="57" y="158" type="qcurve" smooth="yes"/>
      <point x="57" y="761" type="line" smooth="yes"/>
      <point x="57" y="778"/>
      <point x="68" y="786" type="qcurve"/>
      <point x="76" y="797"/>
      <point x="110" y="797"/>
      <point x="118" y="786" type="qcurve"/>
      <point x="129" y="778"/>
      <point x="129" y="761" type="qcurve" smooth="yes"/>
      <point x="129" y="173" type="line"/>
      <point x="228" y="75" type="line"/>
      <point x="448" y="75" type="line"/>
      <point x="546" y="173" type="line"/>
      <point x="546" y="761" type="line" smooth="yes"/>
      <point x="546" y="776"/>
      <point x="556" y="786" type="qcurve" smooth="yes"/>
      <point x="567" y="797"/>
      <point x="582" y="797" type="qcurve" smooth="yes"/>
      <point x="596" y="797"/>
      <point x="607" y="786" type="qcurve" smooth="yes"/>
      <point x="617" y="777"/>
      <point x="617" y="761" type="qcurve" smooth="yes"/>
      <point x="617" y="158" type="line" smooth="yes"/>
      <point x="617" y="150"/>
      <point x="614" y="144" type="qcurve" smooth="yes"/>
      <point x="612" y="138"/>
    </contour>
  </outline>
</glyph>
<glyph name="Z" format="2">
  <advance width="674"/>
  <unicode hex="005A"/>
  <outline>
    <contour>
      <point x="58" y="758" type="qcurve" smooth="yes"/>
      <point x="58" y="772"/>
      <point x="68" y="782" type="qcurve" smooth="yes"/>
      <point x="79" y="793"/>
      <point x="94" y="793" type="qcurve" smooth="yes"/>
      <point x="581" y="793" type="line" smooth="yes"/>
      <point x="595" y="793"/>
      <point x="606" y="782" type="qcurve" smooth="yes"/>
      <point x="617" y="773"/>
      <point x="617" y="758" type="qcurve" smooth="yes"/>
      <point x="617" y="639" type="line" smooth="yes"/>
      <point x="617" y="625"/>
      <point x="606" y="614" type="qcurve" smooth="yes"/>
      <point x="129" y="139" type="line"/>
      <point x="129" y="72" type="line"/>
      <point x="581" y="72" type="line" smooth="yes"/>
      <point x="596" y="72"/>
      <point x="606" y="62" type="qcurve" smooth="yes"/>
      <point x="617" y="51"/>
      <point x="617" y="37" type="qcurve" smooth="yes"/>
      <point x="617" y="20"/>
      <point x="606" y="12" type="qcurve"/>
      <point x="598" y="1"/>
      <point x="581" y="1" type="qcurve" smooth="yes"/>
      <point x="93" y="1" type="line" smooth="yes"/>
      <point x="76" y="1"/>
      <point x="68" y="12" type="qcurve"/>
      <point x="57" y="20"/>
      <point x="57" y="37" type="qcurve" smooth="yes"/>
      <point x="57" y="154" type="line" smooth="yes"/>
      <point x="57" y="169"/>
      <point x="68" y="178" type="qcurve" smooth="yes"/>
      <point x="546" y="653" type="line"/>
      <point x="546" y="722" type="line"/>
      <point x="94" y="722" type="line" smooth="yes"/>
      <point x="81" y="722"/>
      <point x="68" y="732" type="qcurve"/>
      <point x="58" y="745"/>
    </contour>
  </outline>
</glyph>
<glyph name="bracketleft" format="2">
  <advance width="454"/>
  <unicode hex="005B"/>
  <outline>
    <contour>
      <point x="386" y="754" type="qcurve" smooth="yes"/>
      <point x="398" y="764"/>
      <point x="398" y="798"/>
      <point x="386" y="808" type="qcurve" smooth="yes"/>
      <point x="376" y="820"/>
      <point x="359" y="820" type="qcurve" smooth="yes"/>
      <point x="96" y="820" type="line" smooth="yes"/>
      <point x="80" y="820"/>
      <point x="68" y="808" type="qcurve" smooth="yes"/>
      <point x="57" y="797"/>
      <point x="57" y="781" type="qcurve" smooth="yes"/>
      <point x="57" y="-2" type="line" smooth="yes"/>
      <point x="57" y="-16"/>
      <point x="68" y="-30" type="qcurve"/>
      <point x="82" y="-41"/>
      <point x="96" y="-41" type="qcurve" smooth="yes"/>
      <point x="359" y="-41" type="line" smooth="yes"/>
      <point x="375" y="-41"/>
      <point x="386" y="-30" type="qcurve" smooth="yes"/>
      <point x="398" y="-18"/>
      <point x="398" y="14"/>
      <point x="386" y="26" type="qcurve" smooth="yes"/>
      <point x="375" y="37"/>
      <point x="359" y="37" type="qcurve" smooth="yes"/>
      <point x="135" y="37" type="line"/>
      <point x="135" y="742" type="line"/>
      <point x="359" y="742" type="line" smooth="yes"/>
      <point x="376" y="742"/>
    </contour>
  </outline>
</glyph>
<glyph name="asciicircum" format="2">
  <advance width="650"/>
  <unicode hex="005E"/>
  <outline>
    <contour>
      <point x="58" y="547"/>
      <point x="58" y="562" type="qcurve" smooth="yes"/>
      <point x="56" y="576"/>
      <point x="68" y="587" type="qcurve" smooth="yes"/>
      <point x="303" y="827" type="line" smooth="yes"/>
      <point x="313" y="837"/>
      <point x="343" y="837"/>
      <point x="353" y="827" type="qcurve" smooth="yes"/>
      <point x="593" y="587" type="line" smooth="yes"/>
      <point x="603" y="577"/>
      <point x="603" y="562" type="qcurve" smooth="yes"/>
      <point x="603" y="548"/>
      <point x="592" y="537" type="qcurve" smooth="yes"/>
      <point x="583" y="527"/>
      <point x="553" y="527"/>
      <point x="543" y="537" type="qcurve" smooth="yes"/>
      <point x="328" y="752" type="line"/>
      <point x="118" y="538" type="line" smooth="yes"/>
      <point x="107" y="527"/>
      <point x="94" y="527" type="qcurve" smooth="yes"/>
      <point x="78" y="527"/>
    </contour>
  </outline>
</glyph>
<glyph name="b" format="2">
  <advance width="672"/>
  <unicode hex="0062"/>
  <outline>
    <contour>
      <point x="456" y="554" type="line" smooth="yes"/>
      <point x="471" y="554"/>
      <point x="480" y="544" type="qcurve" smooth="yes"/>
      <point x="605" y="421" type="line" smooth="yes"/>
      <point x="612" y="414"/>
      <point x="614" y="405" type="qcurve" smooth="yes"/>
      <point x="616" y="397"/>
      <point x="616" y="396" type="qcurve" smooth="yes"/>
      <point x="616" y="152" type="line" smooth="yes"/>
      <point x="616" y="138"/>
      <point x="605" y="127" type="qcurve" smooth="yes"/>
      <point x="492" y="13" type="line" smooth="yes"/>
      <point x="482" y="4"/>
      <point x="466" y="2" type="qcurve" smooth="yes"/>
      <point x="93" y="2" type="line" smooth="yes"/>
      <point x="78" y="2"/>
      <point x="68" y="12" type="qcurve" smooth="yes"/>
      <point x="57" y="23"/>
      <point x="57" y="38" type="qcurve" smooth="yes"/>
      <point x="57" y="760" type="line" smooth="yes"/>
      <point x="57" y="774"/>
      <point x="68" y="785" type="qcurve" smooth="yes"/>
      <point x="77" y="795"/>
      <point x="109" y="795"/>
      <point x="118" y="785" type="qcurve" smooth="yes"/>
      <point x="129" y="774"/>
      <point x="129" y="760" type="qcurve" smooth="yes"/>
      <point x="129" y="554" type="line"/>
    </contour>
    <contour>
      <point x="440" y="488" type="line"/>
      <point x="128" y="488" type="line"/>
      <point x="128" y="78" type="line"/>
      <point x="451" y="78" type="line"/>
      <point x="544" y="171" type="line"/>
      <point x="544" y="386" type="line"/>
    </contour>
  </outline>
</glyph>
<glyph name="c" format="2">
  <advance width="674"/>
  <unicode hex="0063"/>
  <outline>
    <contour>
      <point x="129" y="380" type="line"/>
      <point x="129" y="165" type="line"/>
      <point x="222" y="72" type="line"/>
      <point x="582" y="72" type="line" smooth="yes"/>
      <point x="596" y="72"/>
      <point x="606" y="62" type="qcurve" smooth="yes"/>
      <point x="617" y="51"/>
      <point x="617" y="36" type="qcurve" smooth="yes"/>
      <point x="617" y="22"/>
      <point x="606" y="11" type="qcurve" smooth="yes"/>
      <point x="597" y="1"/>
      <point x="582" y="1" type="qcurve" smooth="yes"/>
      <point x="207" y="1" type="line" smooth="yes"/>
      <point x="192" y="1"/>
      <point x="182" y="11" type="qcurve" smooth="yes"/>
      <point x="68" y="126" type="line" smooth="yes"/>
      <point x="58" y="136"/>
      <point x="57" y="151" type="qcurve" smooth="yes"/>
      <point x="57" y="395" type="line"/>
      <point x="58" y="396" type="line" smooth="yes"/>
      <point x="58" y="398"/>
      <point x="59" y="402"/>
      <point x="59" y="404" type="qcurve" smooth="yes"/>
      <point x="60" y="413"/>
      <point x="68" y="421" type="qcurve" smooth="yes"/>
      <point x="193" y="544" type="line" smooth="yes"/>
      <point x="203" y="554"/>
      <point x="219" y="554" type="qcurve" smooth="yes"/>
      <point x="582" y="554" type="line" smooth="yes"/>
      <point x="596" y="554"/>
      <point x="607" y="544" type="qcurve" smooth="yes"/>
      <point x="617" y="534"/>
      <point x="617" y="518" type="qcurve" smooth="yes"/>
      <point x="617" y="504"/>
      <point x="606" y="493" type="qcurve" smooth="yes"/>
      <point x="597" y="483"/>
      <point x="582" y="483" type="qcurve" smooth="yes"/>
      <point x="233" y="483" type="line"/>
    </contour>
  </outline>
</glyph>
<glyph name="e" format="2">
  <advance width="675"/>
  <unicode hex="0065"/>
  <outline>
    <contour>
      <point x="59" y="401" type="line" smooth="yes"/>
      <point x="59" y="416"/>
      <point x="69" y="426" type="qcurve" smooth="yes"/>
      <point x="186" y="543" type="line" smooth="yes"/>
      <point x="196" y="553"/>
      <point x="211" y="553" type="qcurve" smooth="yes"/>
      <point x="465" y="553" type="line" smooth="yes"/>
      <point x="480" y="553"/>
      <point x="490" y="543" type="qcurve" smooth="yes"/>
      <point x="608" y="425" type="line" smooth="yes"/>
      <point x="618" y="415"/>
      <point x="618" y="400" type="qcurve" smooth="yes"/>
      <point x="618" y="275" type="line" smooth="yes"/>
      <point x="618" y="260"/>
      <point x="608" y="250" type="qcurve" smooth="yes"/>
      <point x="597" y="239"/>
      <point x="582" y="239" type="qcurve" smooth="yes"/>
      <point x="130" y="239" type="line"/>
      <point x="130" y="173" type="line"/>
      <point x="231" y="72" type="line"/>
      <point x="460" y="72" type="line" smooth="yes"/>
      <point x="474" y="72"/>
      <point x="485" y="62" type="qcurve" smooth="yes"/>
      <point x="495" y="52"/>
      <point x="495" y="37" type="qcurve" smooth="yes"/>
      <point x="495" y="20"/>
      <point x="484" y="12" type="qcurve"/>
      <point x="476" y="1"/>
      <point x="460" y="1" type="qcurve" smooth="yes"/>
      <point x="216" y="1" type="line" smooth="yes"/>
      <point x="200" y="1"/>
      <point x="190" y="11" type="qcurve" smooth="yes"/>
      <point x="69" y="133" type="line" smooth="yes"/>
      <point x="59" y="143"/>
      <point x="59" y="158" type="qcurve" smooth="yes"/>
      <point x="59" y="270" type="line"/>
      <point x="58" y="279" type="line" smooth="yes"/>
      <point x="57" y="280"/>
      <point x="59" y="288" type="qcurve" smooth="yes"/>
    </contour>
    <contour>
      <point x="548" y="313" type="line"/>
      <point x="548" y="388" type="line"/>
      <point x="452" y="485" type="line"/>
      <point x="227" y="485" type="line"/>
      <point x="131" y="389" type="line"/>
      <point x="131" y="313" type="line"/>
    </contour>
  </outline>
</glyph>
<glyph name="g" format="2">
  <advance width="673"/>
  <unicode hex="0067"/>
  <outline>
    <contour>
      <point x="606" y="-104" type="qcurve" smooth="yes"/>
      <point x="471" y="-239" type="line" smooth="yes"/>
      <point x="461" y="-249"/>
      <point x="446" y="-249" type="qcurve" smooth="yes"/>
      <point x="227" y="-249" type="line" smooth="yes"/>
      <point x="210" y="-249"/>
      <point x="202" y="-238" type="qcurve"/>
      <point x="191" y="-230"/>
      <point x="191" y="-214" type="qcurve" smooth="yes"/>
      <point x="191" y="-199"/>
      <point x="202" y="-188" type="qcurve" smooth="yes"/>
      <point x="212" y="-178"/>
      <point x="227" y="-178" type="qcurve" smooth="yes"/>
      <point x="431" y="-178" type="line"/>
      <point x="546" y="-64" type="line"/>
      <point x="546" y="0" type="line"/>
      <point x="216" y="0" type="line" smooth="yes"/>
      <point x="201" y="0"/>
      <point x="191" y="10" type="qcurve" smooth="yes"/>
      <point x="68" y="134" type="line" smooth="yes"/>
      <point x="58" y="142"/>
      <point x="57" y="158" type="qcurve" smooth="yes"/>
      <point x="57" y="398" type="line" smooth="yes"/>
      <point x="57" y="412"/>
      <point x="68" y="423" type="qcurve" smooth="yes"/>
      <point x="191" y="543" type="line" smooth="yes"/>
      <point x="201" y="553"/>
      <point x="216" y="553" type="qcurve" smooth="yes"/>
      <point x="581" y="553" type="line" smooth="yes"/>
      <point x="598" y="553"/>
      <point x="606" y="542" type="qcurve"/>
      <point x="617" y="534"/>
      <point x="617" y="518" type="qcurve" smooth="yes"/>
      <point x="617" y="-79" type="line" smooth="yes"/>
      <point x="617" y="-93"/>
    </contour>
    <contour>
      <point x="540" y="484" type="line"/>
      <point x="225" y="484" type="line"/>
      <point x="123" y="384" type="line"/>
      <point x="123" y="175" type="line"/>
      <point x="225" y="72" type="line"/>
      <point x="540" y="72" type="line"/>
    </contour>
  </outline>
</glyph>
<glyph name="j" format="2">
  <advance width="478"/>
  <unicode hex="006A"/>
  <outline>
    <contour>
      <point x="371" y="665"/>
      <point x="360" y="676" type="qcurve" smooth="yes"/>
      <point x="349" y="685"/>
      <point x="349" y="701" type="qcurve" smooth="yes"/>
      <point x="349" y="761" type="line" smooth="yes"/>
      <point x="349" y="775"/>
      <point x="360" y="786" type="qcurve" smooth="yes"/>
      <point x="370" y="796"/>
      <point x="400" y="796"/>
      <point x="410" y="786" type="qcurve" smooth="yes"/>
      <point x="421" y="775"/>
      <point x="421" y="761" type="qcurve" smooth="yes"/>
      <point x="421" y="701" type="line" smooth="yes"/>
      <point x="421" y="687"/>
      <point x="399" y="665"/>
    </contour>
    <contour>
      <point x="399" y="568"/>
      <point x="421" y="546"/>
      <point x="421" y="531" type="qcurve" smooth="yes"/>
      <point x="421" y="-78" type="line" smooth="yes"/>
      <point x="421" y="-93"/>
      <point x="410" y="-104" type="qcurve" smooth="yes"/>
      <point x="255" y="-259" type="line" smooth="yes"/>
      <point x="244" y="-270"/>
      <point x="229" y="-270" type="qcurve" smooth="yes"/>
      <point x="95" y="-270" type="line" smooth="yes"/>
      <point x="82" y="-270"/>
      <point x="68" y="-259" type="qcurve" smooth="yes"/>
      <point x="57" y="-248"/>
      <point x="57" y="-218"/>
      <point x="79" y="-196"/>
      <point x="95" y="-196" type="qcurve" smooth="yes"/>
      <point x="214" y="-196" type="line"/>
      <point x="347" y="-63" type="line"/>
      <point x="347" y="531" type="line" smooth="yes"/>
      <point x="347" y="546"/>
      <point x="369" y="568"/>
    </contour>
  </outline>
</glyph>
<glyph name="l" format="2">
  <advance width="427"/>
  <unicode hex="006C"/>
  <outline>
    <contour>
      <point x="185" y="721" type="line"/>
      <point x="93" y="721" type="line" smooth="yes"/>
      <point x="76" y="721"/>
      <point x="68" y="732" type="qcurve"/>
      <point x="57" y="740"/>
      <point x="57" y="774"/>
      <point x="68" y="782" type="qcurve"/>
      <point x="76" y="793"/>
      <point x="93" y="793" type="qcurve" smooth="yes"/>
      <point x="220" y="793" type="line" smooth="yes"/>
      <point x="235" y="793"/>
      <point x="246" y="782" type="qcurve" smooth="yes"/>
      <point x="256" y="772"/>
      <point x="256" y="757" type="qcurve" smooth="yes"/>
      <point x="256" y="71" type="line"/>
      <point x="334" y="71" type="line" smooth="yes"/>
      <point x="349" y="71"/>
      <point x="360" y="60" type="qcurve" smooth="yes"/>
      <point x="371" y="51"/>
      <point x="371" y="21"/>
      <point x="349" y="-1"/>
      <point x="334" y="-1" type="qcurve" smooth="yes"/>
      <point x="93" y="-1" type="line" smooth="yes"/>
      <point x="77" y="-1"/>
      <point x="68" y="10" type="qcurve" smooth="yes"/>
      <point x="57" y="21"/>
      <point x="57" y="36" type="qcurve" smooth="yes"/>
      <point x="57" y="52"/>
      <point x="68" y="60" type="qcurve"/>
      <point x="76" y="71"/>
      <point x="93" y="71" type="qcurve" smooth="yes"/>
      <point x="185" y="71" type="line"/>
    </contour>
  </outline>
</glyph>
<glyph name="r" format="2">
  <advance width="502"/>
  <unicode hex="0072"/>
  <outline>
    <contour>
      <point x="130" y="37" type="line" smooth="yes"/>
      <point x="130" y="21"/>
      <point x="119" y="12" type="qcurve" smooth="yes"/>
      <point x="108" y="1"/>
      <point x="94" y="1" type="qcurve" smooth="yes"/>
      <point x="79" y="1"/>
      <point x="68" y="12" type="qcurve" smooth="yes"/>
      <point x="57" y="21"/>
      <point x="57" y="37" type="qcurve" smooth="yes"/>
      <point x="57" y="518" type="line" smooth="yes"/>
      <point x="57" y="532"/>
      <point x="68" y="543" type="qcurve" smooth="yes"/>
      <point x="78" y="553"/>
      <point x="94" y="553" type="qcurve" smooth="yes"/>
      <point x="108" y="553"/>
      <point x="119" y="542" type="qcurve" smooth="yes"/>
      <point x="130" y="533"/>
      <point x="130" y="518" type="qcurve" smooth="yes"/>
      <point x="130" y="372" type="line"/>
      <point x="301" y="543" type="line" smooth="yes"/>
      <point x="311" y="553"/>
      <point x="326" y="553" type="qcurve" smooth="yes"/>
      <point x="464" y="553" type="line" smooth="yes"/>
      <point x="479" y="553"/>
      <point x="490" y="542" type="qcurve" smooth="yes"/>
      <point x="500" y="532"/>
      <point x="500" y="518" type="qcurve" smooth="yes"/>
      <point x="500" y="505"/>
      <point x="490" y="492" type="qcurve"/>
      <point x="477" y="482"/>
      <point x="464" y="482" type="qcurve" smooth="yes"/>
      <point x="341" y="482" type="line"/>
      <point x="130" y="271" type="line"/>
    </contour>
  </outline>
</glyph>
<glyph name="s" format="2">
  <advance width="673"/>
  <unicode hex="0073"/>
  <outline>
    <contour>
      <point x="616" y="517" type="qcurve" smooth="yes"/>
      <point x="616" y="505"/>
      <point x="606" y="492" type="qcurve"/>
      <point x="593" y="482"/>
      <point x="580" y="482" type="qcurve" smooth="yes"/>
      <point x="223" y="482" type="line"/>
      <point x="144" y="396" type="line"/>
      <point x="238" y="310" type="line"/>
      <point x="453" y="310" type="line" smooth="yes"/>
      <point x="468" y="310"/>
      <point x="478" y="300" type="qcurve" smooth="yes"/>
      <point x="605" y="182" type="line" smooth="yes"/>
      <point x="616" y="171"/>
      <point x="616" y="157" type="qcurve" smooth="yes"/>
      <point x="616" y="145"/>
      <point x="605" y="131" type="qcurve" smooth="yes"/>
      <point x="483" y="11" type="line" smooth="yes"/>
      <point x="473" y="1"/>
      <point x="457" y="1" type="qcurve" smooth="yes"/>
      <point x="93" y="1" type="line" smooth="yes"/>
      <point x="76" y="1"/>
      <point x="68" y="12" type="qcurve"/>
      <point x="57" y="20"/>
      <point x="57" y="36" type="qcurve" smooth="yes"/>
      <point x="57" y="50"/>
      <point x="68" y="61" type="qcurve" smooth="yes"/>
      <point x="77" y="72"/>
      <point x="93" y="72" type="qcurve" smooth="yes"/>
      <point x="443" y="72" type="line"/>
      <point x="529" y="156" type="line"/>
      <point x="439" y="239" type="line"/>
      <point x="224" y="239" type="line" smooth="yes"/>
      <point x="210" y="239"/>
      <point x="199" y="248" type="qcurve" smooth="yes"/>
      <point x="69" y="369" type="line" smooth="yes"/>
      <point x="58" y="380"/>
      <point x="58" y="394" type="qcurve" smooth="yes"/>
      <point x="56" y="408"/>
      <point x="67" y="419" type="qcurve" smooth="yes"/>
      <point x="180" y="541" type="line" smooth="yes"/>
      <point x="190" y="552"/>
      <point x="207" y="553" type="qcurve" smooth="yes"/>
      <point x="580" y="553" type="line" smooth="yes"/>
      <point x="595" y="553"/>
      <point x="606" y="542" type="qcurve" smooth="yes"/>
      <point x="616" y="532"/>
    </contour>
  </outline>
</glyph>
<glyph name="w" format="2">
  <advance width="671"/>
  <unicode hex="0077"/>
  <outline>
    <contour>
      <point x="454" y="88" type="line"/>
      <point x="543" y="179" type="line"/>
      <point x="543" y="518" type="line" smooth="yes"/>
      <point x="543" y="532"/>
      <point x="565" y="554"/>
      <point x="579" y="554" type="qcurve" smooth="yes"/>
      <point x="590" y="554"/>
      <point x="604" y="543" type="qcurve" smooth="yes"/>
      <point x="614" y="532"/>
      <point x="614" y="518" type="qcurve" smooth="yes"/>
      <point x="614" y="164" type="line" smooth="yes"/>
      <point x="614" y="149"/>
      <point x="604" y="139" type="qcurve" smooth="yes"/>
      <point x="478" y="11" type="line" smooth="yes"/>
      <point x="468" y="1"/>
      <point x="452" y="1" type="qcurve" smooth="yes"/>
      <point x="438" y="1"/>
      <point x="427" y="13" type="qcurve" smooth="yes"/>
      <point x="338" y="111" type="line"/>
      <point x="249" y="13" type="line" smooth="yes"/>
      <point x="239" y="3"/>
      <point x="224" y="1" type="qcurve" smooth="yes"/>
      <point x="212" y="0"/>
      <point x="197" y="11" type="qcurve" smooth="yes"/>
      <point x="68" y="139" type="line" smooth="yes"/>
      <point x="58" y="149"/>
      <point x="57" y="164" type="qcurve" smooth="yes"/>
      <point x="57" y="518" type="line" smooth="yes"/>
      <point x="57" y="532"/>
      <point x="68" y="543" type="qcurve" smooth="yes"/>
      <point x="77" y="554"/>
      <point x="109" y="554"/>
      <point x="118" y="543" type="qcurve" smooth="yes"/>
      <point x="129" y="532"/>
      <point x="129" y="518" type="qcurve" smooth="yes"/>
      <point x="129" y="179" type="line"/>
      <point x="221" y="88" type="line"/>
      <point x="302" y="177" type="line"/>
      <point x="302" y="362" type="line" smooth="yes"/>
      <point x="302" y="377"/>
      <point x="312" y="387" type="qcurve" smooth="yes"/>
      <point x="323" y="398"/>
      <point x="337" y="398" type="qcurve" smooth="yes"/>
      <point x="352" y="398"/>
      <point x="362" y="388" type="qcurve" smooth="yes"/>
      <point x="373" y="377"/>
      <point x="373" y="362" type="qcurve" smooth="yes"/>
      <point x="373" y="178" type="line"/>
    </contour>
  </outline>
</glyph>
<glyph name="z" format="2">
  <advance width="673"/>
  <unicode hex="007A"/>
  <outline>
    <contour>
      <point x="76" y="496" type="qcurve"/>
      <point x="65" y="504"/>
      <point x="65" y="538"/>
      <point x="76" y="546" type="qcurve"/>
      <point x="84" y="557"/>
      <point x="101" y="557" type="qcurve" smooth="yes"/>
      <point x="581" y="557" type="line" smooth="yes"/>
      <point x="607" y="557"/>
      <point x="614" y="535" type="qcurve" smooth="yes"/>
      <point x="623" y="513"/>
      <point x="606" y="496" type="qcurve" smooth="yes"/>
      <point x="180" y="74" type="line"/>
      <point x="576" y="74" type="line" smooth="yes"/>
      <point x="589" y="74"/>
      <point x="602" y="64" type="qcurve"/>
      <point x="612" y="51"/>
      <point x="612" y="25"/>
      <point x="602" y="12" type="qcurve"/>
      <point x="589" y="2"/>
      <point x="576" y="2" type="qcurve" smooth="yes"/>
      <point x="93" y="2" type="line" smooth="yes"/>
      <point x="69" y="2"/>
      <point x="60" y="25" type="qcurve" smooth="yes"/>
      <point x="50" y="47"/>
      <point x="68" y="64" type="qcurve" smooth="yes"/>
      <point x="495" y="485" type="line"/>
      <point x="101" y="485" type="line" smooth="yes"/>
      <point x="84" y="485"/>
    </contour>
  </outline>
</glyph>
<glyph name="braceleft" format="2">
  <advance width="348"/>
  <unicode hex="007B"/>
  <outline>
    <contour>
      <point x="280" y="808" type="qcurve" smooth="yes"/>
      <point x="270" y="820"/>
      <point x="254" y="820" type="qcurve" smooth="yes"/>
      <point x="238" y="820"/>
      <point x="227" y="808" type="qcurve" smooth="yes"/>
      <point x="169" y="747" type="line" smooth="yes"/>
      <point x="158" y="736"/>
      <point x="157" y="719" type="qcurve" smooth="yes"/>
      <point x="157" y="493" type="line"/>
      <point x="71" y="421" type="line" smooth="yes"/>
      <point x="57" y="410"/>
      <point x="57" y="391" type="qcurve" smooth="yes"/>
      <point x="57" y="373"/>
      <point x="71" y="361" type="qcurve" smooth="yes"/>
      <point x="157" y="289" type="line"/>
      <point x="157" y="67" type="line" smooth="yes"/>
      <point x="157" y="51"/>
      <point x="167" y="41" type="qcurve" smooth="yes"/>
      <point x="225" y="-28" type="line" smooth="yes"/>
      <point x="235" y="-40"/>
      <point x="251" y="-40" type="qcurve" smooth="yes"/>
      <point x="268" y="-42"/>
      <point x="278" y="-30" type="qcurve" smooth="yes"/>
      <point x="290" y="-20"/>
      <point x="292" y="12"/>
      <point x="282" y="24" type="qcurve" smooth="yes"/>
      <point x="232" y="82" type="line"/>
      <point x="232" y="307" type="line" smooth="yes"/>
      <point x="232" y="325"/>
      <point x="219" y="337" type="qcurve" smooth="yes"/>
      <point x="154" y="391" type="line"/>
      <point x="219" y="445" type="line" smooth="yes"/>
      <point x="233" y="459"/>
      <point x="232" y="475" type="qcurve" smooth="yes"/>
      <point x="232" y="705" type="line"/>
      <point x="280" y="754" type="line" smooth="yes"/>
      <point x="291" y="765"/>
      <point x="291" y="797"/>
    </contour>
  </outline>
</glyph>
<glyph name="asciitilde" format="2">
  <advance width="654"/>
  <unicode hex="007E"/>
  <outline>
    <contour>
      <point x="47" y="378"/>
      <point x="47" y="394" type="qcurve" smooth="yes"/>
      <point x="47" y="409"/>
      <point x="57" y="419" type="qcurve" smooth="yes"/>
      <point x="183" y="544" type="line" smooth="yes"/>
      <point x="193" y="554"/>
      <point x="208" y="554" type="qcurve" smooth="yes"/>
      <point x="223" y="555"/>
      <point x="234" y="544" type="qcurve" smooth="yes"/>
      <point x="447" y="332" type="line"/>
      <point x="546" y="430" type="line" smooth="yes"/>
      <point x="557" y="441"/>
      <point x="572" y="441" type="qcurve" smooth="yes"/>
      <point x="586" y="441"/>
      <point x="608" y="419"/>
      <point x="608" y="391"/>
      <point x="597" y="380" type="qcurve" smooth="yes"/>
      <point x="472" y="255" type="line" smooth="yes"/>
      <point x="462" y="246"/>
      <point x="446" y="244" type="qcurve" smooth="yes"/>
      <point x="432" y="244"/>
      <point x="421" y="255" type="qcurve" smooth="yes"/>
      <point x="208" y="468" type="line"/>
      <point x="108" y="368" type="line" smooth="yes"/>
      <point x="98" y="358"/>
      <point x="82" y="358" type="qcurve" smooth="yes"/>
      <point x="67" y="358"/>
    </contour>
  </outline>
</glyph>
<glyph name="exclamdown" format="2">
  <advance width="262"/>
  <unicode hex="00A1"/>
  <outline>
    <contour>
      <point x="62" y="573" type="line" smooth="yes"/>
      <point x="62" y="585"/>
      <point x="70" y="590" type="qcurve"/>
      <point x="75" y="598"/>
      <point x="88" y="598" type="qcurve" smooth="yes"/>
      <point x="174" y="598" type="line" smooth="yes"/>
      <point x="184" y="598"/>
      <point x="192" y="590" type="qcurve" smooth="yes"/>
      <point x="199" y="583"/>
      <point x="199" y="573" type="qcurve" smooth="yes"/>
      <point x="199" y="488" type="line" smooth="yes"/>
      <point x="199" y="480"/>
      <point x="192" y="470" type="qcurve"/>
      <point x="182" y="463"/>
      <point x="174" y="463" type="qcurve" smooth="yes"/>
      <point x="88" y="463" type="line" smooth="yes"/>
      <point x="77" y="463"/>
      <point x="70" y="470" type="qcurve" smooth="yes"/>
      <point x="62" y="478"/>
      <point x="62" y="488" type="qcurve" smooth="yes"/>
    </contour>
    <contour>
      <point x="113" y="548" type="line"/>
      <point x="113" y="513" type="line"/>
      <point x="148" y="513" type="line"/>
      <point x="148" y="548" type="line"/>
    </contour>
    <contour>
      <point x="167" y="-160" type="line" smooth="yes"/>
      <point x="167" y="-174"/>
      <point x="156" y="-185" type="qcurve" smooth="yes"/>
      <point x="147" y="-195"/>
      <point x="131" y="-195" type="qcurve" smooth="yes"/>
      <point x="114" y="-195"/>
      <point x="106" y="-184" type="qcurve"/>
      <point x="95" y="-176"/>
      <point x="95" y="-160" type="qcurve" smooth="yes"/>
      <point x="95" y="324" type="line" smooth="yes"/>
      <point x="95" y="338"/>
      <point x="106" y="349" type="qcurve" smooth="yes"/>
      <point x="115" y="359"/>
      <point x="131" y="359" type="qcurve" smooth="yes"/>
      <point x="148" y="359"/>
      <point x="156" y="348" type="qcurve"/>
      <point x="167" y="340"/>
      <point x="167" y="324" type="qcurve" smooth="yes"/>
    </contour>
  </outline>
</glyph>
<glyph name="section" format="2">
  <advance width="674"/>
  <unicode hex="00A7"/>
  <outline>
    <contour>
      <point x="511" y="271" type="line"/>
      <point x="613" y="175" type="line" smooth="yes"/>
      <point x="624" y="164"/>
      <point x="624" y="132"/>
      <point x="612" y="122" type="qcurve" smooth="yes"/>
      <point x="485" y="9" type="line" smooth="yes"/>
      <point x="474" y="0"/>
      <point x="461" y="0" type="qcurve" smooth="yes"/>
      <point x="97" y="0" type="line" smooth="yes"/>
      <point x="82" y="0"/>
      <point x="71" y="11" type="qcurve" smooth="yes"/>
      <point x="61" y="21"/>
      <point x="61" y="51"/>
      <point x="71" y="61" type="qcurve" smooth="yes"/>
      <point x="82" y="72"/>
      <point x="97" y="72" type="qcurve" smooth="yes"/>
      <point x="448" y="72" type="line"/>
      <point x="535" y="150" type="line"/>
      <point x="443" y="237" type="line"/>
      <point x="231" y="237" type="line" smooth="yes"/>
      <point x="217" y="237"/>
      <point x="208" y="246" type="qcurve" smooth="yes"/>
      <point x="73" y="366" type="line" smooth="yes"/>
      <point x="61" y="376"/>
      <point x="61" y="392" type="qcurve" smooth="yes"/>
      <point x="60" y="407"/>
      <point x="71" y="418" type="qcurve" smooth="yes"/>
      <point x="166" y="515" type="line"/>
      <point x="72" y="609" type="line" smooth="yes"/>
      <point x="62" y="619"/>
      <point x="62" y="649"/>
      <point x="72" y="659" type="qcurve" smooth="yes"/>
      <point x="189" y="780" type="line" smooth="yes"/>
      <point x="200" y="791"/>
      <point x="214" y="791" type="qcurve" smooth="yes"/>
      <point x="588" y="791" type="line" smooth="yes"/>
      <point x="604" y="791"/>
      <point x="613" y="780" type="qcurve" smooth="yes"/>
      <point x="624" y="769"/>
      <point x="624" y="755" type="qcurve" smooth="yes"/>
      <point x="624" y="740"/>
      <point x="613" y="729" type="qcurve" smooth="yes"/>
      <point x="603" y="719"/>
      <point x="588" y="719" type="qcurve" smooth="yes"/>
      <point x="230" y="719" type="line"/>
      <point x="148" y="634" type="line"/>
      <point x="230" y="552" type="line"/>
      <point x="457" y="552" type="line" smooth="yes"/>
      <point x="471" y="552"/>
      <point x="481" y="542" type="qcurve" smooth="yes"/>
      <point x="612" y="421" type="line" smooth="yes"/>
      <point x="623" y="410"/>
      <point x="624" y="395" type="qcurve" smooth="yes"/>
      <point x="624" y="380"/>
      <point x="613" y="369" type="qcurve" smooth="yes"/>
    </contour>
    <contour>
      <point x="232" y="480" type="line"/>
      <point x="149" y="395" type="line"/>
      <point x="245" y="309" type="line"/>
      <point x="447" y="309" type="line"/>
      <point x="536" y="394" type="line"/>
      <point x="443" y="480" type="line"/>
    </contour>
  </outline>
</glyph>
<glyph name="dieresis" format="2">
  <advance width="1175"/>
  <unicode hex="00A8"/>
  <outline>
    <contour>
      <point x="503.841" y="684.162" type="line" smooth="yes"/>
      <point x="503.841" y="669.443"/>
      <point x="483.163" y="648.651"/>
      <point x="453.779" y="648.651"/>
      <point x="432.871" y="669.467"/>
      <point x="432.871" y="684.162" type="qcurve" smooth="yes"/>
      <point x="432.871" y="744.372" type="line" smooth="yes"/>
      <point x="432.871" y="759.067"/>
      <point x="453.779" y="779.882"/>
      <point x="483.163" y="779.882"/>
      <point x="503.841" y="759.091"/>
      <point x="503.841" y="744.372" type="qcurve" smooth="yes"/>
    </contour>
    <contour>
      <point x="740.218" y="684.162" type="line" smooth="yes"/>
      <point x="740.218" y="669.443"/>
      <point x="719.54" y="648.651"/>
      <point x="690.156" y="648.651"/>
      <point x="669.248" y="669.467"/>
      <point x="669.248" y="684.162" type="qcurve" smooth="yes"/>
      <point x="669.248" y="744.372" type="line" smooth="yes"/>
      <point x="669.248" y="759.067"/>
      <point x="690.156" y="779.882"/>
      <point x="719.54" y="779.882"/>
      <point x="740.218" y="759.091"/>
      <point x="740.218" y="744.372" type="qcurve" smooth="yes"/>
    </contour>
  </outline>
</glyph>
<glyph name="copyright" format="2">
  <advance width="674"/>
  <unicode hex="00A9"/>
  <outline>
    <contour>
      <point x="58" y="362" type="qcurve" smooth="yes"/>
      <point x="58" y="598" type="line" smooth="yes"/>
      <point x="58" y="607"/>
      <point x="65" y="613" type="qcurve" smooth="yes"/>
      <point x="203" y="751" type="line" smooth="yes"/>
      <point x="209" y="757"/>
      <point x="218" y="758" type="qcurve" smooth="yes"/>
      <point x="459" y="758" type="line" smooth="yes"/>
      <point x="468" y="758"/>
      <point x="475" y="751" type="qcurve" smooth="yes"/>
      <point x="612" y="613" type="line" smooth="yes"/>
      <point x="619" y="606"/>
      <point x="619" y="598" type="qcurve" smooth="yes"/>
      <point x="619" y="362" type="line" smooth="yes"/>
      <point x="619" y="353"/>
      <point x="612" y="346" type="qcurve" smooth="yes"/>
      <point x="475" y="208" type="line" smooth="yes"/>
      <point x="471" y="203"/>
      <point x="459" y="201" type="qcurve" smooth="yes"/>
      <point x="218" y="201" type="line" smooth="yes"/>
      <point x="209" y="201"/>
      <point x="203" y="208" type="qcurve" smooth="yes"/>
      <point x="65" y="346" type="line" smooth="yes"/>
      <point x="58" y="353"/>
    </contour>
    <contour>
      <point x="450" y="714" type="line"/>
      <point x="227" y="714" type="line"/>
      <point x="102" y="589" type="line"/>
      <point x="102" y="373" type="line"/>
      <point x="102" y="371" type="line"/>
      <point x="227" y="245" type="line"/>
      <point x="450" y="245" type="line"/>
      <point x="575" y="371" type="line"/>
      <point x="575" y="586" type="line"/>
      <point x="575" y="589" type="line"/>
    </contour>
    <contour>
      <point x="456" y="649" type="line" smooth="yes"/>
      <point x="466" y="649"/>
      <point x="472" y="642" type="qcurve" smooth="yes"/>
      <point x="479" y="635"/>
      <point x="479" y="617"/>
      <point x="465" y="603"/>
      <point x="456" y="603" type="qcurve" smooth="yes"/>
      <point x="242" y="603" type="line"/>
      <point x="187" y="547" type="line"/>
      <point x="187" y="416" type="line"/>
      <point x="248" y="356" type="line"/>
      <point x="456" y="356" type="line" smooth="yes"/>
      <point x="466" y="356"/>
      <point x="472" y="350" type="qcurve" smooth="yes"/>
      <point x="479" y="343"/>
      <point x="479" y="334" type="qcurve" smooth="yes"/>
      <point x="479" y="324"/>
      <point x="465" y="310"/>
      <point x="456" y="310" type="qcurve" smooth="yes"/>
      <point x="238" y="310" type="line" smooth="yes"/>
      <point x="228" y="310"/>
      <point x="222" y="317" type="qcurve" smooth="yes"/>
      <point x="148" y="390" type="line" smooth="yes"/>
      <point x="141" y="397"/>
      <point x="141" y="407" type="qcurve" smooth="yes"/>
      <point x="141" y="557" type="line" smooth="yes"/>
      <point x="141" y="567"/>
      <point x="148" y="573" type="qcurve" smooth="yes"/>
      <point x="216" y="642" type="line" smooth="yes"/>
      <point x="222" y="649"/>
      <point x="232" y="649" type="qcurve" smooth="yes"/>
    </contour>
  </outline>
</glyph>
<glyph name="ordfeminine" format="2">
  <advance width="364"/>
  <unicode hex="00AA"/>
  <outline>
    <contour>
      <point x="482.438" y="780.443" type="line"/>
      <point x="482.438" y="797.271" type="line"/>
      <point x="457.663" y="822.437" type="line"/>
      <point x="401.141" y="822.437" type="line" smooth="yes"/>
      <point x="397.604" y="822.437"/>
      <point x="392.577" y="827.512"/>
      <point x="392.577" y="834.677"/>
      <point x="397.605" y="839.756"/>
      <point x="401.141" y="839.756" type="qcurve" smooth="yes"/>
      <point x="461.212" y="839.756" type="line" smooth="yes"/>
      <point x="464.724" y="839.756"/>
      <point x="467.206" y="837.218" type="qcurve" smooth="yes"/>
      <point x="497.059" y="806.985" type="line" smooth="yes"/>
      <point x="499.565" y="804.422"/>
      <point x="499.565" y="800.863" type="qcurve" smooth="yes"/>
      <point x="499.565" y="713.722" type="line" smooth="yes"/>
      <point x="499.565" y="710.14"/>
      <point x="494.539" y="705.062"/>
      <point x="491.003" y="705.062" type="qcurve" smooth="yes"/>
      <point x="399.917" y="705.062" type="line" smooth="yes"/>
      <point x="396.109" y="705.062"/>
      <point x="393.616" y="707.873" type="qcurve" smooth="yes"/>
      <point x="367.251" y="736.376" type="line" smooth="yes"/>
      <point x="364.914" y="738.941"/>
      <point x="365.062" y="745.883"/>
      <point x="367.495" y="748.341" type="qcurve" smooth="yes"/>
      <point x="396.674" y="777.911" type="line" smooth="yes"/>
      <point x="399.161" y="780.443"/>
      <point x="402.67" y="780.443" type="qcurve" smooth="yes"/>
    </contour>
    <contour>
      <point x="482.438" y="763.13" type="line"/>
      <point x="406.217" y="763.13" type="line"/>
      <point x="385.358" y="741.958" type="line"/>
      <point x="403.648" y="722.376" type="line"/>
      <point x="482.438" y="722.376" type="line"/>
    </contour>
  </outline>
</glyph>
<glyph name="guillemotleft" format="2">
  <advance width="674"/>
  <unicode hex="00AB"/>
  <outline>
    <contour>
      <point x="545" y="632" type="line" smooth="yes"/>
      <point x="555" y="642"/>
      <point x="570" y="643" type="qcurve" smooth="yes"/>
      <point x="584" y="643"/>
      <point x="595" y="632" type="qcurve" smooth="yes"/>
      <point x="605" y="622"/>
      <point x="606" y="607" type="qcurve" smooth="yes"/>
      <point x="606" y="593"/>
      <point x="595" y="582" type="qcurve" smooth="yes"/>
      <point x="332" y="322" type="line"/>
      <point x="595" y="62" type="line" smooth="yes"/>
      <point x="605" y="52"/>
      <point x="606" y="37" type="qcurve" smooth="yes"/>
      <point x="606" y="23"/>
      <point x="595" y="12" type="qcurve" smooth="yes"/>
      <point x="585" y="2"/>
      <point x="570" y="1" type="qcurve" smooth="yes"/>
      <point x="556" y="1"/>
      <point x="545" y="12" type="qcurve" smooth="yes"/>
      <point x="256" y="297" type="line" smooth="yes"/>
      <point x="244" y="308"/>
      <point x="246" y="322" type="qcurve" smooth="yes"/>
      <point x="246" y="337"/>
      <point x="256" y="347" type="qcurve" smooth="yes"/>
    </contour>
    <contour>
      <point x="347" y="632" type="line" smooth="yes"/>
      <point x="357" y="642"/>
      <point x="372" y="643" type="qcurve" smooth="yes"/>
      <point x="387" y="643"/>
      <point x="398" y="632" type="qcurve" smooth="yes"/>
      <point x="408" y="622"/>
      <point x="408" y="607" type="qcurve" smooth="yes"/>
      <point x="408" y="593"/>
      <point x="397" y="582" type="qcurve" smooth="yes"/>
      <point x="134" y="322" type="line"/>
      <point x="397" y="62" type="line" smooth="yes"/>
      <point x="407" y="52"/>
      <point x="408" y="37" type="qcurve" smooth="yes"/>
      <point x="408" y="22"/>
      <point x="388" y="2"/>
      <point x="373" y="1" type="qcurve" smooth="yes"/>
      <point x="358" y="1"/>
      <point x="347" y="12" type="qcurve" smooth="yes"/>
      <point x="58" y="297" type="line" smooth="yes"/>
      <point x="46" y="308"/>
      <point x="48" y="322" type="qcurve" smooth="yes"/>
      <point x="48" y="337"/>
      <point x="58" y="347" type="qcurve" smooth="yes"/>
    </contour>
  </outline>
</glyph>
<glyph name="registered" format="2">
  <advance width="674"/>
  <unicode hex="00AE"/>
  <outline>
    <contour>
      <point x="57" y="491" type="qcurve" smooth="yes"/>
      <point x="57" y="727" type="line" smooth="yes"/>
      <point x="57" y="736"/>
      <point x="64" y="743" type="qcurve" smooth="yes"/>
      <point x="202" y="881" type="line" smooth="yes"/>
      <point x="208" y="887"/>
      <point x="217" y="887" type="qcurve" smooth="yes"/>
      <point x="458" y="887" type="line" smooth="yes"/>
      <point x="467" y="887"/>
      <point x="474" y="881" type="qcurve" smooth="yes"/>
      <point x="611" y="743" type="line" smooth="yes"/>
      <point x="618" y="736"/>
      <point x="618" y="727" type="qcurve" smooth="yes"/>
      <point x="618" y="491" type="line" smooth="yes"/>
      <point x="618" y="482"/>
      <point x="611" y="476" type="qcurve" smooth="yes"/>
      <point x="474" y="338" type="line" smooth="yes"/>
      <point x="470" y="333"/>
      <point x="458" y="331" type="qcurve" smooth="yes"/>
      <point x="217" y="331" type="line" smooth="yes"/>
      <point x="208" y="331"/>
      <point x="202" y="338" type="qcurve" smooth="yes"/>
      <point x="64" y="476" type="line" smooth="yes"/>
      <point x="57" y="482"/>
    </contour>
    <contour>
      <point x="449" y="844" type="line"/>
      <point x="226" y="844" type="line"/>
      <point x="101" y="718" type="line"/>
      <point x="101" y="503" type="line"/>
      <point x="101" y="500" type="line"/>
      <point x="226" y="375" type="line"/>
      <point x="449" y="375" type="line"/>
      <point x="574" y="500" type="line"/>
      <point x="574" y="715" type="line"/>
      <point x="574" y="718" type="line"/>
    </contour>
    <contour>
      <point x="239" y="534" type="line"/>
      <point x="239" y="438" type="line" smooth="yes"/>
      <point x="239" y="431"/>
      <point x="229" y="421"/>
      <point x="215" y="421"/>
      <point x="205" y="431"/>
      <point x="205" y="438" type="qcurve" smooth="yes"/>
      <point x="205" y="782" type="line" smooth="yes"/>
      <point x="205" y="786"/>
      <point x="210" y="794" type="qcurve" smooth="yes"/>
      <point x="215" y="798"/>
      <point x="222" y="798" type="qcurve" smooth="yes"/>
      <point x="225" y="798" type="line"/>
      <point x="396" y="798" type="line" smooth="yes"/>
      <point x="403" y="798"/>
      <point x="408" y="793" type="qcurve" smooth="yes"/>
      <point x="466" y="736" type="line" smooth="yes"/>
      <point x="471" y="731"/>
      <point x="471" y="724" type="qcurve" smooth="yes"/>
      <point x="471" y="609" type="line" smooth="yes"/>
      <point x="471" y="602"/>
      <point x="466" y="597" type="qcurve" smooth="yes"/>
      <point x="408" y="539" type="line" smooth="yes"/>
      <point x="403" y="534"/>
      <point x="396" y="534" type="qcurve" smooth="yes"/>
      <point x="379" y="534" type="line"/>
      <point x="466" y="450" type="line" smooth="yes"/>
      <point x="471" y="445"/>
      <point x="471" y="431"/>
      <point x="461" y="421"/>
      <point x="447" y="421"/>
      <point x="442" y="426" type="qcurve" smooth="yes"/>
      <point x="331" y="534" type="line"/>
    </contour>
    <contour>
      <point x="239" y="764" type="line"/>
      <point x="239" y="568" type="line"/>
      <point x="389" y="568" type="line"/>
      <point x="437" y="616" type="line"/>
      <point x="437" y="717" type="line"/>
      <point x="389" y="764" type="line"/>
    </contour>
  </outline>
</glyph>
<glyph name="macron" format="2">
  <advance width="285"/>
  <unicode hex="00AF"/>
  <outline>
    <contour>
      <point x="66" y="842" type="line" smooth="yes"/>
      <point x="53" y="842"/>
      <point x="35" y="860"/>
      <point x="35" y="872" type="qcurve" smooth="yes"/>
      <point x="35" y="885"/>
      <point x="44" y="894" type="qcurve" smooth="yes"/>
      <point x="53" y="904"/>
      <point x="66" y="904" type="qcurve" smooth="yes"/>
      <point x="216" y="904" type="line" smooth="yes"/>
      <point x="229" y="904"/>
      <point x="238" y="894" type="qcurve" smooth="yes"/>
      <point x="247" y="885"/>
      <point x="247" y="872" type="qcurve" smooth="yes"/>
      <point x="247" y="860"/>
      <point x="229" y="842"/>
      <point x="216" y="842" type="qcurve" smooth="yes"/>
    </contour>
  </outline>
</glyph>
<glyph name="degree" format="2">
  <advance width="1175"/>
  <unicode hex="00B0"/>
  <outline>
    <contour>
      <point x="489.753" y="708.469" type="qcurve" smooth="yes"/>
      <point x="489.753" y="810.318" type="line" smooth="yes"/>
      <point x="490.012" y="817.315"/>
      <point x="494.45" y="821.869" type="qcurve" smooth="yes"/>
      <point x="552.559" y="881.487" type="line" smooth="yes"/>
      <point x="557.286" y="886.291"/>
      <point x="563.904" y="886.291" type="qcurve" smooth="yes"/>
      <point x="666.594" y="886.291" type="line" smooth="yes"/>
      <point x="673.56" y="885.975"/>
      <point x="677.941" y="881.487" type="qcurve" smooth="yes"/>
      <point x="736.163" y="821.869" type="line" smooth="yes"/>
      <point x="740.748" y="817.254"/>
      <point x="740.748" y="810.318" type="qcurve" smooth="yes"/>
      <point x="740.748" y="708.469" type="line" smooth="yes"/>
      <point x="741.005" y="701.875"/>
      <point x="736.163" y="696.918" type="qcurve" smooth="yes"/>
      <point x="677.941" y="637.311" type="line" smooth="yes"/>
      <point x="672.435" y="632.507"/>
      <point x="666.594" y="632.507" type="qcurve" smooth="yes"/>
      <point x="563.904" y="632.507" type="line" smooth="yes"/>
      <point x="556.743" y="633.019"/>
      <point x="552.559" y="637.311" type="qcurve" smooth="yes"/>
      <point x="494.45" y="696.918" type="line" smooth="yes"/>
      <point x="490" y="702"/>
    </contour>
    <contour>
      <point x="598.976" y="853.583" type="line"/>
      <point x="570.552" y="853.583" type="line"/>
      <point x="521.729" y="803.559" type="line"/>
      <point x="521.729" y="715.229" type="line"/>
      <point x="570.552" y="665.204" type="line"/>
      <point x="631.295" y="665.204" type="line"/>
      <point x="659.947" y="665.204" type="line"/>
      <point x="708.771" y="715.229" type="line"/>
      <point x="708.771" y="803.559" type="line"/>
      <point x="659.947" y="853.583" type="line"/>
    </contour>
  </outline>
</glyph>
<glyph name="plusminus" format="2">
  <advance width="674"/>
  <unicode hex="00B1"/>
  <outline>
    <contour>
      <point x="305" y="415" type="line"/>
      <point x="122" y="415" type="line" smooth="yes"/>
      <point x="110" y="415"/>
      <point x="99" y="424" type="qcurve" smooth="yes"/>
      <point x="89" y="434"/>
      <point x="89" y="448" type="qcurve" smooth="yes"/>
      <point x="89" y="461"/>
      <point x="99" y="470" type="qcurve" smooth="yes"/>
      <point x="109" y="480"/>
      <point x="122" y="480" type="qcurve" smooth="yes"/>
      <point x="304" y="480" type="line"/>
      <point x="303" y="616" type="line" smooth="yes"/>
      <point x="303" y="628"/>
      <point x="312" y="639" type="qcurve" smooth="yes"/>
      <point x="322" y="649"/>
      <point x="336" y="649" type="qcurve" smooth="yes"/>
      <point x="349" y="649"/>
      <point x="358" y="640" type="qcurve" smooth="yes"/>
      <point x="368" y="630"/>
      <point x="368" y="617" type="qcurve" smooth="yes"/>
      <point x="369" y="480" type="line"/>
      <point x="552" y="480" type="line" smooth="yes"/>
      <point x="565" y="480"/>
      <point x="575" y="470" type="qcurve" smooth="yes"/>
      <point x="585" y="461"/>
      <point x="585" y="448" type="qcurve" smooth="yes"/>
      <point x="585" y="434"/>
      <point x="576" y="424" type="qcurve" smooth="yes"/>
      <point x="566" y="415"/>
      <point x="552" y="415" type="qcurve" smooth="yes"/>
      <point x="370" y="415" type="line"/>
      <point x="371" y="279" type="line" smooth="yes"/>
      <point x="371" y="266"/>
      <point x="362" y="256" type="qcurve" smooth="yes"/>
      <point x="352" y="246"/>
      <point x="338" y="246" type="qcurve" smooth="yes"/>
      <point x="325" y="246"/>
      <point x="316" y="256" type="qcurve" smooth="yes"/>
      <point x="306" y="265"/>
      <point x="306" y="278" type="qcurve" smooth="yes"/>
    </contour>
    <contour>
      <point x="119" y="122" type="line" smooth="yes"/>
      <point x="106" y="122"/>
      <point x="86" y="142"/>
      <point x="86" y="168"/>
      <point x="106" y="188"/>
      <point x="119" y="188" type="qcurve" smooth="yes"/>
      <point x="555" y="188" type="line" smooth="yes"/>
      <point x="568" y="188"/>
      <point x="588" y="168"/>
      <point x="588" y="142"/>
      <point x="578" y="132" type="qcurve" smooth="yes"/>
      <point x="569" y="122"/>
      <point x="555" y="122" type="qcurve" smooth="yes"/>
    </contour>
  </outline>
</glyph>
<glyph name="acute" format="2">
  <advance width="359"/>
  <unicode hex="00B4"/>
  <outline>
    <contour>
      <point x="111" y="756" type="line" smooth="yes"/>
      <point x="98" y="749"/>
      <point x="84" y="752" type="qcurve" smooth="yes"/>
      <point x="70" y="757"/>
      <point x="62" y="769" type="qcurve" smooth="yes"/>
      <point x="55" y="783"/>
      <point x="58" y="796" type="qcurve" smooth="yes"/>
      <point x="62" y="810"/>
      <point x="75" y="818" type="qcurve" smooth="yes"/>
      <point x="247" y="917" type="line" smooth="yes"/>
      <point x="260" y="924"/>
      <point x="274" y="920" type="qcurve" smooth="yes"/>
      <point x="289" y="917"/>
      <point x="303" y="891"/>
      <point x="300" y="877" type="qcurve" smooth="yes"/>
      <point x="296" y="863"/>
      <point x="283" y="855" type="qcurve" smooth="yes"/>
    </contour>
  </outline>
</glyph>
<glyph name="periodcentered" format="2">
  <advance width="100"/>
  <unicode hex="00B7"/>
  <outline>
    <contour>
      <point x="87.3867" y="457.722" type="line" smooth="yes"/>
      <point x="87.3867" y="452"/>
      <point x="79.2461" y="443.896"/>
      <point x="73.5215" y="443.896" type="qcurve" smooth="yes"/>
      <point x="26.4785" y="443.896" type="line" smooth="yes"/>
      <point x="20.7539" y="443.896"/>
      <point x="12.6133" y="452"/>
      <point x="12.6133" y="457.722" type="qcurve" smooth="yes"/>
      <point x="12.6133" y="504.299" type="line" smooth="yes"/>
      <point x="12.6133" y="510.021"/>
      <point x="20.7539" y="518.124"/>
      <point x="26.4785" y="518.124" type="qcurve" smooth="yes"/>
      <point x="73.5215" y="518.124" type="line" smooth="yes"/>
      <point x="79.2461" y="518.124"/>
      <point x="87.3867" y="510.021"/>
      <point x="87.3867" y="504.299" type="qcurve" smooth="yes"/>
    </contour>
  </outline>
</glyph>
<glyph name="cedilla" format="2">
  <advance width="275"/>
  <unicode hex="00B8"/>
  <outline>
    <contour>
      <point x="85" y="-105" type="line" smooth="yes"/>
      <point x="69" y="-105"/>
      <point x="47" y="-127"/>
      <point x="47" y="-159"/>
      <point x="69" y="-181"/>
      <point x="85" y="-181" type="qcurve" smooth="yes"/>
      <point x="165" y="-181" type="line" smooth="yes"/>
      <point x="181" y="-181"/>
      <point x="192" y="-170" type="qcurve" smooth="yes"/>
      <point x="230" y="-133" type="line" smooth="yes"/>
      <point x="241" y="-122"/>
      <point x="241" y="-106" type="qcurve" smooth="yes"/>
      <point x="241" y="-50" type="line" smooth="yes"/>
      <point x="241" y="-34"/>
      <point x="230" y="-23" type="qcurve" smooth="yes"/>
      <point x="184" y="23" type="line" smooth="yes"/>
      <point x="173" y="34"/>
      <point x="157" y="34" type="qcurve" smooth="yes"/>
      <point x="123" y="34" type="line"/>
      <point x="123" y="50" type="line" smooth="yes"/>
      <point x="123" y="64"/>
      <point x="112" y="78" type="qcurve" smooth="yes"/>
      <point x="101" y="89"/>
      <point x="69" y="89"/>
      <point x="58" y="78" type="qcurve" smooth="yes"/>
      <point x="47" y="64"/>
      <point x="47" y="50" type="qcurve" smooth="yes"/>
      <point x="47" y="-4" type="line" smooth="yes"/>
      <point x="47" y="-20"/>
      <point x="69" y="-42"/>
      <point x="85" y="-42" type="qcurve" smooth="yes"/>
      <point x="141" y="-42" type="line"/>
      <point x="164" y="-66" type="line"/>
      <point x="164" y="-90" type="line"/>
      <point x="150" y="-105" type="line"/>
    </contour>
  </outline>
</glyph>
<glyph name="ordmasculine" format="2">
  <advance width="1175"/>
  <unicode hex="00BA"/>
  <outline>
    <contour>
      <point x="737.382" y="707.751" type="qcurve" smooth="yes"/>
      <point x="737.382" y="765.141" type="line" smooth="yes"/>
      <point x="737.382" y="768.922"/>
      <point x="740.286" y="771.649" type="qcurve" smooth="yes"/>
      <point x="776.199" y="805.243" type="line" smooth="yes"/>
      <point x="779.192" y="807.949"/>
      <point x="783.212" y="807.949" type="qcurve" smooth="yes"/>
      <point x="846.68" y="807.949" type="line" smooth="yes"/>
      <point x="850.81" y="807.949"/>
      <point x="853.692" y="805.243" type="qcurve" smooth="yes"/>
      <point x="889.677" y="771.649" type="line" smooth="yes"/>
      <point x="892.509" y="768.988"/>
      <point x="892.509" y="765.141" type="qcurve" smooth="yes"/>
      <point x="892.509" y="707.751" type="line" smooth="yes"/>
      <point x="892.509" y="703.902"/>
      <point x="889.677" y="701.242" type="qcurve" smooth="yes"/>
      <point x="853.692" y="667.656" type="line" smooth="yes"/>
      <point x="850.82" y="664.949"/>
      <point x="846.68" y="664.949" type="qcurve" smooth="yes"/>
      <point x="783.212" y="664.949" type="line" smooth="yes"/>
      <point x="779.182" y="664.949"/>
      <point x="776.199" y="667.656" type="qcurve" smooth="yes"/>
      <point x="740.286" y="701.242" type="line" smooth="yes"/>
      <point x="737.382" y="703.969"/>
    </contour>
    <contour>
      <point x="804.888" y="789.519" type="line"/>
      <point x="787.32" y="789.519" type="line"/>
      <point x="757.145" y="761.332" type="line"/>
      <point x="757.145" y="711.56" type="line"/>
      <point x="787.32" y="683.373" type="line"/>
      <point x="824.862" y="683.373" type="line"/>
      <point x="842.571" y="683.373" type="line"/>
      <point x="872.747" y="711.56" type="line"/>
      <point x="872.747" y="761.332" type="line"/>
      <point x="842.571" y="789.519" type="line"/>
    </contour>
  </outline>
</glyph>
<glyph name="guillemotright" format="2">
  <advance width="674"/>
  <unicode hex="00BB"/>
  <outline>
    <contour>
      <point x="128" y="10" type="line" smooth="yes"/>
      <point x="118" y="0"/>
      <point x="88" y="0"/>
      <point x="68" y="20"/>
      <point x="68" y="35" type="qcurve" smooth="yes"/>
      <point x="68" y="51"/>
      <point x="78" y="61" type="qcurve" smooth="yes"/>
      <point x="342" y="320" type="line"/>
      <point x="78" y="580" type="line" smooth="yes"/>
      <point x="68" y="590"/>
      <point x="68" y="620"/>
      <point x="88" y="640"/>
      <point x="103" y="641" type="qcurve" smooth="yes"/>
      <point x="118" y="641"/>
      <point x="128" y="631" type="qcurve" smooth="yes"/>
      <point x="417" y="346" type="line" smooth="yes"/>
      <point x="428" y="335"/>
      <point x="428" y="321" type="qcurve" smooth="yes"/>
      <point x="428" y="306"/>
      <point x="417" y="295" type="qcurve" smooth="yes"/>
    </contour>
    <contour>
      <point x="326" y="10" type="line" smooth="yes"/>
      <point x="316" y="0"/>
      <point x="286" y="0"/>
      <point x="266" y="20"/>
      <point x="266" y="35" type="qcurve" smooth="yes"/>
      <point x="266" y="51"/>
      <point x="276" y="61" type="qcurve" smooth="yes"/>
      <point x="540" y="320" type="line"/>
      <point x="276" y="580" type="line" smooth="yes"/>
      <point x="266" y="590"/>
      <point x="266" y="620"/>
      <point x="286" y="640"/>
      <point x="300" y="641" type="qcurve" smooth="yes"/>
      <point x="316" y="641"/>
      <point x="326" y="631" type="qcurve" smooth="yes"/>
      <point x="615" y="346" type="line" smooth="yes"/>
      <point x="626" y="335"/>
      <point x="626" y="321" type="qcurve" smooth="yes"/>
      <point x="626" y="306"/>
      <point x="615" y="295" type="qcurve" smooth="yes"/>
    </contour>
  </outline>
</glyph>
<glyph name="Agrave" format="2">
  <advance width="674"/>
  <unicode hex="00C0"/>
  <outline>
    <contour>
      <point x="357" y="812" type="qcurve" smooth="yes"/>
      <point x="266" y="871" type="line" smooth="yes"/>
      <point x="254" y="880"/>
      <point x="250" y="893" type="qcurve" smooth="yes"/>
      <point x="247" y="907"/>
      <point x="255" y="921" type="qcurve" smooth="yes"/>
      <point x="263" y="933"/>
      <point x="278" y="936" type="qcurve" smooth="yes"/>
      <point x="291" y="939"/>
      <point x="305" y="931" type="qcurve" smooth="yes"/>
      <point x="396" y="872" type="line" smooth="yes"/>
      <point x="408" y="863"/>
      <point x="412" y="849" type="qcurve" smooth="yes"/>
      <point x="415" y="837"/>
      <point x="407" y="823" type="qcurve" smooth="yes"/>
      <point x="400" y="810"/>
      <point x="384" y="807" type="qcurve" smooth="yes"/>
      <point x="371" y="804"/>
    </contour>
    <contour>
      <point x="129" y="35" type="line" smooth="yes"/>
      <point x="129" y="21"/>
      <point x="118" y="10" type="qcurve" smooth="yes"/>
      <point x="109" y="0"/>
      <point x="94" y="0" type="qcurve" smooth="yes"/>
      <point x="78" y="0"/>
      <point x="68" y="10" type="qcurve" smooth="yes"/>
      <point x="57" y="21"/>
      <point x="57" y="35" type="qcurve" smooth="yes"/>
      <point x="57" y="512" type="line" smooth="yes"/>
      <point x="57" y="526"/>
      <point x="68" y="537" type="qcurve" smooth="yes"/>
      <point x="312" y="782" type="line" smooth="yes"/>
      <point x="323" y="793"/>
      <point x="338" y="792" type="qcurve" smooth="yes"/>
      <point x="353" y="792"/>
      <point x="363" y="782" type="qcurve" smooth="yes"/>
      <point x="608" y="533" type="line" smooth="yes"/>
      <point x="618" y="523"/>
      <point x="618" y="508" type="qcurve" smooth="yes"/>
      <point x="618" y="35" type="line" smooth="yes"/>
      <point x="618" y="21"/>
      <point x="608" y="10" type="qcurve" smooth="yes"/>
      <point x="598" y="0"/>
      <point x="566" y="0"/>
      <point x="556" y="10" type="qcurve" smooth="yes"/>
      <point x="546" y="21"/>
      <point x="546" y="35" type="qcurve" smooth="yes"/>
      <point x="546" y="360" type="line"/>
      <point x="129" y="360" type="line"/>
    </contour>
    <contour>
      <point x="550" y="494" type="line"/>
      <point x="341" y="706" type="line"/>
      <point x="133" y="497" type="line"/>
      <point x="133" y="432" type="line"/>
      <point x="550" y="432" type="line"/>
    </contour>
  </outline>
</glyph>
<glyph name="Aacute" format="2">
  <advance width="674"/>
  <unicode hex="00C1"/>
  <outline>
    <contour>
      <point x="361" y="812" type="line" smooth="yes"/>
      <point x="347" y="804"/>
      <point x="334" y="807" type="qcurve" smooth="yes"/>
      <point x="318" y="810"/>
      <point x="311" y="823" type="qcurve" smooth="yes"/>
      <point x="303" y="837"/>
      <point x="306" y="849" type="qcurve" smooth="yes"/>
      <point x="310" y="863"/>
      <point x="322" y="872" type="qcurve" smooth="yes"/>
      <point x="413" y="931" type="line" smooth="yes"/>
      <point x="427" y="939"/>
      <point x="440" y="936" type="qcurve" smooth="yes"/>
      <point x="455" y="933"/>
      <point x="463" y="921" type="qcurve" smooth="yes"/>
      <point x="471" y="907"/>
      <point x="468" y="893" type="qcurve" smooth="yes"/>
      <point x="465" y="878"/>
      <point x="452" y="871" type="qcurve" smooth="yes"/>
    </contour>
    <contour>
      <point x="129" y="35" type="line" smooth="yes"/>
      <point x="129" y="21"/>
      <point x="118" y="10" type="qcurve" smooth="yes"/>
      <point x="109" y="0"/>
      <point x="94" y="0" type="qcurve" smooth="yes"/>
      <point x="78" y="0"/>
      <point x="68" y="10" type="qcurve" smooth="yes"/>
      <point x="57" y="21"/>
      <point x="57" y="35" type="qcurve" smooth="yes"/>
      <point x="57" y="512" type="line" smooth="yes"/>
      <point x="57" y="526"/>
      <point x="68" y="537" type="qcurve" smooth="yes"/>
      <point x="312" y="782" type="line" smooth="yes"/>
      <point x="323" y="793"/>
      <point x="338" y="792" type="qcurve" smooth="yes"/>
      <point x="353" y="792"/>
      <point x="363" y="782" type="qcurve" smooth="yes"/>
      <point x="608" y="533" type="line" smooth="yes"/>
      <point x="618" y="523"/>
      <point x="618" y="508" type="qcurve" smooth="yes"/>
      <point x="618" y="35" type="line" smooth="yes"/>
      <point x="618" y="21"/>
      <point x="608" y="10" type="qcurve" smooth="yes"/>
      <point x="598" y="0"/>
      <point x="566" y="0"/>
      <point x="556" y="10" type="qcurve" smooth="yes"/>
      <point x="546" y="21"/>
      <point x="546" y="35" type="qcurve" smooth="yes"/>
      <point x="546" y="360" type="line"/>
      <point x="129" y="360" type="line"/>
    </contour>
    <contour>
      <point x="550" y="494" type="line"/>
      <point x="341" y="706" type="line"/>
      <point x="133" y="497" type="line"/>
      <point x="133" y="432" type="line"/>
      <point x="550" y="432" type="line"/>
    </contour>
  </outline>
</glyph>
<glyph name="Acircumflex" format="2">
  <advance width="674"/>
  <unicode hex="00C2"/>
  <outline>
    <contour>
      <point x="381" y="814" type="qcurve" smooth="yes"/>
      <point x="317" y="859" type="line" smooth="yes"/>
      <point x="304" y="867"/>
      <point x="300" y="881" type="qcurve" smooth="yes"/>
      <point x="297" y="894"/>
      <point x="304" y="908" type="qcurve" smooth="yes"/>
      <point x="312" y="920"/>
      <point x="326" y="925" type="qcurve" smooth="yes"/>
      <point x="337" y="929"/>
      <point x="353" y="921" type="qcurve" smooth="yes"/>
      <point x="417" y="877" type="line" smooth="yes"/>
      <point x="430" y="869"/>
      <point x="434" y="855" type="qcurve" smooth="yes"/>
      <point x="439" y="840"/>
      <point x="430" y="827" type="qcurve" smooth="yes"/>
      <point x="423" y="815"/>
      <point x="408" y="811" type="qcurve" smooth="yes"/>
      <point x="394" y="806"/>
    </contour>
    <contour>
      <point x="286" y="814" type="line" smooth="yes"/>
      <point x="273" y="807"/>
      <point x="258" y="811" type="qcurve" smooth="yes"/>
      <point x="245" y="815"/>
      <point x="236" y="827" type="qcurve" smooth="yes"/>
      <point x="229" y="842"/>
      <point x="233" y="855" type="qcurve" smooth="yes"/>
      <point x="237" y="869"/>
      <point x="250" y="877" type="qcurve" smooth="yes"/>
      <point x="314" y="921" type="line" smooth="yes"/>
      <point x="327" y="928"/>
      <point x="341" y="925" type="qcurve" smooth="yes"/>
      <point x="357" y="921"/>
      <point x="362" y="908" type="qcurve" smooth="yes"/>
      <point x="371" y="895"/>
      <point x="366" y="881" type="qcurve" smooth="yes"/>
      <point x="362" y="867"/>
      <point x="349" y="859" type="qcurve" smooth="yes"/>
    </contour>
    <contour>
      <point x="129" y="35" type="line" smooth="yes"/>
      <point x="129" y="21"/>
      <point x="118" y="10" type="qcurve" smooth="yes"/>
      <point x="109" y="0"/>
      <point x="94" y="0" type="qcurve" smooth="yes"/>
      <point x="78" y="0"/>
      <point x="68" y="10" type="qcurve" smooth="yes"/>
      <point x="57" y="21"/>
      <point x="57" y="35" type="qcurve" smooth="yes"/>
      <point x="57" y="512" type="line" smooth="yes"/>
      <point x="57" y="526"/>
      <point x="68" y="537" type="qcurve" smooth="yes"/>
      <point x="312" y="782" type="line" smooth="yes"/>
      <point x="323" y="793"/>
      <point x="338" y="792" type="qcurve" smooth="yes"/>
      <point x="353" y="792"/>
      <point x="363" y="782" type="qcurve" smooth="yes"/>
      <point x="608" y="533" type="line" smooth="yes"/>
      <point x="618" y="523"/>
      <point x="618" y="508" type="qcurve" smooth="yes"/>
      <point x="618" y="35" type="line" smooth="yes"/>
      <point x="618" y="21"/>
      <point x="608" y="10" type="qcurve" smooth="yes"/>
      <point x="598" y="0"/>
      <point x="566" y="0"/>
      <point x="556" y="10" type="qcurve" smooth="yes"/>
      <point x="546" y="21"/>
      <point x="546" y="35" type="qcurve" smooth="yes"/>
      <point x="546" y="360" type="line"/>
      <point x="129" y="360" type="line"/>
    </contour>
    <contour>
      <point x="550" y="494" type="line"/>
      <point x="341" y="706" type="line"/>
      <point x="133" y="497" type="line"/>
      <point x="133" y="432" type="line"/>
      <point x="550" y="432" type="line"/>
    </contour>
  </outline>
</glyph>
<glyph name="Atilde" format="2">
  <advance width="674"/>
  <unicode hex="00C3"/>
  <outline>
    <contour>
      <point x="240" y="810" type="line" smooth="yes"/>
      <point x="227" y="804"/>
      <point x="212" y="809" type="qcurve" smooth="yes"/>
      <point x="198" y="812"/>
      <point x="192" y="827" type="qcurve" smooth="yes"/>
      <point x="185" y="836"/>
      <point x="190" y="854" type="qcurve" smooth="yes"/>
      <point x="195" y="868"/>
      <point x="209" y="875" type="qcurve" smooth="yes"/>
      <point x="290" y="914" type="line" smooth="yes"/>
      <point x="306" y="921"/>
      <point x="321" y="914" type="qcurve" smooth="yes"/>
      <point x="387" y="882" type="line"/>
      <point x="453" y="914" type="line" smooth="yes"/>
      <point x="468" y="921"/>
      <point x="480" y="915" type="qcurve" smooth="yes"/>
      <point x="495" y="912"/>
      <point x="502" y="897" type="qcurve" smooth="yes"/>
      <point x="508" y="886"/>
      <point x="503" y="870" type="qcurve" smooth="yes"/>
      <point x="498" y="856"/>
      <point x="485" y="850" type="qcurve" smooth="yes"/>
      <point x="403" y="810" type="line" smooth="yes"/>
      <point x="387" y="803"/>
      <point x="372" y="810" type="qcurve" smooth="yes"/>
      <point x="306" y="842" type="line"/>
    </contour>
    <contour>
      <point x="129" y="35" type="line" smooth="yes"/>
      <point x="129" y="21"/>
      <point x="118" y="10" type="qcurve" smooth="yes"/>
      <point x="109" y="0"/>
      <point x="94" y="0" type="qcurve" smooth="yes"/>
      <point x="78" y="0"/>
      <point x="68" y="10" type="qcurve" smooth="yes"/>
      <point x="57" y="21"/>
      <point x="57" y="35" type="qcurve" smooth="yes"/>
      <point x="57" y="512" type="line" smooth="yes"/>
      <point x="57" y="526"/>
      <point x="68" y="537" type="qcurve" smooth="yes"/>
      <point x="312" y="782" type="line" smooth="yes"/>
      <point x="323" y="793"/>
      <point x="338" y="792" type="qcurve" smooth="yes"/>
      <point x="353" y="792"/>
      <point x="363" y="782" type="qcurve" smooth="yes"/>
      <point x="608" y="533" type="line" smooth="yes"/>
      <point x="618" y="523"/>
      <point x="618" y="508" type="qcurve" smooth="yes"/>
      <point x="618" y="35" type="line" smooth="yes"/>
      <point x="618" y="21"/>
      <point x="608" y="10" type="qcurve" smooth="yes"/>
      <point x="598" y="0"/>
      <point x="566" y="0"/>
      <point x="556" y="10" type="qcurve" smooth="yes"/>
      <point x="546" y="21"/>
      <point x="546" y="35" type="qcurve" smooth="yes"/>
      <point x="546" y="360" type="line"/>
      <point x="129" y="360" type="line"/>
    </contour>
    <contour>
      <point x="550" y="494" type="line"/>
      <point x="341" y="706" type="line"/>
      <point x="133" y="497" type="line"/>
      <point x="133" y="432" type="line"/>
      <point x="550" y="432" type="line"/>
    </contour>
  </outline>
</glyph>
<glyph name="Adieresis" format="2">
  <advance width="674"/>
  <unicode hex="00C4"/>
  <outline>
    <contour>
      <point x="255" y="858" type="line" smooth="yes"/>
      <point x="255" y="853"/>
      <point x="250" y="845" type="qcurve"/>
      <point x="242" y="840"/>
      <point x="237" y="840" type="qcurve" smooth="yes"/>
      <point x="177" y="840" type="line" smooth="yes"/>
      <point x="172" y="840"/>
      <point x="164" y="845" type="qcurve"/>
      <point x="159" y="853"/>
      <point x="159" y="858" type="qcurve" smooth="yes"/>
      <point x="159" y="918" type="line" smooth="yes"/>
      <point x="159" y="925"/>
      <point x="164" y="930" type="qcurve" smooth="yes"/>
      <point x="172" y="935"/>
      <point x="177" y="935" type="qcurve" smooth="yes"/>
      <point x="237" y="935" type="line" smooth="yes"/>
      <point x="242" y="935"/>
      <point x="250" y="930" type="qcurve" smooth="yes"/>
      <point x="255" y="925"/>
      <point x="255" y="918" type="qcurve" smooth="yes"/>
    </contour>
    <contour>
      <point x="219" y="876" type="line"/>
      <point x="219" y="900" type="line"/>
      <point x="195" y="900" type="line"/>
      <point x="195" y="876" type="line"/>
    </contour>
    <contour>
      <point x="516" y="858" type="line" smooth="yes"/>
      <point x="516" y="851"/>
      <point x="510" y="845" type="qcurve" smooth="yes"/>
      <point x="505" y="840"/>
      <point x="498" y="840" type="qcurve" smooth="yes"/>
      <point x="438" y="840" type="line" smooth="yes"/>
      <point x="431" y="840"/>
      <point x="426" y="845" type="qcurve" smooth="yes"/>
      <point x="420" y="851"/>
      <point x="420" y="858" type="qcurve" smooth="yes"/>
      <point x="420" y="917" type="line" smooth="yes"/>
      <point x="420" y="924"/>
      <point x="426" y="929" type="qcurve" smooth="yes"/>
      <point x="430" y="935"/>
      <point x="438" y="935" type="qcurve" smooth="yes"/>
      <point x="498" y="935" type="line" smooth="yes"/>
      <point x="505" y="935"/>
      <point x="510" y="930" type="qcurve" smooth="yes"/>
      <point x="516" y="926"/>
      <point x="516" y="917" type="qcurve" smooth="yes"/>
    </contour>
    <contour>
      <point x="481" y="876" type="line"/>
      <point x="481" y="900" type="line"/>
      <point x="456" y="900" type="line"/>
      <point x="456" y="876" type="line"/>
    </contour>
    <contour>
      <point x="129" y="35" type="line" smooth="yes"/>
      <point x="129" y="21"/>
      <point x="118" y="10" type="qcurve" smooth="yes"/>
      <point x="109" y="0"/>
      <point x="94" y="0" type="qcurve" smooth="yes"/>
      <point x="78" y="0"/>
      <point x="68" y="10" type="qcurve" smooth="yes"/>
      <point x="57" y="21"/>
      <point x="57" y="35" type="qcurve" smooth="yes"/>
      <point x="57" y="512" type="line" smooth="yes"/>
      <point x="57" y="526"/>
      <point x="68" y="537" type="qcurve" smooth="yes"/>
      <point x="312" y="782" type="line" smooth="yes"/>
      <point x="323" y="793"/>
      <point x="338" y="792" type="qcurve" smooth="yes"/>
      <point x="353" y="792"/>
      <point x="363" y="782" type="qcurve" smooth="yes"/>
      <point x="608" y="533" type="line" smooth="yes"/>
      <point x="618" y="523"/>
      <point x="618" y="508" type="qcurve" smooth="yes"/>
      <point x="618" y="35" type="line" smooth="yes"/>
      <point x="618" y="21"/>
      <point x="608" y="10" type="qcurve" smooth="yes"/>
      <point x="598" y="0"/>
      <point x="566" y="0"/>
      <point x="556" y="10" type="qcurve" smooth="yes"/>
      <point x="546" y="21"/>
      <point x="546" y="35" type="qcurve" smooth="yes"/>
      <point x="546" y="360" type="line"/>
      <point x="129" y="360" type="line"/>
    </contour>
    <contour>
      <point x="550" y="494" type="line"/>
      <point x="341" y="706" type="line"/>
      <point x="133" y="497" type="line"/>
      <point x="133" y="432" type="line"/>
      <point x="550" y="432" type="line"/>
    </contour>
  </outline>
</glyph>
<glyph name="Aring" format="2">
  <advance width="674"/>
  <unicode hex="00C5"/>
  <outline>
    <contour>
      <point x="359" y="944" type="qcurve" smooth="yes"/>
      <point x="412" y="891" type="line" smooth="yes"/>
      <point x="420" y="883"/>
      <point x="420" y="871" type="qcurve" smooth="yes"/>
      <point x="420" y="861"/>
      <point x="412" y="850" type="qcurve" smooth="yes"/>
      <point x="358" y="796" type="line" smooth="yes"/>
      <point x="350" y="788"/>
      <point x="338" y="788" type="qcurve" smooth="yes"/>
      <point x="325" y="788"/>
      <point x="317" y="796" type="qcurve" smooth="yes"/>
      <point x="264" y="850" type="line" smooth="yes"/>
      <point x="255" y="859"/>
      <point x="255" y="871" type="qcurve" smooth="yes"/>
      <point x="255" y="882"/>
      <point x="264" y="891" type="qcurve" smooth="yes"/>
      <point x="318" y="944" type="line" smooth="yes"/>
      <point x="326" y="952"/>
      <point x="338" y="952" type="qcurve" smooth="yes"/>
      <point x="351" y="952"/>
    </contour>
    <contour>
      <point x="338" y="883" type="line"/>
      <point x="325" y="870" type="line"/>
      <point x="337" y="858" type="line"/>
      <point x="350" y="871" type="line"/>
    </contour>
    <contour>
      <point x="129" y="35" type="line" smooth="yes"/>
      <point x="129" y="21"/>
      <point x="118" y="10" type="qcurve" smooth="yes"/>
      <point x="109" y="0"/>
      <point x="94" y="0" type="qcurve" smooth="yes"/>
      <point x="78" y="0"/>
      <point x="68" y="10" type="qcurve" smooth="yes"/>
      <point x="57" y="21"/>
      <point x="57" y="35" type="qcurve" smooth="yes"/>
      <point x="57" y="512" type="line" smooth="yes"/>
      <point x="57" y="526"/>
      <point x="68" y="537" type="qcurve" smooth="yes"/>
      <point x="312" y="782" type="line" smooth="yes"/>
      <point x="323" y="793"/>
      <point x="338" y="792" type="qcurve" smooth="yes"/>
      <point x="353" y="792"/>
      <point x="363" y="782" type="qcurve" smooth="yes"/>
      <point x="608" y="533" type="line" smooth="yes"/>
      <point x="618" y="523"/>
      <point x="618" y="508" type="qcurve" smooth="yes"/>
      <point x="618" y="35" type="line" smooth="yes"/>
      <point x="618" y="21"/>
      <point x="608" y="10" type="qcurve" smooth="yes"/>
      <point x="598" y="0"/>
      <point x="566" y="0"/>
      <point x="556" y="10" type="qcurve" smooth="yes"/>
      <point x="546" y="21"/>
      <point x="546" y="35" type="qcurve" smooth="yes"/>
      <point x="546" y="360" type="line"/>
      <point x="129" y="360" type="line"/>
    </contour>
    <contour>
      <point x="550" y="494" type="line"/>
      <point x="341" y="706" type="line"/>
      <point x="133" y="497" type="line"/>
      <point x="133" y="432" type="line"/>
      <point x="550" y="432" type="line"/>
    </contour>
  </outline>
</glyph>
<glyph name="Ccedilla" format="2">
  <advance width="672"/>
  <unicode hex="00C7"/>
  <outline>
    <contour>
      <point x="338" y="-185" type="line" smooth="yes"/>
      <point x="322" y="-185"/>
      <point x="300" y="-207"/>
      <point x="300" y="-239"/>
      <point x="322" y="-261"/>
      <point x="338" y="-261" type="qcurve" smooth="yes"/>
      <point x="418" y="-261" type="line" smooth="yes"/>
      <point x="434" y="-261"/>
      <point x="445" y="-250" type="qcurve" smooth="yes"/>
      <point x="483" y="-213" type="line" smooth="yes"/>
      <point x="494" y="-202"/>
      <point x="494" y="-186" type="qcurve" smooth="yes"/>
      <point x="494" y="-130" type="line" smooth="yes"/>
      <point x="494" y="-114"/>
      <point x="483" y="-103" type="qcurve" smooth="yes"/>
      <point x="437" y="-57" type="line" smooth="yes"/>
      <point x="426" y="-46"/>
      <point x="410" y="-46" type="qcurve" smooth="yes"/>
      <point x="376" y="-46" type="line"/>
      <point x="376" y="-30" type="line" smooth="yes"/>
      <point x="376" y="-14"/>
      <point x="365" y="-3" type="qcurve" smooth="yes"/>
      <point x="354" y="9"/>
      <point x="322" y="9"/>
      <point x="311" y="-3" type="qcurve" smooth="yes"/>
      <point x="300" y="-14"/>
      <point x="300" y="-30" type="qcurve" smooth="yes"/>
      <point x="300" y="-84" type="line" smooth="yes"/>
      <point x="300" y="-100"/>
      <point x="322" y="-122"/>
      <point x="338" y="-122" type="qcurve" smooth="yes"/>
      <point x="394" y="-122" type="line"/>
      <point x="417" y="-146" type="line"/>
      <point x="417" y="-170" type="line"/>
      <point x="403" y="-185" type="line"/>
    </contour>
    <contour>
      <point x="605" y="179" type="qcurve" smooth="yes"/>
      <point x="614" y="170"/>
      <point x="616" y="153" type="qcurve" smooth="yes"/>
      <point x="616" y="139"/>
      <point x="605" y="128" type="qcurve" smooth="yes"/>
      <point x="485" y="10" type="line" smooth="yes"/>
      <point x="475" y="0"/>
      <point x="460" y="0" type="qcurve" smooth="yes"/>
      <point x="216" y="0" type="line" smooth="yes"/>
      <point x="202" y="0"/>
      <point x="192" y="9" type="qcurve" smooth="yes"/>
      <point x="68" y="128" type="line" smooth="yes"/>
      <point x="57" y="139"/>
      <point x="57" y="153" type="qcurve" smooth="yes"/>
      <point x="57" y="633" type="line" smooth="yes"/>
      <point x="57" y="649"/>
      <point x="68" y="658" type="qcurve" smooth="yes"/>
      <point x="191" y="782" type="line" smooth="yes"/>
      <point x="201" y="792"/>
      <point x="216" y="792" type="qcurve" smooth="yes"/>
      <point x="460" y="792" type="line" smooth="yes"/>
      <point x="475" y="792"/>
      <point x="485" y="782" type="qcurve" smooth="yes"/>
      <point x="491" y="776"/>
      <point x="518" y="748"/>
      <point x="543" y="724"/>
      <point x="555" y="712" type="qcurve" smooth="yes"/>
      <point x="582" y="684"/>
      <point x="605" y="661" type="qcurve" smooth="yes"/>
      <point x="614" y="652"/>
      <point x="616" y="635" type="qcurve" smooth="yes"/>
      <point x="616" y="622"/>
      <point x="605" y="611" type="qcurve" smooth="yes"/>
      <point x="595" y="601"/>
      <point x="580" y="601" type="qcurve" smooth="yes"/>
      <point x="566" y="600"/>
      <point x="555" y="611" type="qcurve" smooth="yes"/>
      <point x="497" y="669" type="line"/>
      <point x="474" y="692" type="line"/>
      <point x="454" y="712" type="line"/>
      <point x="445" y="721" type="line"/>
      <point x="231" y="721" type="line"/>
      <point x="129" y="619" type="line"/>
      <point x="129" y="169" type="line"/>
      <point x="231" y="71" type="line"/>
      <point x="445" y="71" type="line"/>
      <point x="555" y="179" type="line" smooth="yes"/>
      <point x="565" y="189"/>
      <point x="595" y="189"/>
    </contour>
  </outline>
</glyph>
<glyph name="Egrave" format="2">
  <advance width="674"/>
  <unicode hex="00C8"/>
  <outline>
    <contour>
      <point x="343" y="814" type="qcurve" smooth="yes"/>
      <point x="252" y="873" type="line" smooth="yes"/>
      <point x="240" y="882"/>
      <point x="236" y="896" type="qcurve" smooth="yes"/>
      <point x="233" y="908"/>
      <point x="241" y="922" type="qcurve" smooth="yes"/>
      <point x="248" y="935"/>
      <point x="264" y="938" type="qcurve" smooth="yes"/>
      <point x="277" y="941"/>
      <point x="291" y="933" type="qcurve" smooth="yes"/>
      <point x="382" y="874" type="line" smooth="yes"/>
      <point x="394" y="865"/>
      <point x="398" y="852" type="qcurve" smooth="yes"/>
      <point x="401" y="838"/>
      <point x="393" y="824" type="qcurve" smooth="yes"/>
      <point x="385" y="812"/>
      <point x="370" y="809" type="qcurve" smooth="yes"/>
      <point x="357" y="806"/>
    </contour>
    <contour>
      <point x="128" y="71" type="line"/>
      <point x="582" y="71" type="line" smooth="yes"/>
      <point x="597" y="71"/>
      <point x="617" y="51"/>
      <point x="617" y="36" type="qcurve" smooth="yes"/>
      <point x="617" y="20"/>
      <point x="607" y="10" type="qcurve" smooth="yes"/>
      <point x="596" y="0"/>
      <point x="582" y="0" type="qcurve" smooth="yes"/>
      <point x="93" y="0" type="line" smooth="yes"/>
      <point x="78" y="0"/>
      <point x="68" y="10" type="qcurve" smooth="yes"/>
      <point x="57" y="21"/>
      <point x="57" y="36" type="qcurve" smooth="yes"/>
      <point x="57" y="758" type="line" smooth="yes"/>
      <point x="57" y="772"/>
      <point x="68" y="783" type="qcurve" smooth="yes"/>
      <point x="77" y="793"/>
      <point x="93" y="793" type="qcurve" smooth="yes"/>
      <point x="582" y="793" type="line" smooth="yes"/>
      <point x="597" y="793"/>
      <point x="617" y="773"/>
      <point x="617" y="758" type="qcurve" smooth="yes"/>
      <point x="617" y="742"/>
      <point x="607" y="732" type="qcurve" smooth="yes"/>
      <point x="596" y="722"/>
      <point x="582" y="722" type="qcurve" smooth="yes"/>
      <point x="128" y="722" type="line"/>
      <point x="128" y="432" type="line"/>
      <point x="340" y="432" type="line" smooth="yes"/>
      <point x="354" y="432"/>
      <point x="365" y="422" type="qcurve" smooth="yes"/>
      <point x="375" y="412"/>
      <point x="375" y="397" type="qcurve" smooth="yes"/>
      <point x="375" y="381"/>
      <point x="365" y="372" type="qcurve" smooth="yes"/>
      <point x="354" y="361"/>
      <point x="340" y="361" type="qcurve" smooth="yes"/>
      <point x="128" y="361" type="line"/>
    </contour>
  </outline>
</glyph>
<glyph name="Eacute" format="2">
  <advance width="674"/>
  <unicode hex="00C9"/>
  <outline>
    <contour>
      <point x="321" y="815" type="line" smooth="yes"/>
      <point x="307" y="807"/>
      <point x="294" y="810" type="qcurve" smooth="yes"/>
      <point x="278" y="813"/>
      <point x="271" y="826" type="qcurve" smooth="yes"/>
      <point x="263" y="840"/>
      <point x="266" y="852" type="qcurve" smooth="yes"/>
      <point x="270" y="866"/>
      <point x="282" y="875" type="qcurve" smooth="yes"/>
      <point x="373" y="934" type="line" smooth="yes"/>
      <point x="387" y="942"/>
      <point x="400" y="939" type="qcurve" smooth="yes"/>
      <point x="415" y="936"/>
      <point x="423" y="924" type="qcurve" smooth="yes"/>
      <point x="431" y="910"/>
      <point x="428" y="896" type="qcurve" smooth="yes"/>
      <point x="425" y="881"/>
      <point x="412" y="874" type="qcurve" smooth="yes"/>
    </contour>
    <contour>
      <point x="128" y="71" type="line"/>
      <point x="582" y="71" type="line" smooth="yes"/>
      <point x="597" y="71"/>
      <point x="617" y="51"/>
      <point x="617" y="36" type="qcurve" smooth="yes"/>
      <point x="617" y="20"/>
      <point x="607" y="10" type="qcurve" smooth="yes"/>
      <point x="596" y="0"/>
      <point x="582" y="0" type="qcurve" smooth="yes"/>
      <point x="93" y="0" type="line" smooth="yes"/>
      <point x="78" y="0"/>
      <point x="68" y="10" type="qcurve" smooth="yes"/>
      <point x="57" y="21"/>
      <point x="57" y="36" type="qcurve" smooth="yes"/>
      <point x="57" y="758" type="line" smooth="yes"/>
      <point x="57" y="772"/>
      <point x="68" y="783" type="qcurve" smooth="yes"/>
      <point x="77" y="793"/>
      <point x="93" y="793" type="qcurve" smooth="yes"/>
      <point x="582" y="793" type="line" smooth="yes"/>
      <point x="597" y="793"/>
      <point x="617" y="773"/>
      <point x="617" y="758" type="qcurve" smooth="yes"/>
      <point x="617" y="742"/>
      <point x="607" y="732" type="qcurve" smooth="yes"/>
      <point x="596" y="722"/>
      <point x="582" y="722" type="qcurve" smooth="yes"/>
      <point x="128" y="722" type="line"/>
      <point x="128" y="432" type="line"/>
      <point x="340" y="432" type="line" smooth="yes"/>
      <point x="354" y="432"/>
      <point x="365" y="422" type="qcurve" smooth="yes"/>
      <point x="375" y="412"/>
      <point x="375" y="397" type="qcurve" smooth="yes"/>
      <point x="375" y="381"/>
      <point x="365" y="372" type="qcurve" smooth="yes"/>
      <point x="354" y="361"/>
      <point x="340" y="361" type="qcurve" smooth="yes"/>
      <point x="128" y="361" type="line"/>
    </contour>
  </outline>
</glyph>
<glyph name="Ecircumflex" format="2">
  <advance width="674"/>
  <unicode hex="00CA"/>
  <outline>
    <contour>
      <point x="382" y="834" type="qcurve" smooth="yes"/>
      <point x="318" y="879" type="line" smooth="yes"/>
      <point x="305" y="886"/>
      <point x="302" y="900" type="qcurve" smooth="yes"/>
      <point x="297" y="915"/>
      <point x="306" y="928" type="qcurve" smooth="yes"/>
      <point x="311" y="941"/>
      <point x="327" y="945" type="qcurve" smooth="yes"/>
      <point x="338" y="949"/>
      <point x="354" y="941" type="qcurve" smooth="yes"/>
      <point x="418" y="897" type="line" smooth="yes"/>
      <point x="431" y="889"/>
      <point x="435" y="875" type="qcurve" smooth="yes"/>
      <point x="440" y="862"/>
      <point x="432" y="848" type="qcurve" smooth="yes"/>
      <point x="424" y="836"/>
      <point x="410" y="831" type="qcurve" smooth="yes"/>
      <point x="395" y="827"/>
    </contour>
    <contour>
      <point x="287" y="834" type="line" smooth="yes"/>
      <point x="274" y="826"/>
      <point x="260" y="831" type="qcurve" smooth="yes"/>
      <point x="243" y="836"/>
      <point x="238" y="848" type="qcurve" smooth="yes"/>
      <point x="229" y="860"/>
      <point x="234" y="874" type="qcurve" smooth="yes"/>
      <point x="238" y="889"/>
      <point x="251" y="897" type="qcurve" smooth="yes"/>
      <point x="315" y="941" type="line" smooth="yes"/>
      <point x="328" y="948"/>
      <point x="342" y="944" type="qcurve" smooth="yes"/>
      <point x="355" y="941"/>
      <point x="364" y="928" type="qcurve" smooth="yes"/>
      <point x="371" y="913"/>
      <point x="363" y="887"/>
      <point x="350" y="879" type="qcurve" smooth="yes"/>
    </contour>
    <contour>
      <point x="128" y="71" type="line"/>
      <point x="582" y="71" type="line" smooth="yes"/>
      <point x="597" y="71"/>
      <point x="617" y="51"/>
      <point x="617" y="36" type="qcurve" smooth="yes"/>
      <point x="617" y="20"/>
      <point x="607" y="10" type="qcurve" smooth="yes"/>
      <point x="596" y="0"/>
      <point x="582" y="0" type="qcurve" smooth="yes"/>
      <point x="93" y="0" type="line" smooth="yes"/>
      <point x="78" y="0"/>
      <point x="68" y="10" type="qcurve" smooth="yes"/>
      <point x="57" y="21"/>
      <point x="57" y="36" type="qcurve" smooth="yes"/>
      <point x="57" y="758" type="line" smooth="yes"/>
      <point x="57" y="772"/>
      <point x="68" y="783" type="qcurve" smooth="yes"/>
      <point x="77" y="793"/>
      <point x="93" y="793" type="qcurve" smooth="yes"/>
      <point x="582" y="793" type="line" smooth="yes"/>
      <point x="597" y="793"/>
      <point x="617" y="773"/>
      <point x="617" y="758" type="qcurve" smooth="yes"/>
      <point x="617" y="742"/>
      <point x="607" y="732" type="qcurve" smooth="yes"/>
      <point x="596" y="722"/>
      <point x="582" y="722" type="qcurve" smooth="yes"/>
      <point x="128" y="722" type="line"/>
      <point x="128" y="432" type="line"/>
      <point x="340" y="432" type="line" smooth="yes"/>
      <point x="354" y="432"/>
      <point x="365" y="422" type="qcurve" smooth="yes"/>
      <point x="375" y="412"/>
      <point x="375" y="397" type="qcurve" smooth="yes"/>
      <point x="375" y="381"/>
      <point x="365" y="372" type="qcurve" smooth="yes"/>
      <point x="354" y="361"/>
      <point x="340" y="361" type="qcurve" smooth="yes"/>
      <point x="128" y="361" type="line"/>
    </contour>
  </outline>
</glyph>
<glyph name="Edieresis" format="2">
  <advance width="674"/>
  <unicode hex="00CB"/>
  <outline>
    <contour>
      <point x="255" y="861" type="line" smooth="yes"/>
      <point x="255" y="856"/>
      <point x="250" y="848" type="qcurve"/>
      <point x="242" y="843"/>
      <point x="237" y="843" type="qcurve" smooth="yes"/>
      <point x="177" y="843" type="line" smooth="yes"/>
      <point x="172" y="843"/>
      <point x="164" y="848" type="qcurve"/>
      <point x="159" y="856"/>
      <point x="159" y="861" type="qcurve" smooth="yes"/>
      <point x="159" y="921" type="line" smooth="yes"/>
      <point x="159" y="928"/>
      <point x="164" y="933" type="qcurve" smooth="yes"/>
      <point x="172" y="938"/>
      <point x="177" y="938" type="qcurve" smooth="yes"/>
      <point x="237" y="938" type="line" smooth="yes"/>
      <point x="242" y="938"/>
      <point x="250" y="933" type="qcurve" smooth="yes"/>
      <point x="255" y="928"/>
      <point x="255" y="921" type="qcurve" smooth="yes"/>
    </contour>
    <contour>
      <point x="219" y="879" type="line"/>
      <point x="219" y="903" type="line"/>
      <point x="195" y="903" type="line"/>
      <point x="195" y="879" type="line"/>
    </contour>
    <contour>
      <point x="516" y="861" type="line" smooth="yes"/>
      <point x="516" y="854"/>
      <point x="510" y="848" type="qcurve" smooth="yes"/>
      <point x="505" y="843"/>
      <point x="498" y="843" type="qcurve" smooth="yes"/>
      <point x="438" y="843" type="line" smooth="yes"/>
      <point x="431" y="843"/>
      <point x="426" y="848" type="qcurve" smooth="yes"/>
      <point x="420" y="854"/>
      <point x="420" y="861" type="qcurve" smooth="yes"/>
      <point x="420" y="920" type="line" smooth="yes"/>
      <point x="420" y="928"/>
      <point x="426" y="932" type="qcurve" smooth="yes"/>
      <point x="430" y="938"/>
      <point x="438" y="938" type="qcurve" smooth="yes"/>
      <point x="498" y="938" type="line" smooth="yes"/>
      <point x="505" y="938"/>
      <point x="510" y="933" type="qcurve" smooth="yes"/>
      <point x="516" y="928"/>
      <point x="516" y="920" type="qcurve" smooth="yes"/>
    </contour>
    <contour>
      <point x="481" y="879" type="line"/>
      <point x="481" y="903" type="line"/>
      <point x="456" y="903" type="line"/>
      <point x="456" y="879" type="line"/>
    </contour>
    <contour>
      <point x="128" y="71" type="line"/>
      <point x="582" y="71" type="line" smooth="yes"/>
      <point x="597" y="71"/>
      <point x="617" y="51"/>
      <point x="617" y="36" type="qcurve" smooth="yes"/>
      <point x="617" y="20"/>
      <point x="607" y="10" type="qcurve" smooth="yes"/>
      <point x="596" y="0"/>
      <point x="582" y="0" type="qcurve" smooth="yes"/>
      <point x="93" y="0" type="line" smooth="yes"/>
      <point x="78" y="0"/>
      <point x="68" y="10" type="qcurve" smooth="yes"/>
      <point x="57" y="21"/>
      <point x="57" y="36" type="qcurve" smooth="yes"/>
      <point x="57" y="758" type="line" smooth="yes"/>
      <point x="57" y="772"/>
      <point x="68" y="783" type="qcurve" smooth="yes"/>
      <point x="77" y="793"/>
      <point x="93" y="793" type="qcurve" smooth="yes"/>
      <point x="582" y="793" type="line" smooth="yes"/>
      <point x="597" y="793"/>
      <point x="617" y="773"/>
      <point x="617" y="758" type="qcurve" smooth="yes"/>
      <point x="617" y="742"/>
      <point x="607" y="732" type="qcurve" smooth="yes"/>
      <point x="596" y="722"/>
      <point x="582" y="722" type="qcurve" smooth="yes"/>
      <point x="128" y="722" type="line"/>
      <point x="128" y="432" type="line"/>
      <point x="340" y="432" type="line" smooth="yes"/>
      <point x="354" y="432"/>
      <point x="365" y="422" type="qcurve" smooth="yes"/>
      <point x="375" y="412"/>
      <point x="375" y="397" type="qcurve" smooth="yes"/>
      <point x="375" y="381"/>
      <point x="365" y="372" type="qcurve" smooth="yes"/>
      <point x="354" y="361"/>
      <point x="340" y="361" type="qcurve" smooth="yes"/>
      <point x="128" y="361" type="line"/>
    </contour>
  </outline>
</glyph>
<glyph name="Igrave" format="2">
  <advance width="424"/>
  <unicode hex="00CC"/>
  <outline>
    <contour>
      <point x="213" y="815" type="qcurve" smooth="yes"/>
      <point x="122" y="874" type="line" smooth="yes"/>
      <point x="110" y="883"/>
      <point x="106" y="896" type="qcurve" smooth="yes"/>
      <point x="103" y="910"/>
      <point x="111" y="924" type="qcurve" smooth="yes"/>
      <point x="119" y="936"/>
      <point x="134" y="939" type="qcurve" smooth="yes"/>
      <point x="147" y="942"/>
      <point x="161" y="934" type="qcurve" smooth="yes"/>
      <point x="252" y="875" type="line" smooth="yes"/>
      <point x="264" y="866"/>
      <point x="268" y="852" type="qcurve" smooth="yes"/>
      <point x="271" y="840"/>
      <point x="263" y="826" type="qcurve" smooth="yes"/>
      <point x="256" y="813"/>
      <point x="240" y="810" type="qcurve" smooth="yes"/>
      <point x="227" y="807"/>
    </contour>
    <contour>
      <point x="93" y="722" type="line" smooth="yes"/>
      <point x="78" y="722"/>
      <point x="68" y="732" type="qcurve" smooth="yes"/>
      <point x="57" y="743"/>
      <point x="57" y="758" type="qcurve" smooth="yes"/>
      <point x="57" y="772"/>
      <point x="68" y="783" type="qcurve" smooth="yes"/>
      <point x="77" y="793"/>
      <point x="93" y="793" type="qcurve" smooth="yes"/>
      <point x="212" y="793" type="line"/>
      <point x="215" y="793" type="line"/>
      <point x="217" y="793" type="line"/>
      <point x="332" y="793" type="line" smooth="yes"/>
      <point x="347" y="793"/>
      <point x="367" y="773"/>
      <point x="367" y="758" type="qcurve" smooth="yes"/>
      <point x="367" y="742"/>
      <point x="357" y="732" type="qcurve" smooth="yes"/>
      <point x="346" y="722"/>
      <point x="332" y="722" type="qcurve" smooth="yes"/>
      <point x="250" y="722" type="line"/>
      <point x="250" y="71" type="line"/>
      <point x="332" y="71" type="line" smooth="yes"/>
      <point x="347" y="71"/>
      <point x="367" y="51"/>
      <point x="367" y="36" type="qcurve" smooth="yes"/>
      <point x="367" y="20"/>
      <point x="357" y="10" type="qcurve" smooth="yes"/>
      <point x="346" y="0"/>
      <point x="332" y="0" type="qcurve" smooth="yes"/>
      <point x="93" y="0" type="line" smooth="yes"/>
      <point x="78" y="0"/>
      <point x="68" y="10" type="qcurve" smooth="yes"/>
      <point x="57" y="21"/>
      <point x="57" y="36" type="qcurve" smooth="yes"/>
      <point x="57" y="50"/>
      <point x="68" y="61" type="qcurve" smooth="yes"/>
      <point x="77" y="71"/>
      <point x="93" y="71" type="qcurve" smooth="yes"/>
      <point x="179" y="71" type="line"/>
      <point x="179" y="722" type="line"/>
    </contour>
  </outline>
</glyph>
<glyph name="Iacute" format="2">
  <advance width="424"/>
  <unicode hex="00CD"/>
  <outline>
    <contour>
      <point x="223" y="817" type="line" smooth="yes"/>
      <point x="209" y="809"/>
      <point x="196" y="812" type="qcurve" smooth="yes"/>
      <point x="180" y="815"/>
      <point x="173" y="828" type="qcurve" smooth="yes"/>
      <point x="165" y="842"/>
      <point x="168" y="854" type="qcurve" smooth="yes"/>
      <point x="172" y="868"/>
      <point x="184" y="877" type="qcurve" smooth="yes"/>
      <point x="275" y="936" type="line" smooth="yes"/>
      <point x="289" y="944"/>
      <point x="302" y="941" type="qcurve" smooth="yes"/>
      <point x="317" y="938"/>
      <point x="325" y="926" type="qcurve" smooth="yes"/>
      <point x="333" y="912"/>
      <point x="330" y="898" type="qcurve" smooth="yes"/>
      <point x="327" y="883"/>
      <point x="314" y="876" type="qcurve" smooth="yes"/>
    </contour>
    <contour>
      <point x="93" y="722" type="line" smooth="yes"/>
      <point x="78" y="722"/>
      <point x="68" y="732" type="qcurve" smooth="yes"/>
      <point x="57" y="743"/>
      <point x="57" y="758" type="qcurve" smooth="yes"/>
      <point x="57" y="772"/>
      <point x="68" y="783" type="qcurve" smooth="yes"/>
      <point x="77" y="793"/>
      <point x="93" y="793" type="qcurve" smooth="yes"/>
      <point x="212" y="793" type="line"/>
      <point x="215" y="793" type="line"/>
      <point x="217" y="793" type="line"/>
      <point x="332" y="793" type="line" smooth="yes"/>
      <point x="347" y="793"/>
      <point x="367" y="773"/>
      <point x="367" y="758" type="qcurve" smooth="yes"/>
      <point x="367" y="742"/>
      <point x="357" y="732" type="qcurve" smooth="yes"/>
      <point x="346" y="722"/>
      <point x="332" y="722" type="qcurve" smooth="yes"/>
      <point x="250" y="722" type="line"/>
      <point x="250" y="71" type="line"/>
      <point x="332" y="71" type="line" smooth="yes"/>
      <point x="347" y="71"/>
      <point x="367" y="51"/>
      <point x="367" y="36" type="qcurve" smooth="yes"/>
      <point x="367" y="20"/>
      <point x="357" y="10" type="qcurve" smooth="yes"/>
      <point x="346" y="0"/>
      <point x="332" y="0" type="qcurve" smooth="yes"/>
      <point x="93" y="0" type="line" smooth="yes"/>
      <point x="78" y="0"/>
      <point x="68" y="10" type="qcurve" smooth="yes"/>
      <point x="57" y="21"/>
      <point x="57" y="36" type="qcurve" smooth="yes"/>
      <point x="57" y="50"/>
      <point x="68" y="61" type="qcurve" smooth="yes"/>
      <point x="77" y="71"/>
      <point x="93" y="71" type="qcurve" smooth="yes"/>
      <point x="179" y="71" type="line"/>
      <point x="179" y="722" type="line"/>
    </contour>
  </outline>
</glyph>
<glyph name="Icircumflex" format="2">
  <advance width="424"/>
  <unicode hex="00CE"/>
  <outline>
    <contour>
      <point x="262" y="828" type="qcurve" smooth="yes"/>
      <point x="198" y="873" type="line" smooth="yes"/>
      <point x="185" y="880"/>
      <point x="182" y="894" type="qcurve" smooth="yes"/>
      <point x="177" y="909"/>
      <point x="186" y="922" type="qcurve" smooth="yes"/>
      <point x="191" y="935"/>
      <point x="207" y="939" type="qcurve" smooth="yes"/>
      <point x="218" y="943"/>
      <point x="234" y="935" type="qcurve" smooth="yes"/>
      <point x="298" y="891" type="line" smooth="yes"/>
      <point x="311" y="883"/>
      <point x="315" y="869" type="qcurve" smooth="yes"/>
      <point x="320" y="856"/>
      <point x="312" y="842" type="qcurve" smooth="yes"/>
      <point x="304" y="830"/>
      <point x="290" y="825" type="qcurve" smooth="yes"/>
      <point x="275" y="821"/>
    </contour>
    <contour>
      <point x="167" y="828" type="line" smooth="yes"/>
      <point x="154" y="820"/>
      <point x="140" y="825" type="qcurve" smooth="yes"/>
      <point x="123" y="830"/>
      <point x="118" y="842" type="qcurve" smooth="yes"/>
      <point x="109" y="854"/>
      <point x="114" y="868" type="qcurve" smooth="yes"/>
      <point x="118" y="883"/>
      <point x="131" y="891" type="qcurve" smooth="yes"/>
      <point x="195" y="935" type="line" smooth="yes"/>
      <point x="208" y="942"/>
      <point x="222" y="938" type="qcurve" smooth="yes"/>
      <point x="235" y="935"/>
      <point x="244" y="922" type="qcurve" smooth="yes"/>
      <point x="251" y="907"/>
      <point x="243" y="881"/>
      <point x="230" y="873" type="qcurve" smooth="yes"/>
    </contour>
    <contour>
      <point x="93" y="722" type="line" smooth="yes"/>
      <point x="78" y="722"/>
      <point x="68" y="732" type="qcurve" smooth="yes"/>
      <point x="57" y="743"/>
      <point x="57" y="758" type="qcurve" smooth="yes"/>
      <point x="57" y="772"/>
      <point x="68" y="783" type="qcurve" smooth="yes"/>
      <point x="77" y="793"/>
      <point x="93" y="793" type="qcurve" smooth="yes"/>
      <point x="212" y="793" type="line"/>
      <point x="215" y="793" type="line"/>
      <point x="217" y="793" type="line"/>
      <point x="332" y="793" type="line" smooth="yes"/>
      <point x="347" y="793"/>
      <point x="367" y="773"/>
      <point x="367" y="758" type="qcurve" smooth="yes"/>
      <point x="367" y="742"/>
      <point x="357" y="732" type="qcurve" smooth="yes"/>
      <point x="346" y="722"/>
      <point x="332" y="722" type="qcurve" smooth="yes"/>
      <point x="250" y="722" type="line"/>
      <point x="250" y="71" type="line"/>
      <point x="332" y="71" type="line" smooth="yes"/>
      <point x="347" y="71"/>
      <point x="367" y="51"/>
      <point x="367" y="36" type="qcurve" smooth="yes"/>
      <point x="367" y="20"/>
      <point x="357" y="10" type="qcurve" smooth="yes"/>
      <point x="346" y="0"/>
      <point x="332" y="0" type="qcurve" smooth="yes"/>
      <point x="93" y="0" type="line" smooth="yes"/>
      <point x="78" y="0"/>
      <point x="68" y="10" type="qcurve" smooth="yes"/>
      <point x="57" y="21"/>
      <point x="57" y="36" type="qcurve" smooth="yes"/>
      <point x="57" y="50"/>
      <point x="68" y="61" type="qcurve" smooth="yes"/>
      <point x="77" y="71"/>
      <point x="93" y="71" type="qcurve" smooth="yes"/>
      <point x="179" y="71" type="line"/>
      <point x="179" y="722" type="line"/>
    </contour>
  </outline>
</glyph>
<glyph name="Idieresis" format="2">
  <advance width="424"/>
  <unicode hex="00CF"/>
  <outline>
    <contour>
      <point x="130" y="861" type="line" smooth="yes"/>
      <point x="130" y="854"/>
      <point x="124" y="848" type="qcurve" smooth="yes"/>
      <point x="119" y="843"/>
      <point x="112" y="843" type="qcurve" smooth="yes"/>
      <point x="52" y="843" type="line" smooth="yes"/>
      <point x="45" y="843"/>
      <point x="40" y="848" type="qcurve" smooth="yes"/>
      <point x="34" y="854"/>
      <point x="34" y="861" type="qcurve" smooth="yes"/>
      <point x="34" y="921" type="line" smooth="yes"/>
      <point x="34" y="928"/>
      <point x="40" y="933" type="qcurve" smooth="yes"/>
      <point x="45" y="938"/>
      <point x="52" y="938" type="qcurve" smooth="yes"/>
      <point x="112" y="938" type="line" smooth="yes"/>
      <point x="119" y="938"/>
      <point x="124" y="933" type="qcurve" smooth="yes"/>
      <point x="130" y="928"/>
      <point x="130" y="921" type="qcurve" smooth="yes"/>
    </contour>
    <contour>
      <point x="94" y="879" type="line"/>
      <point x="94" y="903" type="line"/>
      <point x="70" y="903" type="line"/>
      <point x="70" y="879" type="line"/>
    </contour>
    <contour>
      <point x="391" y="861" type="line" smooth="yes"/>
      <point x="391" y="856"/>
      <point x="386" y="848" type="qcurve"/>
      <point x="378" y="843"/>
      <point x="373" y="843" type="qcurve" smooth="yes"/>
      <point x="313" y="843" type="line" smooth="yes"/>
      <point x="308" y="843"/>
      <point x="300" y="848" type="qcurve"/>
      <point x="295" y="856"/>
      <point x="295" y="861" type="qcurve" smooth="yes"/>
      <point x="295" y="920" type="line" smooth="yes"/>
      <point x="295" y="927"/>
      <point x="300" y="932" type="qcurve" smooth="yes"/>
      <point x="306" y="938"/>
      <point x="313" y="938" type="qcurve" smooth="yes"/>
      <point x="373" y="938" type="line" smooth="yes"/>
      <point x="378" y="938"/>
      <point x="386" y="933" type="qcurve" smooth="yes"/>
      <point x="391" y="928"/>
      <point x="391" y="920" type="qcurve" smooth="yes"/>
    </contour>
    <contour>
      <point x="356" y="879" type="line"/>
      <point x="356" y="903" type="line"/>
      <point x="331" y="903" type="line"/>
      <point x="331" y="879" type="line"/>
    </contour>
    <contour>
      <point x="93" y="722" type="line" smooth="yes"/>
      <point x="78" y="722"/>
      <point x="68" y="732" type="qcurve" smooth="yes"/>
      <point x="57" y="743"/>
      <point x="57" y="758" type="qcurve" smooth="yes"/>
      <point x="57" y="772"/>
      <point x="68" y="783" type="qcurve" smooth="yes"/>
      <point x="77" y="793"/>
      <point x="93" y="793" type="qcurve" smooth="yes"/>
      <point x="212" y="793" type="line"/>
      <point x="215" y="793" type="line"/>
      <point x="217" y="793" type="line"/>
      <point x="332" y="793" type="line" smooth="yes"/>
      <point x="347" y="793"/>
      <point x="367" y="773"/>
      <point x="367" y="758" type="qcurve" smooth="yes"/>
      <point x="367" y="742"/>
      <point x="357" y="732" type="qcurve" smooth="yes"/>
      <point x="346" y="722"/>
      <point x="332" y="722" type="qcurve" smooth="yes"/>
      <point x="250" y="722" type="line"/>
      <point x="250" y="71" type="line"/>
      <point x="332" y="71" type="line" smooth="yes"/>
      <point x="347" y="71"/>
      <point x="367" y="51"/>
      <point x="367" y="36" type="qcurve" smooth="yes"/>
      <point x="367" y="20"/>
      <point x="357" y="10" type="qcurve" smooth="yes"/>
      <point x="346" y="0"/>
      <point x="332" y="0" type="qcurve" smooth="yes"/>
      <point x="93" y="0" type="line" smooth="yes"/>
      <point x="78" y="0"/>
      <point x="68" y="10" type="qcurve" smooth="yes"/>
      <point x="57" y="21"/>
      <point x="57" y="36" type="qcurve" smooth="yes"/>
      <point x="57" y="50"/>
      <point x="68" y="61" type="qcurve" smooth="yes"/>
      <point x="77" y="71"/>
      <point x="93" y="71" type="qcurve" smooth="yes"/>
      <point x="179" y="71" type="line"/>
      <point x="179" y="722" type="line"/>
    </contour>
  </outline>
</glyph>
<glyph name="Ntilde" format="2">
  <advance width="674"/>
  <unicode hex="00D1"/>
  <outline>
    <contour>
      <point x="246" y="829" type="line" smooth="yes"/>
      <point x="233" y="823"/>
      <point x="218" y="828" type="qcurve" smooth="yes"/>
      <point x="204" y="831"/>
      <point x="198" y="846" type="qcurve" smooth="yes"/>
      <point x="191" y="855"/>
      <point x="196" y="873" type="qcurve" smooth="yes"/>
      <point x="201" y="887"/>
      <point x="215" y="894" type="qcurve" smooth="yes"/>
      <point x="296" y="933" type="line" smooth="yes"/>
      <point x="312" y="940"/>
      <point x="327" y="933" type="qcurve" smooth="yes"/>
      <point x="393" y="901" type="line"/>
      <point x="459" y="933" type="line" smooth="yes"/>
      <point x="474" y="940"/>
      <point x="486" y="934" type="qcurve" smooth="yes"/>
      <point x="501" y="931"/>
      <point x="508" y="916" type="qcurve" smooth="yes"/>
      <point x="514" y="905"/>
      <point x="509" y="889" type="qcurve" smooth="yes"/>
      <point x="504" y="875"/>
      <point x="491" y="869" type="qcurve" smooth="yes"/>
      <point x="409" y="829" type="line" smooth="yes"/>
      <point x="393" y="822"/>
      <point x="378" y="829" type="qcurve" smooth="yes"/>
      <point x="312" y="861" type="line"/>
    </contour>
    <contour>
      <point x="78" y="0"/>
      <point x="68" y="10" type="qcurve" smooth="yes"/>
      <point x="57" y="21"/>
      <point x="57" y="36" type="qcurve" smooth="yes"/>
      <point x="57" y="757" type="line" smooth="yes"/>
      <point x="57" y="768"/>
      <point x="64" y="778" type="qcurve" smooth="yes"/>
      <point x="73" y="787"/>
      <point x="82" y="791" type="qcurve" smooth="yes"/>
      <point x="109" y="799"/>
      <point x="122" y="777" type="qcurve" smooth="yes"/>
      <point x="546" y="152" type="line"/>
      <point x="546" y="757" type="line" smooth="yes"/>
      <point x="546" y="771"/>
      <point x="556" y="782" type="qcurve" smooth="yes"/>
      <point x="570" y="793"/>
      <point x="582" y="793" type="qcurve" smooth="yes"/>
      <point x="596" y="793"/>
      <point x="607" y="782" type="qcurve" smooth="yes"/>
      <point x="617" y="772"/>
      <point x="617" y="757" type="qcurve" smooth="yes"/>
      <point x="617" y="36" type="line" smooth="yes"/>
      <point x="617" y="25"/>
      <point x="610" y="15" type="qcurve" smooth="yes"/>
      <point x="604" y="5"/>
      <point x="592" y="2" type="qcurve" smooth="yes"/>
      <point x="567" y="-5"/>
      <point x="553" y="16" type="qcurve" smooth="yes"/>
      <point x="129" y="641" type="line"/>
      <point x="129" y="36" type="line" smooth="yes"/>
      <point x="129" y="21"/>
      <point x="118" y="10" type="qcurve" smooth="yes"/>
      <point x="108" y="0"/>
    </contour>
  </outline>
</glyph>
<glyph name="Ograve" format="2">
  <advance width="674"/>
  <unicode hex="00D2"/>
  <outline>
    <contour>
      <point x="357" y="811" type="qcurve" smooth="yes"/>
      <point x="266" y="870" type="line" smooth="yes"/>
      <point x="254" y="879"/>
      <point x="250" y="892" type="qcurve" smooth="yes"/>
      <point x="247" y="906"/>
      <point x="255" y="920" type="qcurve" smooth="yes"/>
      <point x="263" y="932"/>
      <point x="278" y="935" type="qcurve" smooth="yes"/>
      <point x="291" y="938"/>
      <point x="305" y="930" type="qcurve" smooth="yes"/>
      <point x="396" y="871" type="line" smooth="yes"/>
      <point x="408" y="862"/>
      <point x="412" y="848" type="qcurve" smooth="yes"/>
      <point x="415" y="836"/>
      <point x="407" y="822" type="qcurve" smooth="yes"/>
      <point x="400" y="809"/>
      <point x="384" y="806" type="qcurve" smooth="yes"/>
      <point x="371" y="803"/>
    </contour>
    <contour>
      <point x="606" y="129" type="qcurve" smooth="yes"/>
      <point x="487" y="11" type="line" smooth="yes"/>
      <point x="479" y="2"/>
      <point x="462" y="0" type="qcurve" smooth="yes"/>
      <point x="216" y="0" type="line" smooth="yes"/>
      <point x="202" y="0"/>
      <point x="192" y="10" type="qcurve" smooth="yes"/>
      <point x="68" y="128" type="line" smooth="yes"/>
      <point x="57" y="139"/>
      <point x="57" y="154" type="qcurve" smooth="yes"/>
      <point x="57" y="634" type="line" smooth="yes"/>
      <point x="57" y="648"/>
      <point x="68" y="659" type="qcurve" smooth="yes"/>
      <point x="191" y="782" type="line" smooth="yes"/>
      <point x="201" y="792"/>
      <point x="216" y="793" type="qcurve" smooth="yes"/>
      <point x="462" y="793" type="line" smooth="yes"/>
      <point x="476" y="793"/>
      <point x="487" y="782" type="qcurve" smooth="yes"/>
      <point x="557" y="712" type="line" smooth="yes"/>
      <point x="584" y="684"/>
      <point x="607" y="661" type="qcurve" smooth="yes"/>
      <point x="611" y="656"/>
      <point x="614" y="650" type="qcurve" smooth="yes"/>
      <point x="617" y="645"/>
      <point x="617" y="637" type="qcurve" smooth="yes"/>
      <point x="617" y="154" type="line" smooth="yes"/>
      <point x="617" y="148"/>
      <point x="614" y="140" type="qcurve" smooth="yes"/>
      <point x="608" y="131"/>
    </contour>
    <contour>
      <point x="447" y="721" type="line"/>
      <point x="231" y="721" type="line"/>
      <point x="129" y="619" type="line"/>
      <point x="129" y="170" type="line"/>
      <point x="231" y="71" type="line"/>
      <point x="447" y="71" type="line"/>
      <point x="546" y="169" type="line"/>
      <point x="546" y="622" type="line"/>
    </contour>
  </outline>
</glyph>
<glyph name="Oacute" format="2">
  <advance width="674"/>
  <unicode hex="00D3"/>
  <outline>
    <contour>
      <point x="315" y="813" type="line" smooth="yes"/>
      <point x="301" y="805"/>
      <point x="288" y="808" type="qcurve" smooth="yes"/>
      <point x="272" y="811"/>
      <point x="265" y="824" type="qcurve" smooth="yes"/>
      <point x="257" y="838"/>
      <point x="260" y="850" type="qcurve" smooth="yes"/>
      <point x="264" y="864"/>
      <point x="276" y="873" type="qcurve" smooth="yes"/>
      <point x="367" y="932" type="line" smooth="yes"/>
      <point x="381" y="940"/>
      <point x="394" y="937" type="qcurve" smooth="yes"/>
      <point x="409" y="934"/>
      <point x="417" y="922" type="qcurve" smooth="yes"/>
      <point x="425" y="908"/>
      <point x="422" y="894" type="qcurve" smooth="yes"/>
      <point x="419" y="879"/>
      <point x="406" y="872" type="qcurve" smooth="yes"/>
    </contour>
    <contour>
      <point x="606" y="129" type="qcurve" smooth="yes"/>
      <point x="487" y="11" type="line" smooth="yes"/>
      <point x="479" y="2"/>
      <point x="462" y="0" type="qcurve" smooth="yes"/>
      <point x="216" y="0" type="line" smooth="yes"/>
      <point x="202" y="0"/>
      <point x="192" y="10" type="qcurve" smooth="yes"/>
      <point x="68" y="128" type="line" smooth="yes"/>
      <point x="57" y="139"/>
      <point x="57" y="154" type="qcurve" smooth="yes"/>
      <point x="57" y="634" type="line" smooth="yes"/>
      <point x="57" y="648"/>
      <point x="68" y="659" type="qcurve" smooth="yes"/>
      <point x="191" y="782" type="line" smooth="yes"/>
      <point x="201" y="792"/>
      <point x="216" y="793" type="qcurve" smooth="yes"/>
      <point x="462" y="793" type="line" smooth="yes"/>
      <point x="476" y="793"/>
      <point x="487" y="782" type="qcurve" smooth="yes"/>
      <point x="557" y="712" type="line" smooth="yes"/>
      <point x="584" y="684"/>
      <point x="607" y="661" type="qcurve" smooth="yes"/>
      <point x="611" y="656"/>
      <point x="614" y="650" type="qcurve" smooth="yes"/>
      <point x="617" y="645"/>
      <point x="617" y="637" type="qcurve" smooth="yes"/>
      <point x="617" y="154" type="line" smooth="yes"/>
      <point x="617" y="148"/>
      <point x="614" y="140" type="qcurve" smooth="yes"/>
      <point x="608" y="131"/>
    </contour>
    <contour>
      <point x="447" y="721" type="line"/>
      <point x="231" y="721" type="line"/>
      <point x="129" y="619" type="line"/>
      <point x="129" y="170" type="line"/>
      <point x="231" y="71" type="line"/>
      <point x="447" y="71" type="line"/>
      <point x="546" y="169" type="line"/>
      <point x="546" y="622" type="line"/>
    </contour>
  </outline>
</glyph>
<glyph name="Ocircumflex" format="2">
  <advance width="674"/>
  <unicode hex="00D4"/>
  <outline>
    <contour>
      <point x="383" y="821" type="qcurve" smooth="yes"/>
      <point x="319" y="866" type="line" smooth="yes"/>
      <point x="306" y="874"/>
      <point x="302" y="888" type="qcurve" smooth="yes"/>
      <point x="299" y="901"/>
      <point x="306" y="915" type="qcurve" smooth="yes"/>
      <point x="314" y="927"/>
      <point x="328" y="932" type="qcurve" smooth="yes"/>
      <point x="339" y="936"/>
      <point x="355" y="928" type="qcurve" smooth="yes"/>
      <point x="419" y="884" type="line" smooth="yes"/>
      <point x="432" y="876"/>
      <point x="436" y="862" type="qcurve" smooth="yes"/>
      <point x="441" y="847"/>
      <point x="432" y="834" type="qcurve" smooth="yes"/>
      <point x="425" y="822"/>
      <point x="410" y="818" type="qcurve" smooth="yes"/>
      <point x="396" y="814"/>
    </contour>
    <contour>
      <point x="288" y="821" type="line" smooth="yes"/>
      <point x="275" y="814"/>
      <point x="260" y="818" type="qcurve" smooth="yes"/>
      <point x="247" y="822"/>
      <point x="238" y="834" type="qcurve" smooth="yes"/>
      <point x="231" y="849"/>
      <point x="235" y="862" type="qcurve" smooth="yes"/>
      <point x="239" y="876"/>
      <point x="252" y="884" type="qcurve" smooth="yes"/>
      <point x="316" y="928" type="line" smooth="yes"/>
      <point x="329" y="935"/>
      <point x="343" y="932" type="qcurve" smooth="yes"/>
      <point x="359" y="928"/>
      <point x="364" y="915" type="qcurve" smooth="yes"/>
      <point x="373" y="902"/>
      <point x="368" y="888" type="qcurve" smooth="yes"/>
      <point x="364" y="874"/>
      <point x="351" y="866" type="qcurve" smooth="yes"/>
    </contour>
    <contour>
      <point x="606" y="129" type="qcurve" smooth="yes"/>
      <point x="487" y="11" type="line" smooth="yes"/>
      <point x="479" y="2"/>
      <point x="462" y="0" type="qcurve" smooth="yes"/>
      <point x="216" y="0" type="line" smooth="yes"/>
      <point x="202" y="0"/>
      <point x="192" y="10" type="qcurve" smooth="yes"/>
      <point x="68" y="128" type="line" smooth="yes"/>
      <point x="57" y="139"/>
      <point x="57" y="154" type="qcurve" smooth="yes"/>
      <point x="57" y="634" type="line" smooth="yes"/>
      <point x="57" y="648"/>
      <point x="68" y="659" type="qcurve" smooth="yes"/>
      <point x="191" y="782" type="line" smooth="yes"/>
      <point x="201" y="792"/>
      <point x="216" y="793" type="qcurve" smooth="yes"/>
      <point x="462" y="793" type="line" smooth="yes"/>
      <point x="476" y="793"/>
      <point x="487" y="782" type="qcurve" smooth="yes"/>
      <point x="557" y="712" type="line" smooth="yes"/>
      <point x="584" y="684"/>
      <point x="607" y="661" type="qcurve" smooth="yes"/>
      <point x="611" y="656"/>
      <point x="614" y="650" type="qcurve" smooth="yes"/>
      <point x="617" y="645"/>
      <point x="617" y="637" type="qcurve" smooth="yes"/>
      <point x="617" y="154" type="line" smooth="yes"/>
      <point x="617" y="148"/>
      <point x="614" y="140" type="qcurve" smooth="yes"/>
      <point x="608" y="131"/>
    </contour>
    <contour>
      <point x="447" y="721" type="line"/>
      <point x="231" y="721" type="line"/>
      <point x="129" y="619" type="line"/>
      <point x="129" y="170" type="line"/>
      <point x="231" y="71" type="line"/>
      <point x="447" y="71" type="line"/>
      <point x="546" y="169" type="line"/>
      <point x="546" y="622" type="line"/>
    </contour>
  </outline>
</glyph>
<glyph name="Otilde" format="2">
  <advance width="674"/>
  <unicode hex="00D5"/>
  <outline>
    <contour>
      <point x="233" y="829" type="line" smooth="yes"/>
      <point x="218" y="822"/>
      <point x="206" y="828" type="qcurve" smooth="yes"/>
      <point x="191" y="831"/>
      <point x="184" y="846" type="qcurve" smooth="yes"/>
      <point x="178" y="857"/>
      <point x="183" y="873" type="qcurve" smooth="yes"/>
      <point x="188" y="887"/>
      <point x="202" y="894" type="qcurve" smooth="yes"/>
      <point x="283" y="933" type="line" smooth="yes"/>
      <point x="299" y="940"/>
      <point x="314" y="933" type="qcurve" smooth="yes"/>
      <point x="380" y="901" type="line"/>
      <point x="446" y="933" type="line" smooth="yes"/>
      <point x="459" y="939"/>
      <point x="474" y="934" type="qcurve" smooth="yes"/>
      <point x="488" y="931"/>
      <point x="494" y="916" type="qcurve" smooth="yes"/>
      <point x="501" y="907"/>
      <point x="496" y="889" type="qcurve" smooth="yes"/>
      <point x="491" y="875"/>
      <point x="478" y="869" type="qcurve" smooth="yes"/>
      <point x="396" y="829" type="line" smooth="yes"/>
      <point x="380" y="822"/>
      <point x="365" y="829" type="qcurve" smooth="yes"/>
      <point x="299" y="861" type="line"/>
    </contour>
    <contour>
      <point x="606" y="129" type="qcurve" smooth="yes"/>
      <point x="487" y="11" type="line" smooth="yes"/>
      <point x="479" y="2"/>
      <point x="462" y="0" type="qcurve" smooth="yes"/>
      <point x="216" y="0" type="line" smooth="yes"/>
      <point x="202" y="0"/>
      <point x="192" y="10" type="qcurve" smooth="yes"/>
      <point x="68" y="128" type="line" smooth="yes"/>
      <point x="57" y="139"/>
      <point x="57" y="154" type="qcurve" smooth="yes"/>
      <point x="57" y="634" type="line" smooth="yes"/>
      <point x="57" y="648"/>
      <point x="68" y="659" type="qcurve" smooth="yes"/>
      <point x="191" y="782" type="line" smooth="yes"/>
      <point x="201" y="792"/>
      <point x="216" y="793" type="qcurve" smooth="yes"/>
      <point x="462" y="793" type="line" smooth="yes"/>
      <point x="476" y="793"/>
      <point x="487" y="782" type="qcurve" smooth="yes"/>
      <point x="557" y="712" type="line" smooth="yes"/>
      <point x="584" y="684"/>
      <point x="607" y="661" type="qcurve" smooth="yes"/>
      <point x="611" y="656"/>
      <point x="614" y="650" type="qcurve" smooth="yes"/>
      <point x="617" y="645"/>
      <point x="617" y="637" type="qcurve" smooth="yes"/>
      <point x="617" y="154" type="line" smooth="yes"/>
      <point x="617" y="148"/>
      <point x="614" y="140" type="qcurve" smooth="yes"/>
      <point x="608" y="131"/>
    </contour>
    <contour>
      <point x="447" y="721" type="line"/>
      <point x="231" y="721" type="line"/>
      <point x="129" y="619" type="line"/>
      <point x="129" y="170" type="line"/>
      <point x="231" y="71" type="line"/>
      <point x="447" y="71" type="line"/>
      <point x="546" y="169" type="line"/>
      <point x="546" y="622" type="line"/>
    </contour>
  </outline>
</glyph>
<glyph name="Odieresis" format="2">
  <advance width="674"/>
  <unicode hex="00D6"/>
  <outline>
    <contour>
      <point x="257" y="857" type="line" smooth="yes"/>
      <point x="257" y="852"/>
      <point x="252" y="844" type="qcurve"/>
      <point x="244" y="839"/>
      <point x="239" y="839" type="qcurve" smooth="yes"/>
      <point x="179" y="839" type="line" smooth="yes"/>
      <point x="174" y="839"/>
      <point x="166" y="844" type="qcurve"/>
      <point x="161" y="852"/>
      <point x="161" y="857" type="qcurve" smooth="yes"/>
      <point x="161" y="917" type="line" smooth="yes"/>
      <point x="161" y="924"/>
      <point x="166" y="929" type="qcurve" smooth="yes"/>
      <point x="174" y="934"/>
      <point x="179" y="934" type="qcurve" smooth="yes"/>
      <point x="239" y="934" type="line" smooth="yes"/>
      <point x="244" y="934"/>
      <point x="252" y="929" type="qcurve" smooth="yes"/>
      <point x="257" y="924"/>
      <point x="257" y="917" type="qcurve" smooth="yes"/>
    </contour>
    <contour>
      <point x="221" y="875" type="line"/>
      <point x="221" y="899" type="line"/>
      <point x="197" y="899" type="line"/>
      <point x="197" y="875" type="line"/>
    </contour>
    <contour>
      <point x="518" y="857" type="line" smooth="yes"/>
      <point x="518" y="850"/>
      <point x="512" y="844" type="qcurve" smooth="yes"/>
      <point x="507" y="839"/>
      <point x="500" y="839" type="qcurve" smooth="yes"/>
      <point x="440" y="839" type="line" smooth="yes"/>
      <point x="433" y="839"/>
      <point x="428" y="844" type="qcurve" smooth="yes"/>
      <point x="422" y="850"/>
      <point x="422" y="857" type="qcurve" smooth="yes"/>
      <point x="422" y="916" type="line" smooth="yes"/>
      <point x="422" y="924"/>
      <point x="428" y="928" type="qcurve" smooth="yes"/>
      <point x="432" y="934"/>
      <point x="440" y="934" type="qcurve" smooth="yes"/>
      <point x="500" y="934" type="line" smooth="yes"/>
      <point x="507" y="934"/>
      <point x="512" y="929" type="qcurve" smooth="yes"/>
      <point x="518" y="924"/>
      <point x="518" y="916" type="qcurve" smooth="yes"/>
    </contour>
    <contour>
      <point x="483" y="875" type="line"/>
      <point x="483" y="899" type="line"/>
      <point x="458" y="899" type="line"/>
      <point x="458" y="875" type="line"/>
    </contour>
    <contour>
      <point x="606" y="129" type="qcurve" smooth="yes"/>
      <point x="487" y="11" type="line" smooth="yes"/>
      <point x="479" y="2"/>
      <point x="462" y="0" type="qcurve" smooth="yes"/>
      <point x="216" y="0" type="line" smooth="yes"/>
      <point x="202" y="0"/>
      <point x="192" y="10" type="qcurve" smooth="yes"/>
      <point x="68" y="128" type="line" smooth="yes"/>
      <point x="57" y="139"/>
      <point x="57" y="154" type="qcurve" smooth="yes"/>
      <point x="57" y="634" type="line" smooth="yes"/>
      <point x="57" y="648"/>
      <point x="68" y="659" type="qcurve" smooth="yes"/>
      <point x="191" y="782" type="line" smooth="yes"/>
      <point x="201" y="792"/>
      <point x="216" y="793" type="qcurve" smooth="yes"/>
      <point x="462" y="793" type="line" smooth="yes"/>
      <point x="476" y="793"/>
      <point x="487" y="782" type="qcurve" smooth="yes"/>
      <point x="557" y="712" type="line" smooth="yes"/>
      <point x="584" y="684"/>
      <point x="607" y="661" type="qcurve" smooth="yes"/>
      <point x="611" y="656"/>
      <point x="614" y="650" type="qcurve" smooth="yes"/>
      <point x="617" y="645"/>
      <point x="617" y="637" type="qcurve" smooth="yes"/>
      <point x="617" y="154" type="line" smooth="yes"/>
      <point x="617" y="148"/>
      <point x="614" y="140" type="qcurve" smooth="yes"/>
      <point x="608" y="131"/>
    </contour>
    <contour>
      <point x="447" y="721" type="line"/>
      <point x="231" y="721" type="line"/>
      <point x="129" y="619" type="line"/>
      <point x="129" y="170" type="line"/>
      <point x="231" y="71" type="line"/>
      <point x="447" y="71" type="line"/>
      <point x="546" y="169" type="line"/>
      <point x="546" y="622" type="line"/>
    </contour>
  </outline>
</glyph>
<glyph name="multiply" format="2">
  <advance width="439"/>
  <unicode hex="00D7"/>
  <outline>
    <contour>
      <point x="90" y="543" type="line" smooth="yes"/>
      <point x="80" y="553"/>
      <point x="80" y="583"/>
      <point x="90" y="592" type="qcurve" smooth="yes"/>
      <point x="101" y="603"/>
      <point x="114" y="603" type="qcurve" smooth="yes"/>
      <point x="128" y="603"/>
      <point x="139" y="592" type="qcurve" smooth="yes"/>
      <point x="381" y="351" type="line" smooth="yes"/>
      <point x="391" y="341"/>
      <point x="391" y="326" type="qcurve" smooth="yes"/>
      <point x="391" y="310"/>
      <point x="380" y="302" type="qcurve"/>
      <point x="372" y="291"/>
      <point x="356" y="291" type="qcurve" smooth="yes"/>
      <point x="341" y="291"/>
      <point x="331" y="301" type="qcurve" smooth="yes"/>
    </contour>
    <contour>
      <point x="139" y="302" type="line" smooth="yes"/>
      <point x="129" y="292"/>
      <point x="114" y="292" type="qcurve" smooth="yes"/>
      <point x="99" y="290"/>
      <point x="90" y="302" type="qcurve"/>
      <point x="79" y="310"/>
      <point x="79" y="326" type="qcurve" smooth="yes"/>
      <point x="79" y="340"/>
      <point x="90" y="351" type="qcurve" smooth="yes"/>
      <point x="331" y="593" type="line" smooth="yes"/>
      <point x="341" y="603"/>
      <point x="356" y="603" type="qcurve" smooth="yes"/>
      <point x="372" y="603"/>
      <point x="380" y="592" type="qcurve"/>
      <point x="391" y="584"/>
      <point x="391" y="568" type="qcurve" smooth="yes"/>
      <point x="391" y="554"/>
      <point x="380" y="543" type="qcurve" smooth="yes"/>
    </contour>
  </outline>
</glyph>
<glyph name="Oslash" format="2">
  <advance width="865"/>
  <unicode hex="00D8"/>
  <outline>
    <contour>
      <point x="192" y="109" type="line"/>
      <point x="93" y="10" type="line" smooth="yes"/>
      <point x="83" y="0"/>
      <point x="55" y="0"/>
      <point x="46" y="10" type="qcurve" smooth="yes"/>
      <point x="36" y="20"/>
      <point x="36" y="33" type="qcurve" smooth="yes"/>
      <point x="36" y="47"/>
      <point x="46" y="57" type="qcurve" smooth="yes"/>
      <point x="156" y="167" type="line"/>
      <point x="156" y="640" type="line" smooth="yes"/>
      <point x="156" y="654"/>
      <point x="166" y="664" type="qcurve" smooth="yes"/>
      <point x="286" y="782" type="line" smooth="yes"/>
      <point x="296" y="791"/>
      <point x="310" y="791" type="qcurve" smooth="yes"/>
      <point x="543" y="791" type="line" smooth="yes"/>
      <point x="556" y="791"/>
      <point x="566" y="782" type="qcurve" smooth="yes"/>
      <point x="673" y="684" type="line"/>
      <point x="771" y="781" type="line" smooth="yes"/>
      <point x="781" y="791"/>
      <point x="794" y="791" type="qcurve" smooth="yes"/>
      <point x="808" y="791"/>
      <point x="828" y="771"/>
      <point x="828" y="757" type="qcurve" smooth="yes"/>
      <point x="828" y="744"/>
      <point x="818" y="734" type="qcurve" smooth="yes"/>
      <point x="704" y="621" type="line"/>
      <point x="704" y="162" type="line" smooth="yes"/>
      <point x="704" y="148"/>
      <point x="695" y="138" type="qcurve" smooth="yes"/>
      <point x="567" y="10" type="line" smooth="yes"/>
      <point x="557" y="0"/>
      <point x="543" y="0" type="qcurve" smooth="yes"/>
      <point x="310" y="0" type="line" smooth="yes"/>
      <point x="296" y="0"/>
      <point x="285" y="11" type="qcurve" smooth="yes"/>
    </contour>
    <contour>
      <point x="626" y="637" type="line"/>
      <point x="531" y="724" type="line"/>
      <point x="323" y="724" type="line"/>
      <point x="222" y="626" type="line"/>
      <point x="222" y="234" type="line"/>
    </contour>
    <contour>
      <point x="239" y="157" type="line"/>
      <point x="324" y="67" type="line"/>
      <point x="530" y="67" type="line"/>
      <point x="638" y="175" type="line"/>
      <point x="638" y="554" type="line"/>
    </contour>
  </outline>
</glyph>
<glyph name="Ugrave" format="2">
  <advance width="674"/>
  <unicode hex="00D9"/>
  <outline>
    <contour>
      <point x="361" y="813" type="qcurve" smooth="yes"/>
      <point x="270" y="872" type="line" smooth="yes"/>
      <point x="258" y="881"/>
      <point x="254" y="894" type="qcurve" smooth="yes"/>
      <point x="251" y="908"/>
      <point x="259" y="922" type="qcurve" smooth="yes"/>
      <point x="267" y="934"/>
      <point x="282" y="937" type="qcurve" smooth="yes"/>
      <point x="295" y="940"/>
      <point x="309" y="932" type="qcurve" smooth="yes"/>
      <point x="400" y="873" type="line" smooth="yes"/>
      <point x="412" y="864"/>
      <point x="416" y="850" type="qcurve" smooth="yes"/>
      <point x="419" y="838"/>
      <point x="411" y="824" type="qcurve" smooth="yes"/>
      <point x="404" y="811"/>
      <point x="388" y="808" type="qcurve" smooth="yes"/>
      <point x="375" y="805"/>
    </contour>
    <contour>
      <point x="607" y="129" type="qcurve" smooth="yes"/>
      <point x="487" y="10" type="line" smooth="yes"/>
      <point x="477" y="0"/>
      <point x="462" y="0" type="qcurve" smooth="yes"/>
      <point x="214" y="0" type="line" smooth="yes"/>
      <point x="199" y="0"/>
      <point x="189" y="10" type="qcurve" smooth="yes"/>
      <point x="68" y="129" type="line" smooth="yes"/>
      <point x="57" y="140"/>
      <point x="57" y="154" type="qcurve" smooth="yes"/>
      <point x="57" y="757" type="line" smooth="yes"/>
      <point x="57" y="774"/>
      <point x="68" y="782" type="qcurve"/>
      <point x="76" y="793"/>
      <point x="110" y="793"/>
      <point x="118" y="782" type="qcurve"/>
      <point x="129" y="774"/>
      <point x="129" y="757" type="qcurve" smooth="yes"/>
      <point x="129" y="169" type="line"/>
      <point x="228" y="71" type="line"/>
      <point x="448" y="71" type="line"/>
      <point x="546" y="169" type="line"/>
      <point x="546" y="757" type="line" smooth="yes"/>
      <point x="546" y="772"/>
      <point x="556" y="782" type="qcurve" smooth="yes"/>
      <point x="567" y="793"/>
      <point x="582" y="793" type="qcurve" smooth="yes"/>
      <point x="596" y="793"/>
      <point x="607" y="782" type="qcurve" smooth="yes"/>
      <point x="617" y="773"/>
      <point x="617" y="757" type="qcurve" smooth="yes"/>
      <point x="617" y="154" type="line" smooth="yes"/>
      <point x="617" y="146"/>
      <point x="614" y="140" type="qcurve" smooth="yes"/>
      <point x="612" y="134"/>
    </contour>
  </outline>
</glyph>
<glyph name="Uacute" format="2">
  <advance width="674"/>
  <unicode hex="00DA"/>
  <outline>
    <contour>
      <point x="330" y="812" type="line" smooth="yes"/>
      <point x="316" y="804"/>
      <point x="303" y="807" type="qcurve" smooth="yes"/>
      <point x="288" y="810"/>
      <point x="280" y="822" type="qcurve" smooth="yes"/>
      <point x="272" y="837"/>
      <point x="276" y="850" type="qcurve" smooth="yes"/>
      <point x="279" y="864"/>
      <point x="291" y="872" type="qcurve" smooth="yes"/>
      <point x="382" y="931" type="line" smooth="yes"/>
      <point x="396" y="939"/>
      <point x="409" y="936" type="qcurve" smooth="yes"/>
      <point x="425" y="933"/>
      <point x="432" y="920" type="qcurve" smooth="yes"/>
      <point x="440" y="906"/>
      <point x="437" y="894" type="qcurve" smooth="yes"/>
      <point x="434" y="878"/>
      <point x="421" y="871" type="qcurve" smooth="yes"/>
    </contour>
    <contour>
      <point x="607" y="129" type="qcurve" smooth="yes"/>
      <point x="487" y="10" type="line" smooth="yes"/>
      <point x="477" y="0"/>
      <point x="462" y="0" type="qcurve" smooth="yes"/>
      <point x="214" y="0" type="line" smooth="yes"/>
      <point x="199" y="0"/>
      <point x="189" y="10" type="qcurve" smooth="yes"/>
      <point x="68" y="129" type="line" smooth="yes"/>
      <point x="57" y="140"/>
      <point x="57" y="154" type="qcurve" smooth="yes"/>
      <point x="57" y="757" type="line" smooth="yes"/>
      <point x="57" y="774"/>
      <point x="68" y="782" type="qcurve"/>
      <point x="76" y="793"/>
      <point x="110" y="793"/>
      <point x="118" y="782" type="qcurve"/>
      <point x="129" y="774"/>
      <point x="129" y="757" type="qcurve" smooth="yes"/>
      <point x="129" y="169" type="line"/>
      <point x="228" y="71" type="line"/>
      <point x="448" y="71" type="line"/>
      <point x="546" y="169" type="line"/>
      <point x="546" y="757" type="line" smooth="yes"/>
      <point x="546" y="772"/>
      <point x="556" y="782" type="qcurve" smooth="yes"/>
      <point x="567" y="793"/>
      <point x="582" y="793" type="qcurve" smooth="yes"/>
      <point x="596" y="793"/>
      <point x="607" y="782" type="qcurve" smooth="yes"/>
      <point x="617" y="773"/>
      <point x="617" y="757" type="qcurve" smooth="yes"/>
      <point x="617" y="154" type="line" smooth="yes"/>
      <point x="617" y="146"/>
      <point x="614" y="140" type="qcurve" smooth="yes"/>
      <point x="612" y="134"/>
    </contour>
  </outline>
</glyph>
<glyph name="Ucircumflex" format="2">
  <advance width="674"/>
  <unicode hex="00DB"/>
  <outline>
    <contour>
      <point x="385" y="826" type="qcurve" smooth="yes"/>
      <point x="321" y="871" type="line" smooth="yes"/>
      <point x="308" y="879"/>
      <point x="304" y="892" type="qcurve" smooth="yes"/>
      <point x="301" y="906"/>
      <point x="308" y="920" type="qcurve" smooth="yes"/>
      <point x="316" y="932"/>
      <point x="330" y="937" type="qcurve" smooth="yes"/>
      <point x="341" y="941"/>
      <point x="357" y="933" type="qcurve" smooth="yes"/>
      <point x="421" y="889" type="line" smooth="yes"/>
      <point x="434" y="881"/>
      <point x="438" y="867" type="qcurve" smooth="yes"/>
      <point x="443" y="852"/>
      <point x="434" y="840" type="qcurve" smooth="yes"/>
      <point x="429" y="828"/>
      <point x="412" y="823" type="qcurve" smooth="yes"/>
      <point x="398" y="818"/>
    </contour>
    <contour>
      <point x="290" y="826" type="line" smooth="yes"/>
      <point x="277" y="819"/>
      <point x="262" y="823" type="qcurve" smooth="yes"/>
      <point x="248" y="828"/>
      <point x="240" y="840" type="qcurve" smooth="yes"/>
      <point x="232" y="854"/>
      <point x="237" y="866" type="qcurve" smooth="yes"/>
      <point x="241" y="881"/>
      <point x="254" y="889" type="qcurve" smooth="yes"/>
      <point x="318" y="933" type="line" smooth="yes"/>
      <point x="332" y="940"/>
      <point x="345" y="936" type="qcurve" smooth="yes"/>
      <point x="360" y="933"/>
      <point x="366" y="920" type="qcurve" smooth="yes"/>
      <point x="375" y="907"/>
      <point x="370" y="892" type="qcurve" smooth="yes"/>
      <point x="366" y="879"/>
      <point x="353" y="871" type="qcurve" smooth="yes"/>
    </contour>
    <contour>
      <point x="607" y="129" type="qcurve" smooth="yes"/>
      <point x="487" y="10" type="line" smooth="yes"/>
      <point x="477" y="0"/>
      <point x="462" y="0" type="qcurve" smooth="yes"/>
      <point x="214" y="0" type="line" smooth="yes"/>
      <point x="199" y="0"/>
      <point x="189" y="10" type="qcurve" smooth="yes"/>
      <point x="68" y="129" type="line" smooth="yes"/>
      <point x="57" y="140"/>
      <point x="57" y="154" type="qcurve" smooth="yes"/>
      <point x="57" y="757" type="line" smooth="yes"/>
      <point x="57" y="774"/>
      <point x="68" y="782" type="qcurve"/>
      <point x="76" y="793"/>
      <point x="110" y="793"/>
      <point x="118" y="782" type="qcurve"/>
      <point x="129" y="774"/>
      <point x="129" y="757" type="qcurve" smooth="yes"/>
      <point x="129" y="169" type="line"/>
      <point x="228" y="71" type="line"/>
      <point x="448" y="71" type="line"/>
      <point x="546" y="169" type="line"/>
      <point x="546" y="757" type="line" smooth="yes"/>
      <point x="546" y="772"/>
      <point x="556" y="782" type="qcurve" smooth="yes"/>
      <point x="567" y="793"/>
      <point x="582" y="793" type="qcurve" smooth="yes"/>
      <point x="596" y="793"/>
      <point x="607" y="782" type="qcurve" smooth="yes"/>
      <point x="617" y="773"/>
      <point x="617" y="757" type="qcurve" smooth="yes"/>
      <point x="617" y="154" type="line" smooth="yes"/>
      <point x="617" y="146"/>
      <point x="614" y="140" type="qcurve" smooth="yes"/>
      <point x="612" y="134"/>
    </contour>
  </outline>
</glyph>
<glyph name="Udieresis" format="2">
  <advance width="674"/>
  <unicode hex="00DC"/>
  <outline>
    <contour>
      <point x="261" y="859" type="line" smooth="yes"/>
      <point x="261" y="854"/>
      <point x="256" y="846" type="qcurve"/>
      <point x="248" y="841"/>
      <point x="243" y="841" type="qcurve" smooth="yes"/>
      <point x="183" y="841" type="line" smooth="yes"/>
      <point x="178" y="841"/>
      <point x="170" y="846" type="qcurve"/>
      <point x="165" y="854"/>
      <point x="165" y="859" type="qcurve" smooth="yes"/>
      <point x="165" y="919" type="line" smooth="yes"/>
      <point x="165" y="926"/>
      <point x="170" y="931" type="qcurve" smooth="yes"/>
      <point x="178" y="936"/>
      <point x="183" y="936" type="qcurve" smooth="yes"/>
      <point x="243" y="936" type="line" smooth="yes"/>
      <point x="248" y="936"/>
      <point x="256" y="931" type="qcurve" smooth="yes"/>
      <point x="261" y="926"/>
      <point x="261" y="919" type="qcurve" smooth="yes"/>
    </contour>
    <contour>
      <point x="225" y="877" type="line"/>
      <point x="225" y="901" type="line"/>
      <point x="201" y="901" type="line"/>
      <point x="201" y="877" type="line"/>
    </contour>
    <contour>
      <point x="522" y="859" type="line" smooth="yes"/>
      <point x="522" y="852"/>
      <point x="516" y="846" type="qcurve" smooth="yes"/>
      <point x="511" y="841"/>
      <point x="504" y="841" type="qcurve" smooth="yes"/>
      <point x="444" y="841" type="line" smooth="yes"/>
      <point x="437" y="841"/>
      <point x="432" y="846" type="qcurve" smooth="yes"/>
      <point x="426" y="852"/>
      <point x="426" y="859" type="qcurve" smooth="yes"/>
      <point x="426" y="918" type="line" smooth="yes"/>
      <point x="426" y="926"/>
      <point x="432" y="930" type="qcurve" smooth="yes"/>
      <point x="436" y="936"/>
      <point x="444" y="936" type="qcurve" smooth="yes"/>
      <point x="504" y="936" type="line" smooth="yes"/>
      <point x="511" y="936"/>
      <point x="516" y="931" type="qcurve" smooth="yes"/>
      <point x="522" y="926"/>
      <point x="522" y="918" type="qcurve" smooth="yes"/>
    </contour>
    <contour>
      <point x="487" y="877" type="line"/>
      <point x="487" y="901" type="line"/>
      <point x="462" y="901" type="line"/>
      <point x="462" y="877" type="line"/>
    </contour>
    <contour>
      <point x="607" y="129" type="qcurve" smooth="yes"/>
      <point x="487" y="10" type="line" smooth="yes"/>
      <point x="477" y="0"/>
      <point x="462" y="0" type="qcurve" smooth="yes"/>
      <point x="214" y="0" type="line" smooth="yes"/>
      <point x="199" y="0"/>
      <point x="189" y="10" type="qcurve" smooth="yes"/>
      <point x="68" y="129" type="line" smooth="yes"/>
      <point x="57" y="140"/>
      <point x="57" y="154" type="qcurve" smooth="yes"/>
      <point x="57" y="757" type="line" smooth="yes"/>
      <point x="57" y="774"/>
      <point x="68" y="782" type="qcurve"/>
      <point x="76" y="793"/>
      <point x="110" y="793"/>
      <point x="118" y="782" type="qcurve"/>
      <point x="129" y="774"/>
      <point x="129" y="757" type="qcurve" smooth="yes"/>
      <point x="129" y="169" type="line"/>
      <point x="228" y="71" type="line"/>
      <point x="448" y="71" type="line"/>
      <point x="546" y="169" type="line"/>
      <point x="546" y="757" type="line" smooth="yes"/>
      <point x="546" y="772"/>
      <point x="556" y="782" type="qcurve" smooth="yes"/>
      <point x="567" y="793"/>
      <point x="582" y="793" type="qcurve" smooth="yes"/>
      <point x="596" y="793"/>
      <point x="607" y="782" type="qcurve" smooth="yes"/>
      <point x="617" y="773"/>
      <point x="617" y="757" type="qcurve" smooth="yes"/>
      <point x="617" y="154" type="line" smooth="yes"/>
      <point x="617" y="146"/>
      <point x="614" y="140" type="qcurve" smooth="yes"/>
      <point x="612" y="134"/>
    </contour>
  </outline>
</glyph>
<glyph name="Yacute" format="2">
  <advance width="674"/>
  <unicode hex="00DD"/>
  <outline>
    <contour>
      <point x="340" y="811" type="line" smooth="yes"/>
      <point x="326" y="803"/>
      <point x="313" y="806" type="qcurve" smooth="yes"/>
      <point x="298" y="809"/>
      <point x="290" y="821" type="qcurve" smooth="yes"/>
      <point x="282" y="836"/>
      <point x="286" y="849" type="qcurve" smooth="yes"/>
      <point x="289" y="863"/>
      <point x="301" y="871" type="qcurve" smooth="yes"/>
      <point x="392" y="930" type="line" smooth="yes"/>
      <point x="406" y="938"/>
      <point x="419" y="935" type="qcurve" smooth="yes"/>
      <point x="435" y="932"/>
      <point x="442" y="919" type="qcurve" smooth="yes"/>
      <point x="450" y="905"/>
      <point x="447" y="893" type="qcurve" smooth="yes"/>
      <point x="444" y="877"/>
      <point x="431" y="870" type="qcurve" smooth="yes"/>
    </contour>
    <contour>
      <point x="68" y="613" type="line" smooth="yes"/>
      <point x="57" y="624"/>
      <point x="57" y="638" type="qcurve" smooth="yes"/>
      <point x="57" y="757" type="line" smooth="yes"/>
      <point x="57" y="771"/>
      <point x="68" y="782" type="qcurve" smooth="yes"/>
      <point x="78" y="792"/>
      <point x="110" y="792"/>
      <point x="118" y="781" type="qcurve"/>
      <point x="129" y="773"/>
      <point x="129" y="757" type="qcurve" smooth="yes"/>
      <point x="129" y="653" type="line"/>
      <point x="337" y="448" type="line"/>
      <point x="545" y="656" type="line"/>
      <point x="545" y="757" type="line" smooth="yes"/>
      <point x="545" y="773"/>
      <point x="556" y="781" type="qcurve"/>
      <point x="564" y="792"/>
      <point x="581" y="792" type="qcurve" smooth="yes"/>
      <point x="597" y="792"/>
      <point x="606" y="782" type="qcurve" smooth="yes"/>
      <point x="617" y="771"/>
      <point x="617" y="757" type="qcurve" smooth="yes"/>
      <point x="617" y="642" type="line" smooth="yes"/>
      <point x="617" y="627"/>
      <point x="607" y="617" type="qcurve" smooth="yes"/>
      <point x="373" y="383" type="line"/>
      <point x="373" y="36" type="line" smooth="yes"/>
      <point x="373" y="19"/>
      <point x="362" y="11" type="qcurve"/>
      <point x="354" y="0"/>
      <point x="320" y="0"/>
      <point x="312" y="11" type="qcurve"/>
      <point x="301" y="19"/>
      <point x="301" y="36" type="qcurve" smooth="yes"/>
      <point x="301" y="383" type="line"/>
    </contour>
  </outline>
</glyph>
<glyph name="Thorn" format="2">
  <advance width="675"/>
  <unicode hex="00DE"/>
  <outline>
    <contour>
      <point x="134" y="149" type="line"/>
      <point x="134" y="36" type="line" smooth="yes"/>
      <point x="134" y="21"/>
      <point x="124" y="11" type="qcurve" smooth="yes"/>
      <point x="113" y="0"/>
      <point x="98" y="0" type="qcurve" smooth="yes"/>
      <point x="82" y="0"/>
      <point x="74" y="11" type="qcurve"/>
      <point x="63" y="19"/>
      <point x="63" y="36" type="qcurve" smooth="yes"/>
      <point x="63" y="756" type="line" smooth="yes"/>
      <point x="63" y="773"/>
      <point x="74" y="781" type="qcurve"/>
      <point x="82" y="792"/>
      <point x="98" y="792" type="qcurve" smooth="yes"/>
      <point x="113" y="792"/>
      <point x="124" y="781" type="qcurve" smooth="yes"/>
      <point x="134" y="771"/>
      <point x="134" y="756" type="qcurve" smooth="yes"/>
      <point x="134" y="702" type="line"/>
      <point x="464" y="702" type="line" smooth="yes"/>
      <point x="479" y="702"/>
      <point x="489" y="692" type="qcurve" smooth="yes"/>
      <point x="610" y="571" type="line" smooth="yes"/>
      <point x="620" y="561"/>
      <point x="620" y="546" type="qcurve" smooth="yes"/>
      <point x="620" y="306" type="line" smooth="yes"/>
      <point x="620" y="290"/>
      <point x="610" y="280" type="qcurve" smooth="yes"/>
      <point x="489" y="160" type="line" smooth="yes"/>
      <point x="479" y="150"/>
      <point x="464" y="149" type="qcurve" smooth="yes"/>
    </contour>
    <contour>
      <point x="134" y="631" type="line"/>
      <point x="134" y="220" type="line"/>
      <point x="449" y="220" type="line"/>
      <point x="549" y="320" type="line"/>
      <point x="549" y="531" type="line"/>
      <point x="449" y="631" type="line"/>
    </contour>
  </outline>
</glyph>
<glyph name="germandbls" format="2">
  <advance width="575"/>
  <unicode hex="00DF"/>
  <outline>
    <contour>
      <point x="309" y="720" type="line"/>
      <point x="225" y="720" type="line"/>
      <point x="129" y="618" type="line"/>
      <point x="129" y="-78" type="line" smooth="yes"/>
      <point x="129" y="-92"/>
      <point x="118" y="-103" type="qcurve" smooth="yes"/>
      <point x="109" y="-113"/>
      <point x="79" y="-113"/>
      <point x="68" y="-102" type="qcurve" smooth="yes"/>
      <point x="58" y="-92"/>
      <point x="58" y="-78" type="qcurve" smooth="yes"/>
      <point x="58" y="632" type="line" smooth="yes"/>
      <point x="58" y="647"/>
      <point x="68" y="657" type="qcurve" smooth="yes"/>
      <point x="184" y="780" type="line" smooth="yes"/>
      <point x="195" y="791"/>
      <point x="210" y="791" type="qcurve" smooth="yes"/>
      <point x="315" y="791" type="line"/>
      <point x="336" y="797"/>
      <point x="352" y="782" type="qcurve" smooth="yes"/>
      <point x="465" y="669" type="line" smooth="yes"/>
      <point x="468" y="666"/>
      <point x="470" y="662" type="qcurve" smooth="yes"/>
      <point x="479" y="652"/>
      <point x="479" y="638" type="qcurve" smooth="yes"/>
      <point x="479" y="531" type="line" smooth="yes"/>
      <point x="479" y="515"/>
      <point x="468" y="504" type="qcurve" smooth="yes"/>
      <point x="361" y="397" type="line"/>
      <point x="508" y="307" type="line" smooth="yes"/>
      <point x="525" y="296"/>
      <point x="525" y="277" type="qcurve" smooth="yes"/>
      <point x="525" y="35" type="line" smooth="yes"/>
      <point x="525" y="21"/>
      <point x="514" y="10" type="qcurve" smooth="yes"/>
      <point x="505" y="0"/>
      <point x="489" y="0" type="qcurve" smooth="yes"/>
      <point x="220" y="0" type="line" smooth="yes"/>
      <point x="206" y="0"/>
      <point x="195" y="10" type="qcurve" smooth="yes"/>
      <point x="185" y="20"/>
      <point x="185" y="36" type="qcurve" smooth="yes"/>
      <point x="185" y="51"/>
      <point x="195" y="60" type="qcurve" smooth="yes"/>
      <point x="206" y="71"/>
      <point x="220" y="71" type="qcurve" smooth="yes"/>
      <point x="454" y="71" type="line"/>
      <point x="454" y="257" type="line"/>
      <point x="294" y="356" type="line" smooth="yes"/>
      <point x="284" y="359"/>
      <point x="277" y="365" type="qcurve" smooth="yes"/>
      <point x="266" y="376"/>
      <point x="266" y="392" type="qcurve" smooth="yes"/>
      <point x="266" y="407"/>
      <point x="277" y="418" type="qcurve" smooth="yes"/>
      <point x="405" y="546" type="line"/>
      <point x="405" y="624" type="line"/>
    </contour>
  </outline>
</glyph>
